<mxfile host="65bd71144e">
    <diagram id="3TlQKc49_nHwsOzywlwp" name="Page-1">
        <mxGraphModel dx="1445" dy="1904" grid="1" gridSize="10" guides="1" tooltips="1" connect="1" arrows="1" fold="1" page="1" pageScale="1" pageWidth="850" pageHeight="1100" background="#ffffff" math="0" shadow="0">
            <root>
                <mxCell id="0"/>
                <mxCell id="1" parent="0"/>
                <mxCell id="8" value="" style="edgeStyle=none;html=1;labelBackgroundColor=default;startArrow=classic;startFill=1;" parent="1" source="3" target="23" edge="1">
                    <mxGeometry relative="1" as="geometry">
                        <mxPoint x="150" y="193" as="targetPoint"/>
                    </mxGeometry>
                </mxCell>
                <mxCell id="7" value="" style="edgeStyle=none;html=1;labelBackgroundColor=default;startArrow=classic;startFill=1;" parent="1" source="4" target="23" edge="1">
                    <mxGeometry relative="1" as="geometry">
                        <mxPoint x="150" y="151" as="targetPoint"/>
                    </mxGeometry>
                </mxCell>
                <mxCell id="4" value="iOS app" style="html=1;verticalLabelPosition=bottom;align=center;labelBackgroundColor=default;verticalAlign=top;strokeWidth=2;strokeColor=#0080F0;shadow=0;dashed=0;shape=mxgraph.ios7.icons.smartphone;aspect=fixed;" parent="1" vertex="1">
                    <mxGeometry x="106.75999999999999" y="148.28" width="34.75" height="57.92" as="geometry"/>
                </mxCell>
                <mxCell id="10" value="" style="edgeStyle=none;html=1;labelBackgroundColor=default;startArrow=classic;startFill=1;" parent="1" source="22" target="25" edge="1">
                    <mxGeometry relative="1" as="geometry">
                        <mxPoint x="384.11013215859043" y="214" as="sourcePoint"/>
                        <mxPoint x="362.7319587628865" y="300" as="targetPoint"/>
                    </mxGeometry>
                </mxCell>
                <mxCell id="17" value="" style="edgeStyle=none;html=1;labelBackgroundColor=default;" parent="1" source="22" target="20" edge="1">
                    <mxGeometry relative="1" as="geometry">
                        <mxPoint x="442" y="173.61388888888882" as="sourcePoint"/>
                        <mxPoint x="540" y="173.88611111111106" as="targetPoint"/>
                    </mxGeometry>
                </mxCell>
                <mxCell id="12" value="" style="edgeStyle=none;html=1;labelBackgroundColor=default;startArrow=classic;startFill=1;" parent="1" source="22" target="24" edge="1">
                    <mxGeometry relative="1" as="geometry">
                        <mxPoint x="442" y="193.75" as="sourcePoint"/>
                        <mxPoint x="460" y="300" as="targetPoint"/>
                    </mxGeometry>
                </mxCell>
                <mxCell id="15" value="" style="edgeStyle=none;html=1;labelBackgroundColor=default;startArrow=classic;startFill=1;" parent="1" source="23" target="22" edge="1">
                    <mxGeometry relative="1" as="geometry">
                        <mxPoint x="310" y="174.37623762376234" as="sourcePoint"/>
                        <mxPoint x="360" y="173.140350877193" as="targetPoint"/>
                    </mxGeometry>
                </mxCell>
                <mxCell id="28" value="" style="edgeStyle=orthogonalEdgeStyle;html=1;rounded=1;labelBackgroundColor=default;" parent="1" source="18" target="27" edge="1">
                    <mxGeometry relative="1" as="geometry">
                        <Array as="points">
                            <mxPoint x="740" y="90"/>
                        </Array>
                    </mxGeometry>
                </mxCell>
                <mxCell id="32" value="" style="edgeStyle=none;html=1;labelBackgroundColor=default;" parent="1" source="18" target="29" edge="1">
                    <mxGeometry relative="1" as="geometry"/>
                </mxCell>
                <mxCell id="26" value="" style="edgeStyle=none;html=1;labelBackgroundColor=default;" parent="1" source="20" target="18" edge="1">
                    <mxGeometry relative="1" as="geometry"/>
                </mxCell>
                <mxCell id="22" value="API" style="aspect=fixed;html=1;points=[];align=center;image;fontSize=12;image=img/lib/azure2/compute/App_Services.svg;labelBackgroundColor=default;" parent="1" vertex="1">
                    <mxGeometry x="425" y="142" width="64" height="64" as="geometry"/>
                </mxCell>
                <mxCell id="23" value="Load Balancer" style="aspect=fixed;html=1;points=[];align=center;image;fontSize=12;image=img/lib/azure2/networking/Front_Doors.svg;labelBackgroundColor=default;" parent="1" vertex="1">
                    <mxGeometry x="260" y="142" width="68" height="60" as="geometry"/>
                </mxCell>
                <mxCell id="24" value="Posts/Comments Database" style="aspect=fixed;html=1;points=[];align=center;image;fontSize=12;image=img/lib/azure2/databases/Azure_Cosmos_DB.svg;labelBackgroundColor=default;" parent="1" vertex="1">
                    <mxGeometry x="328" y="315.2" width="64" height="64" as="geometry"/>
                </mxCell>
                <mxCell id="25" value="Users Database" style="aspect=fixed;html=1;points=[];align=center;image;fontSize=12;image=img/lib/azure2/databases/Azure_Cosmos_DB.svg;labelBackgroundColor=default;" parent="1" vertex="1">
                    <mxGeometry x="490" y="315.2" width="64" height="64" as="geometry"/>
                </mxCell>
                <mxCell id="75" value="" style="edgeStyle=none;html=1;fontSize=12;" edge="1" parent="1" source="27" target="70">
                    <mxGeometry relative="1" as="geometry"/>
                </mxCell>
                <mxCell id="27" value="Android Subscription" style="aspect=fixed;html=1;points=[];align=center;image;fontSize=12;image=img/lib/azure2/integration/Service_Bus.svg;labelBackgroundColor=default;" parent="1" vertex="1">
                    <mxGeometry x="840" y="40" width="68" height="60" as="geometry"/>
                </mxCell>
                <mxCell id="36" value="" style="edgeStyle=orthogonalEdgeStyle;rounded=1;html=1;labelBackgroundColor=default;" parent="1" source="29" target="71" edge="1">
                    <mxGeometry relative="1" as="geometry"/>
                </mxCell>
                <mxCell id="29" value="SMS Subscription" style="aspect=fixed;html=1;points=[];align=center;image;fontSize=12;image=img/lib/azure2/integration/Service_Bus.svg;labelBackgroundColor=default;" parent="1" vertex="1">
                    <mxGeometry x="840" y="140" width="68" height="60" as="geometry"/>
                </mxCell>
                <mxCell id="40" value="" style="edgeStyle=orthogonalEdgeStyle;rounded=1;html=1;labelBackgroundColor=default;" parent="1" source="30" target="73" edge="1">
                    <mxGeometry relative="1" as="geometry"/>
                </mxCell>
                <mxCell id="30" value="Email Subscription" style="aspect=fixed;html=1;points=[];align=center;image;fontSize=12;image=img/lib/azure2/integration/Service_Bus.svg;labelBackgroundColor=default;" parent="1" vertex="1">
                    <mxGeometry x="840" y="255.2" width="68" height="60" as="geometry"/>
                </mxCell>
                <mxCell id="33" value="" style="edgeStyle=orthogonalEdgeStyle;html=1;rounded=1;labelBackgroundColor=default;" parent="1" source="18" target="30" edge="1">
                    <mxGeometry relative="1" as="geometry">
                        <mxPoint x="750" y="150" as="sourcePoint"/>
                        <mxPoint x="850" y="80" as="targetPoint"/>
                        <Array as="points">
                            <mxPoint x="750" y="285"/>
                        </Array>
                    </mxGeometry>
                </mxCell>
                <mxCell id="34" value="" style="edgeStyle=orthogonalEdgeStyle;html=1;rounded=1;labelBackgroundColor=default;" parent="1" source="18" target="31" edge="1">
                    <mxGeometry relative="1" as="geometry">
                        <mxPoint x="710" y="280" as="sourcePoint"/>
                        <mxPoint x="850" y="295" as="targetPoint"/>
                        <Array as="points">
                            <mxPoint x="720" y="390"/>
                        </Array>
                    </mxGeometry>
                </mxCell>
                <mxCell id="35" value="SMS" style="dashed=0;outlineConnect=0;html=1;align=center;labelPosition=center;verticalLabelPosition=bottom;verticalAlign=top;shape=mxgraph.webicons.sms;fillColor=#86D466;gradientColor=#42B418;aspect=fixed;labelBackgroundColor=default;" parent="1" vertex="1">
                    <mxGeometry x="1230.8200000000002" y="133.81" width="72.4" height="72.4" as="geometry"/>
                </mxCell>
                <mxCell id="39" value="Email" style="html=1;verticalLabelPosition=bottom;align=center;labelBackgroundColor=default;verticalAlign=top;strokeWidth=2;strokeColor=#0080F0;shadow=0;dashed=0;shape=mxgraph.ios7.icons.mail;aspect=fixed;" parent="1" vertex="1">
                    <mxGeometry x="1227.6200000000001" y="263.53000000000003" width="78.8" height="43.34" as="geometry"/>
                </mxCell>
                <mxCell id="41" value="" style="edgeStyle=orthogonalEdgeStyle;html=1;rounded=1;labelBackgroundColor=default;" parent="1" source="69" target="3" edge="1">
                    <mxGeometry relative="1" as="geometry">
                        <mxPoint x="640" y="440" as="sourcePoint"/>
                        <mxPoint x="410" y="470" as="targetPoint"/>
                        <Array as="points">
                            <mxPoint x="990" y="470"/>
                            <mxPoint x="100" y="470"/>
                        </Array>
                    </mxGeometry>
                </mxCell>
                <mxCell id="42" value="" style="edgeStyle=orthogonalEdgeStyle;html=1;rounded=1;labelBackgroundColor=default;exitX=0;exitY=0.5;exitDx=0;exitDy=0;" parent="1" source="58" target="59" edge="1">
                    <mxGeometry relative="1" as="geometry">
                        <mxPoint x="510" y="42" as="sourcePoint"/>
                        <mxPoint x="750" as="targetPoint"/>
                        <Array as="points">
                            <mxPoint x="120" y="-188"/>
                        </Array>
                    </mxGeometry>
                </mxCell>
                <mxCell id="43" value="&lt;font style=&quot;font-size: 16px;&quot;&gt;&lt;b&gt;Notification Service - Decoupled Architecture&lt;br&gt;&lt;/b&gt;&lt;/font&gt;piers-sinclair.com" style="text;html=1;strokeColor=none;fillColor=none;align=center;verticalAlign=middle;whiteSpace=wrap;rounded=0;labelBackgroundColor=default;" parent="1" vertex="1">
                    <mxGeometry x="130" y="-166.44" width="380" height="30" as="geometry"/>
                </mxCell>
                <mxCell id="18" value="Notifications Service Bus" style="aspect=fixed;html=1;points=[];align=center;image;fontSize=12;image=img/lib/azure2/integration/Service_Bus.svg;labelBackgroundColor=default;" parent="1" vertex="1">
                    <mxGeometry x="710" y="140" width="68" height="60" as="geometry"/>
                </mxCell>
                <mxCell id="3" value="Website Client" style="aspect=fixed;html=1;points=[];align=center;image;fontSize=12;image=img/lib/azure2/general/Browser.svg;labelBackgroundColor=default;" parent="1" vertex="1">
                    <mxGeometry x="93.38" y="274.3" width="61.5" height="49.2" as="geometry"/>
                </mxCell>
                <mxCell id="76" value="" style="edgeStyle=none;html=1;fontSize=12;" edge="1" parent="1" source="31" target="69">
                    <mxGeometry relative="1" as="geometry"/>
                </mxCell>
                <mxCell id="31" value="Website Subscription" style="aspect=fixed;html=1;points=[];align=center;image;fontSize=12;image=img/lib/azure2/integration/Service_Bus.svg;labelBackgroundColor=default;" parent="1" vertex="1">
                    <mxGeometry x="840" y="360" width="68" height="60" as="geometry"/>
                </mxCell>
                <mxCell id="49" value="" style="edgeStyle=orthogonalEdgeStyle;rounded=1;html=1;labelBackgroundColor=default;" parent="1" source="48" target="39" edge="1">
                    <mxGeometry relative="1" as="geometry"/>
                </mxCell>
                <mxCell id="48" value="SendGrid" style="shape=image;verticalLabelPosition=bottom;verticalAlign=top;imageAspect=0;aspect=fixed;image=data:image/png,iVBORw0KGgoAAAANSUhEUgAADOQAAALUCAYAAAARqAzOAAAACXBIWXMAAC4jAAAuIwF4pT92AAAAGXRFWHRTb2Z0d2FyZQBBZG9iZSBJbWFnZVJlYWR5ccllPAAAsE1JREFUeNrs3T9vW9l6L+A1cwcBchsr6RIgkAKwt4I07MQ0YTrpIMUtzfMJrIPUgXmQD2DNJxD9CSyXqkwjjapYblIJGPoCB7ipjl3cm2Iu4qx3uDjmeCRZS+KfvcnnARY27TmBo1ebe2+stX/r/ebTp08JAAAAAAAAAAAAAAAAuJtvlQAAAAAAAAAAAAAAAADuTiAHAAAAAAAAAAAAAAAAKgjkAAAAAAAAAAAAAAAAQAWBHAAAAAAAAAAAAAAAAKggkAMAAAAAAAAAAAAAAAAVBHIAAAAAAAAAAAAAAACggkAOAAAAAAAAAAAAAAAAVBDIAQAAAAAAAAAAAAAAgAoCOQAAAAAAAAAAAAAAAFBBIAcAAAAAAAAAAAAAAAAqCOQAAAAAAAAAAAAAAABABYEcAAAAAAAAAAAAAAAAqCCQAwAAAAAAAAAAAAAAABUEcgAAAAAAAAAAAAAAAKCCQA4AAAAAAAAAAAAAAABUEMgBAAAAAAAAAAAAAACACgI5AAAAAAAAAAAAAAAAUEEgBwAAAAAAAAAAAAAAACoI5AAAAAAAAAAAAAAAAEAFgRwAAAAAAAAAAAAAAACoIJADAAAAAAAAAAAAAAAAFQRyAAAAAAAAAAAAAAAAoIJADgAAAAAAAAAAAAAAAFQQyAEAAAAAAAAAAAAAAIAKAjkAAAAAAAAAAAAAAABQQSAHAAAAAAAAAAAAAAAAKgjkAAAAAAAAAAAAAAAAQAWBHAAAAAAAAAAAAAAAAKggkAMAAAAAAAAAAAAAAAAVBHIAAAAAAAAAAAAAAACggkAOAAAAAAAAAAAAAAAAVBDIAQAAAAAAAAAAAAAAgAoCOQAAAAAAAAAAAAAAAFBBIAcAAAAAAAAAAAAAAAAqCOQAAAAAAAAAAAAAAABABYEcAAAAAAAAAAAAAAAAqCCQAwAAAAAAAAAAAAAAABUEcgAAAAAAAAAAAAAAAKCCQA4AAAAAAAAAAAAAAABUEMgBAAAAAAAAAAAAAACACgI5AAAAAAAAAAAAAAAAUEEgBwAAAAAAAAAAAAAAACoI5AAAAAAAAAAAAAAAAEAFgRwAAAAAAAAAAAAAAACoIJADAAAAAAAAAAAAAAAAFQRyAAAAAAAAAAAAAAAAoIJADgAAAAAAAAAAAAAAAFQQyAEAAAAAAAAAAAAAAIAKAjkAAAAAAAAAAAAAAABQQSAHAAAAAAAAAAAAAAAAKgjkAAAAAAAAAAAAAAAAQAWBHAAAAAAAAAAAAAAAAKggkAMAAAAAAAAAAAAAAAAVBHIAAAAAAAAAAAAAAACggkAOAAAAAAAAAAAAAAAAVBDIAQAAAAAAAAAAAAAAgAoCOQAAAAAAAAAAAAAAAFBBIAcAAAAAAAAAAAAAAAAqCOQAAAAAAAAAAAAAAABABYEcAAAAAAAAAAAAAAAAqCCQAwAAAAAAAAAAAAAAABUEcgAAAAAAAAAAAAAAAKCCQA4AAAAAAAAAAAAAAABUEMgBAAAAAAAAAAAAAACACgI5AAAAAAAAAAAAAAAAUEEgBwAAAAAAAAAAAAAAACoI5AAAAAAAAAAAAAAAAEAFgRwAAAAAAAAAAAAAAACoIJADAAAAAAAAAAAAAAAAFQRyAAAAAAAAAAAAAAAAoIJADgAAAAAAAAAAAAAAAFQQyAEAAAAAAAAAAAAAAIAKAjkAAAAAAAAAAAAAAABQQSAHAAAAAAAAAAAAAAAAKgjkAAAAAAAAAAAAAAAAQAWBHAAAAAAAAAAAAAAAAKggkAMAAAAAAAAAAAAAAAAVBHIAAAAAAAAAAAAAAACggkAOAAAAAAAAAAAAAAAAVBDIAQAAAAAAAAAAAAAAgAoCOQAAAAAAAAAAAAAAAFBBIAcAAAAAAAAAAAAAAAAqCOQAAAAAAAAAAAAAAABABYEcAAAAAAAAAAAAAAAAqCCQAwAAAAAAAAAAAAAAABUEcgAAAAAAAAAAAAAAAKCCQA4AAAAAAAAAAAAAAABUEMgBAAAAAAAAAAAAAACACgI5AAAAAAAAAAAAAAAAUEEgBwAAAAAAAAAAAAAAACoI5AAAAAAAAAAAAAAAAECF75QAaJp/+veP/+vH//r0FypBW3363//1pzvffvOfKkFb/cs//NmJKgAAAAAAAAAAAADc7JtPnz6pAtAof/uv//HHf/v4445K0FZ/+da9lXb7wz//1TeqAAAAAAAAAAAAAHCzb5UAAAAAAAAAAAAAAAAA7k4gBwAAAAAAAAAAAAAAACoI5AAAAAAAAAAAAAAAAEAFgRwAAAAAAAAAAAAAAACoIJADAAAAAAAAAAAAAAAAFQRyAAAAAAAAAAAAAAAAoIJADgAAAAAAAAAAAAAAAFQQyAEAAAAAAAAAAAAAAIAKAjkAAAAAAAAAAAAAAABQQSAHAAAAAAAAAAAAAAAAKgjkAAAAAAAAAAAAAAAAQAWBHAAAAAAAAAAAAAAAAKggkAMAAAAAAAAAAAAAAAAVBHIAAAAAAAAAAAAAAACggkAOAAAAAAAAAAAAAAAAVBDIAQAAAAAAAAAAAAAAgAoCOQAAAAAAAAAAAAAAAFBBIAcAAAAAAAAAAAAAAAAqCOQAAAAAAAAAAAAAAABABYEcAAAAAAAAAAAAAAAAqCCQAwAAAAAAAAAAAAAAABUEcgAAAAAAAAAAAAAAAKCCQA4AAAAAAAAAAAAAAABUEMgBAAAAAAAAAAAAAACACgI5AAAAAAAAAAAAAAAAUEEgBwAAAAAAAAAAAAAAACoI5AAAAAAAAAAAAAAAAEAFgRwAAAAAAAAAAAAAAACoIJADAAAAAAAAAAAAAAAAFQRyAAAAAAAAAAAAAAAAoIJADgAAAAAAAAAAAAAAAFQQyAEAAAAAAAAAAAAAAIAKAjkAAAAAAAAAAAAAAABQQSAHAAAAAAAAAAAAAAAAKgjkAAAAAAAAAAAAAAAAQAWBHAAAAAAAAAAAAAAAAKggkAMAAAAAAAAAAAAAAAAVBHIAAAAAAAAAAAAAAACggkAOAAAAAAAAAAAAAAAAVBDIAQAAAAAAAAAAAAAAgAoCOQAAAAAAAAAAAAAAAFBBIAcAAAAAAAAAAAAAAAAqCOQAAAAAAAAAAAAAAABABYEcAAAAAAAAAAAAAAAAqCCQAwAAAAAAAAAAAAAAABUEcgAAAAAAAAAAAAAAAKCCQA4AAAAAAAAAAAAAAABUEMgBAAAAAAAAAAAAAACACgI5AAAAAAAAAAAAAAAAUEEgBwAAAAAAAAAAAAAAACoI5AAAAAAAAAAAAAAAAEAFgRwAAAAAAAAAAAAAAACoIJADAAAAAAAAAAAAAAAAFQRyAAAAAAAAAAAAAAAAoIJADgAAAAAAAAAAAAAAAFQQyAEAAAAAAAAAAAAAAIAKAjkAAAAAAAAAAAAAAABQQSAHAAAAAAAAAAAAAAAAKgjkAAAAAAAAAAAAAAAAQAWBHAAAAAAAAAAAAAAAAKggkAMAAAAAAAAAAAAAAAAVBHIAAAAAAAAAAAAAAACggkAOAAAAAAAAAAAAAAAAVBDIAQAAAAAAAAAAAAAAgAoCOQAAAAAAAAAAAAAAAFBBIAcAAAAAAAAAAAAAAAAqCOQAAAAAAAAAAAAAAABABYEcAAAAAAAAAAAAAAAAqCCQAwAAAAAAAAAAAAAAABUEcgAAAAAAAAAAAAAAAKCCQA4AAAAAAAAAAAAAAABUEMgBAAAAAAAAAAAAAACACgI5AAAAAAAAAAAAAAAAUEEgBwAAAAAAAAAAAAAAACoI5AAAAAAAAAAAAAAAAEAFgRwAAAAAAAAAAAAAAACoIJADAAAAAAAAAAAAAAAAFQRyAAAAAAAAAAAAAAAAoIJADgAAAAAAAAAAAAAAAFQQyAEAAAAAAAAAAAAAAIAKAjkAAAAAAAAAAAAAAABQ4TslAAAA2B6dbn8nH/bLH/fKCPN/n+b+7vED/8k31/zdhzwub/rz1cX52G8KAAAAAGi6Trffm/tj74v/3Lvm/2Qvj90H/rMf0y/nV2cmZcyYdwWA5T4HzNZXY+zM3fu/dr9/V+7Ts3t13L8v8736UlUBoH2++fTpkyoAjfK3//off/y3jz/uqARt9Zdv3Vtptz/88199owrQXp1ufy9NJ3lnE7/zx0ct+3HmF5bjGJPSk9m4ujif+I0DAAAAAIvW6fZn86p7ZcxvaNTGudZ5t827fvAyMADc+HwQzwNHaRq8ibG7hH/mTbk/j/M9+UzVAaD5BHKAxhHIoe0Ecmg7gRxoh7IgvJc+77oUnx9vYSnep7JrVJouHI+TsA4AAAAA8BVzoZte+hy8ibGrOj+HdiZpbv5Vlx0AtvB5IZ4NIoQzSOtZi32VRwRzzvJ9+IPfCAA0j0AO0DgCObSdQA5tJ5ADzVMWhufHgarcSewgNSljnKat3k1UAwAAAMAWsbnRws3COrPAzk+fzb0CsGHPD4M0DeE0aV32RR4jAVkAaBaBHKBxBHJoO4Ec2k4gB9artDqPReFeGcI3ixUddWaLxeNkoRgAAAAANobNjdZqfu51FtKZKAsALXqOiHXa4zIeNfj/1Xd5nOT77MhvDQDWTyAHaByBHNpOIIe2E8iB1et0+9HmvFeGnRlXLyatZwGdsUViAAAAAGi+Tre/lz5vbiR800zRTWecbJAEQLOfKdoSxPlShGGHgjkAsF4COUDjCOTQdgI5tJ1ADixf2aWxl0cEcSwSN09MXo+TgA4AAAAsRafb7+XDa5VYiDdXF+c9ZWBLrh2zrje9MnZVpZVig6RxKiEd868ArPn5IkI4w9SuIM5199bjfE8d+40C97wWxnXwmUoshHmaLfSdEgAAACzfXBecOFoobrb4/TwpI353EdA5S58DOnZwBAAAAIAlKx1weunzvOojVdkIj9Ncp/gy/zpONkgCYLXPGfF8cTJ/T2r5vfV1/ple5ePAWiYArJZADgAAwJKUEM5sWCxurwjoPC0jlcnscR5nFocBAAAAYDE63f5O+hy+iaONjbaDDZIAWPUzRwRxnm7gj3aYxyT/fBHKOfObBoDVEMgBAABYICGcrXBYxvP8+44W8KM0XRi+VBoAAAAAuLvSBWc2n3qgIqRfb5D0JpWAjjlYAB743LGfput6jzf4x4z16Zf5Z32Rj8eCrQCwfAI5AAAAD1Qmbwdpumhs18btEhP2z8t5EDs3jmLonAMAAAAA1zOfSqWDMn7RPcfO/wBUPn/Es0d0xtmWDRWj89x+6ZYj0AoASySQAwAAcA+dbn8nTReMj9Nm76LE3cXLA89izHXOORPOAQAAAGDbzXUW7yUhHO7v5+45+Zz6mEo4J03nYXUAAOCm55CTcv/YNrGGPS6hHEFWAFgSgRwAAIAKZffGCOHE4vEjFeEGs845z/M58ypNF4RHygIAAADAtpjrhBPDXCqLFufUkzJOZ/OwSTgHgM/PIrHB4km5V2zz/fJlrsVvrVUCwHII5AAAANxBaWMe40A1qHQYo+y+NcrjRNccAAAAADbRXAgnNjTSCYdVOizjJJ+Hs2CObgAA2/tMEmGccZpuosc0vLqf743HSgEAiyWQAwAAcIMyUTtI0444Fo95qNiB6mmMfG69yceRnagAAAAAaLu5edQYXnpl3X7unJPPzY9p2jUnNkm6VBqArXo2GXsu+ZVYo9zJ98SBUgDA4gjkAAAAfKFM0h6X8UhFWILotHSQz7Vh+tw154OyAAAAANAWnW4/uuAM0rQrCTTRfDjnfT5GF/MzHcwBNvr5RBjndnFP/KBTDgAsjkAOAABA0en299LnjjiCOKxCdF56FudcPv9ip8ahxWAAAAAAmmpuDjWGruK0SZyvz2Pk8/hVmnYwP1MWgI0zSsI4XxOdci7zfXCkFADwcAI5AADA1is7JQ3zeKoarMn8To0v0nQxeKwsAAAAADRBp9vvpelGRrrhsAniPD4sXXNGaTofO1EWgNY/r4w8q9zZaa5XEsoBgIf7VgkAAIBtFUGcPIb54yQJ49AcEcx5nc/NcXnRAQAAAABWrsyfDvKY5D++Tl5wZfPMOpj/EB3MzccCtPq5JYLDT1Siykmu274yAMDDCOQAAABbaS6IE4ttj1SEBjpIgjkAAAAArFin29/L4yRN509P0zS0AJsuAmcxHzuJIJpyALTq2SVCJc9VolqskUcgdUcpAOD+vlMCAABgm5SFtGGyiEx7zII5b+Lcvbo4HysJAAAAAItWXma1uzzbLtYOTkso7adxdXH+QVkAGvv8EmGSM5V40H1vlMeRUgDA/eiQAwAAbIVYTI5OI8mOjrTXLJgTO1XtKQcAAAAAixDdmcvc6dskjAMz0TXgWR5/zN+PkTlZgMYaJWu/D3WoOxwA3J9ADgAAsNFiV6Syk10sJh+oCBvgMI8fyiKwFvIAAAAA3MtcEOd1MncKt4mg2mxOtqccAI15lomuLocqsRAnwqcAcD8COQAAwMYqO/lM8niqGmygWASe5PN8KJgDAAAAwF3FvKkgDtxLzMlGF/OxYA7A2p9nYm1spBILE53hTpQBAOoJ5AAAABsndu8pC8qnaTp5CJsqzu9neVyWXcAAAAAA4FqlI85lms6bCuLA/cX3RzAHYL2GyTrwoh26rwFAPYEcAABgo3S6/eN8iEVlC8psk908XpYF4H3lAAAAAGCmBHHGadoR57GKwMII5gCs59lmLx+eqsRSjJQAAOoI5AAAABthrivO82Q3JLZXLAC/zd+Fkzx2lAMAAABge30RxLGBESzPfDDHhkkAyzdSgqXZzfeygTIAwN0J5AAAAK2nKw78SuwKdpm/G0dKAQAAALBdyuZFoySIA6s22zBpVLo3ALD455ye55ulGyoBANydQA4AANBa0QFEVxy40W4eL/N35MziLwAAAMDmK/OlJ/njD3k8URFYm/j+/aCTOcBSHCvB0umSAwAVBHIAAIBWKrsfTZIdkOBrDtO0W44FCgAAAIANVeZ+JmnaORlohvg+TvL3c6gUAAt53tlL03Uvls+9CwDuSCAHAABonbLL4+ukKw7cVXxXnkdHKd1yAAAAADZHbFyUxyTpIg5NFd/LZ/E9zeNIOQAeZKgEK7PrvgUAdyOQAwAAtEan29+JQEGyyyPcV3SU0i0HAAAAoOVi05U8ztJ046JdFYHGi+/py7Jp0r5yAFQ/++zkg4DIag2UAAC+TiAHAABohbJANUnTQAFwf7NuOWdl8QIAAACAFul0+8N8+CGPQ9WA1ok1jrf5e3xifhagSoRxdANcrUP3KgD4OoEcAACg8Trd/iAf3iaTrLBI8cLGRLt5AAAAgHbodPu9PCb54zPVgNZ7mszPAtRwvVyPgRIAwO0EcgAAgEbrdPujfDhVCViKCLm9tBsjAAAAQHPFvE10O84fX+exqyKwMWbzs+M89pQD4OZnoaQz4LoMlAAAbieQAwAANFJZZB7nj09UA5YudmOMRd99pQAAAABojtI9fJK8hAqb7CCPH/L3fagUANfSHWd9HtvUDwBuJ5ADAAA0TtkJbpymi1DAajxO01DOQCkAAAAA1ivmSMuGRdE9/JGKwFZ4lr/3l3n0lALgF1wX10sgCgBuIZADAAA0SunQcZmm4QBgteLljtP8PRzZ7QoAAABgPTrd/nGazpHasAi2T6yNvM7XgRNztAA/EwhZr54SAMDNBHIAAIDGKLu+jZMdH2HdnqRpt5w9pQAAAABYjbmuOM+TOVLYdk/z0C0H8Hw0XavyXLRe7kUAcAuBHAAAoBE63f4gH14nE6rQFLETYyz42nUMAAAAYMnKHIyuOMC83VS65SgFsMV6SrD++5GubQBwM4EcAABg7UoY51QloHEiIPcyf0eHSgEAAACwePFyYx5n+ePLZLMi4HpP83UiNk/aVwpgC7n2+T0AQKMJ5AAAAGsljAOt8CxeDLH7FQAAAMDidLr9Xpp2xTlUDeAroqP5W5snAVtIEKQZekoAANcTyAEAANZGGAdaJV4MGduFEQAAAODhykv1r/PYVQ2gQmyeFPO0e0oBbAnXu2awaR8A3EAgBwAAWAthHGil2IVxXHZvBQAAAKBSvESfR3TFeaYawD0d5HGZryVHSgFsAeHlZrBhHwDcQCAHAABYOWEcaLVHebwu32MAAAAA7qi8PB9hnMeqATxQzNO+zNeVE6UANvjZaU8VGkOHHAC4gUAOAACwUsI4sDFOLfYCAAAA3E2ZR3mZpi/RAyzK0+i65aV1YEO5tjWHQDkA3EAgBwAAWBlhHNg4sdg7ysOuWAAAAADXiHmTPMb541PVAJYkXpK+LF24AAAAWCGBHAAAYCU63f5+PuimAZvnSR5joRwAAACAXypzopM8DlQDWLLovvVSV3MAAIDVEsgBAACWriw8j9N0QQjYPLED47h81wEAAAC2XukW/jaZEwVWK7qa20AJ2BTWnQCAxhPIAQAAlqos+pwlC8+w6YRyAAAAANJPc6KjfDhVCWBNoivXxFwtsAGECwGAxhPIAQAAlqaEccZ57KoGbIUI3gnlAAAAAFsp5kPzuMwfn6gGsGYxV/u2dOsCAABgSQRyAACAZTpJ064ZwPaw0AsAAABsnbJBSYRxzIcCTXKar08nygC01KUSAABNJ5ADAAAsRafbHyY7QcI2OxXKAQAAALZBp9s/SjqFA831NF+norP5jlIALfNBCQCAphPIAQAAFq4sQD9TCdh6QjkAAADARitzHy/TtGswQFMd5BGhnD2lAAAAWByBHAAAYKHKYs5IJYAiQjknygAAAABsmk63P8qHU5UAWuJxHpf52rWvFABUeq8EAHA9gRwAAGBhOt3+Tj6cJbtBAr/0tLygAgAAANB6MQ9a5jqeqAbQMrF+M9bZHGiDq4vzsSo0xkQJAOB6AjkAAMAiRReMx8oAXOOJUA4AAADQdmVTonESxgHaK0I5p0I5AFT4oAQAcD2BHAAAYCE63f5RsggN3E4oBwAAAGituTCOTYmATXBqvhZogTdK0AiXSgAA1xPIAQAAHqzT7e/lw0glgDsQygEAAABap9Pt7+fDJAnjAJvFfC3QdBMlaASBHAC4gUAOAACwCKM8HikDcEcWeQEAAIDWKGGccTIHCmymmK89K13AAJpmogR+DwDQZAI5AADAg3S6/eN8OFAJoJJQDgAAANB4wjjAljiMa51QDtBAYyVYu49XF+c65ADADQRyAACAeyuL0c9VArgnoRwAAACgsYRxgC3zOAnlAA1zdXE+VoW1E8YBgFsI5AAAAA8xUgLggYRyAAAAgMbpdPuDJIwDbB+hHKCJ3ijBWo2VAABuJpADAADcS6fbP07ThRmAhxLKAQAAABqjhHFOkzAOsJ2EcoCmGSvBWp0pAQDcTCAHAACo1un29/JhqBLAAh2VawsAAADA2syFcQC2mVAO0CQCIevz/uri/FIZAOBmAjkAAMB9jJLdIYHFeZPH3tXF+UQpAAAAgHURxgH4BaEcoBFKIOS9SqzFWAkA4HYCOQAAQJVOt3+UDwcqASzI768uznt5fFAKAAAAYF3KvKcwDsAvCeUATaFLznqcKAEA3E4gBwAAuLOy4GLSDViEj3n83dXF+VApAAAAgHXqdPv7adoVHIBfE8oBmsAa9eq9L92JAIBbCOQAAAA1jvPYVQbggd7lsXd1cT5WCgAAAGCdShhnnMcj1QC4kVAOsFZXF+eTfHijEis1UgIA+DqBHAAA4E463f5emgZyAB7i+6uL8/08PigFAAAAsE7COABVhHKAdRspwUrpSgQAdyCQAwAA3NUwWZgG7u9jHr+5ujgX7AMAAADWThgH4F6EcoC1ubo4H+XDe5VYiRc21wOAuxHIAQAAvqp0x3miEsA9vcsjuuKcKQUAAACwbuVF8pinEMYBqPdTKEcZgDXRtWU1hkoAAHcjkAMAANzFSAmAe/r+6uI8wjgTpQAAAADWrYRxxnnsqgbAvT3O19ORMgBrENeej8qwVC+s6wHA3QnkAAAAt+p0+718OFAJoFIshvzm6uL8WCkAAACAJpgL4zxWDYAHeyKUA6za1cX5h3yw9rRcQyUAgLsTyAEAAL5mqARApXd5RFecM6UAAAAAGuQkCeMALFKEcobKAKzS1cX5KB/eq8RSfK87DgDU+U4JAACAm+iOs7UiTPGhfB5/8d8mZVxnP4+dL/6uN/fZubQdvtcVBwAAAGia0sXhiUoALNyzfI2dlBfkAVZlkMdrZVioj8lmnQBQTSAHAAC4jZfqN1fsGjVJ08DNpIzL0ub9vsZ3+R91uv1ZcCeOe+UY45FfS6vFJP2xRVcAAACgaTrd/iAJ4wAs02m+1n7QNR1YlXy9Gefrzqv88VA1FmbwwLViANhKAjkAAMC1Ot3+XjKBuUnepGlgJsblOidT8799WT6OvzjnZiGd3txRSKcdoqvSYO53CwAAANAInW7/KB9OVQJg6Ub5mtszTwys0CBNNx20nvhwr4QqAeB+BHIAAICbDJWg1aIDTkyajtsyeVpCQuM0F9QpwbBeHkdJQKepXqRpZxw7ZgEAAACNUjo1j1QCYCVi/j46VuyZLwZWIa41pRPiS9V4kI9pGm4CAO5BIAcAAPiVEoJ4ohKtMwvhjDZlB7r8c0zS9KWJUTk34yWKQZqGcx77la9VTM5HEGekFAAAAEDTlG7MMVdmgxeA1ZmFcnpCOcAqxMaE+Zrzff74VDXu7cg1GwDuTyAHAAC4zkAJWiU6lEQIZ7zpP2gJGh3H5xIcOyp/3nUarNS7uE5sSvALAAAA2EjjZM4IYB1iM62TZK0JWJGri/PjCAImm/ndx++3YY0ZAJbpWyUAAACucawEjRfdSX6fx59dXZwPtnGiNLrn5HGSx17+49/k8X2pC8sVAbCeMA4AAADQVJ1uf5S8kAmwTk/ytXioDMAK9ZJ1wlqvri7OXasB4IF0yAEAAH6h0+0P8uGRSjTW+zyGeZxpHf7ZXOec43IOx2cvXSxWLGIc51qPlAIAAABoqjI39EQlWKOYR5ttZjOe+/vxF/+7y9o53nx+7+TD/hd/vVdGmP/v8Xe6RLFOz/I5G+f5mVIAyxb31NIlJ+631rq/7l3SyQwAFkIgBwAA+NJACRopFnFPYgji3K4ERkZl0j2COYeq8mARBDvSFQcAAABosk63H0GEU5VgBWK+bJKmL/3GfG3Mm0VH78ky/9EyNzyu/F7MQjqz414Z8dkLyyzbT3P15paBVYhrTb7mHOWPr1XjVhHG6VlzBoDFEMgBAAB+1un29/LhQCUa50WadiYxKVoh12ucD+NyXg+TnVHv61UeA+cfAAAA0GQldDBWCZbgTZoGbmahm1adZ1+EeM6u+d7sp89BnThaI2CRIvR1FoFJc8zAiu57sTb42ySkfZPYBPLINRkAFkcgBwAAmHesBI0SuywO2rbA2zRlV8pBp9sfJsGcWr/L9TtRBgAAAKAFImig2wcPFXOy4zQN34w3vavHXFhnPP/3pdvUbPTyeOzU4AF28xjlcaQUwIrub9GdKz4K5fz6Oedo2R39AGDbCOQAAADzLIY0x/d5DO1OtDhzwZwImMSw0+PNZhPyl0oBAAAANF3ZiMVcD/cxC+D8NLygOlXmBS/nvmOzTjq9MnzfqHUY1+p8bg2VAljRvSxCOXFfF9qeehf3cGvPALB4AjkAAMBPOt1+hHF2VWLtok14dMU5U4rlKIvJvXLOnzjvf+VVOQdNyAMAAACNV+Z4nqkEFd6k6cu5YxvS3M2XnXRKQKdXhrUF7upZPnfiezdWCmBF969xvu70yv1rm0M58exzZO0PAJZDIAcAAJjRHWf9YmcibcJXJEJPsfiXPx4nL23M/C7X5UQZAAAAgDbodPt7+TBSCb4iNkH6KYATRy+jPlyp4VkZx/m7OOueM8jjsQpxi5iX3/M9BFZ4z7osz4zjLb1Hvcg1GDgTAGB5BHIAAIAZgZz10pVkDUq9h51uPxaOI4hysKWleJ+mYTA7ggIAAABtMkrbvds5N5uFcM50I1++Mq8Y46S89BzrDYMknMOvPSrfzZ5SACu8T8V64H6+R8Va4NMtehY6zj/7yBkAAMv1rRIAAACdbj8Wxyxcr0/sTKRN+BrFgnEevfzxd1v440cYbF8YBwAAAGiTTrc/TNu7uQo3i7mu3+YRHTgGwjirFx3gowt3HtE156/TdM71vcow56BcwwFWfY86zoffpGlYZZO9y6MnjAMAqyGQAwAABN1x1keb8AaJheJ8+Js0najeBr8XBgMAAADaptPt9/LhmUpQRNgjQh9/Xea6Rua7mmEunLOXpvOuL9LmvwTN3Twr13KAVd+bIqwb96VXG/ojxtqfjfgAYIUEcgAAgCCQsx7COA1UJqh7eXy/wT9mLHr/Xf5Zh37jAAAAQJt0uv2dfBipBGn6Im3Mce2V0MdESZqrdCkfpOlL0NHF6J2qbL2zck0HWPU96UOEeNO0W86mdHF7k6bh5KHfMACs1ndKAAAA263sQPZIJVZOGKfByg6ax/n7EeGckw37jsSEvK44AAAAQFuN8thVhq0VG83EfN1IAKedyrxkfI9HZX1ikMcTldlKj8q5YNM4YF33pOiWE+HAYT4ep3auB0agaJB/lrHfKACsh0DOBjr7P//5jz9+Sn+vErTVj//v///P9H9/VAhaa+fP/yT96f/QhA5olf9m7+515DjaR7H3keU/jo9hkG9i2NGOjIFTrnCSyTiKJjHA1RVwlDjl6gbM4RVoeQUcXoChZbiRZiNvpiVgn2gBzQZ24uAlg+MD+xg+rodTI65W/NiP7p6u7t8PKMxK76v9eHqmurqqnnosdLTvrWScMqTrtMxJOcvUHvXgT3rhZCwAAACgVOPJLOYyn4jEIMVm00Vqxw6a6Y+8eXh1ZSP0vHKA2NA8Sdf/MKpcCQWww/vRIvVFR/leVEpizoexUaxluoIAsFsScnooknH++R//v/9RJCjV//0f/t+q+r8k5FCuf/ffflNV//KfCQRQkqkQtOq9mJfl4uzkPJ/UGKdkPS74fXfgdCwAAACgVOPJbFRtDk1hWKLa89Jm037L1Y4OryTmlFqlgLuJjfDHql4BO74Xvcv9USTmRBJ43JO6WJXxTWpH1vwAoDsk5AAAwICNJ7OHVT+qfpRk6gTH8uRrNk2fmWV6fVrYrx+bFg687wAAAIDCLSsb9Ick5rQWNpsOy7XN0BJzhuNB7uOnQgF05F4UfdIy3Y/2873oYMf3o6iGE/dGyYsA0EEScgAAYNgOhKBVL6LaijCUK12/+Xgyi2v4S0HvuYUrBwAAAJRsPJnFRsjHIjEIEnGQmDNMj6NCkvlsoGP3o1gTnOfxaKyrT3Nr48DLGBMdp7ayvgwA3SYhBwAAhm0qBK15ayGpH9J1PBpPZrEg/KrDv+b71Obpdz12xQAAAICSjSezUXpZiETvxcnvsRl/KRRsXUvMifZUVHrtebrWxzaeAx29J8Wa23Eenz6sNuvs+/k1xqt79/j2b1Nbpxb930piMgCURUIOAAAM21QIWjMXgv6IjQHjySy+7GJSTkzaHyhZDwAAAPTEslIZo8/iYJlDiTh8SU7Mierli9wnqJjV7z5/XxiAAu5LfybobKX7VPRfD/M/Tj/zn8d/u008XFvPA4DyScgBAICByif37IlEK1440a1/OpqU8zL9XoeuDgAAANAH48lsXtl432cvUjvKm1rhq/Km5WnqG6bVJnHDGkf/PIrEq3StF0IBFHifuroevBIRABiGb4QAAAAGayoErYgTHo+EoZ/yyZ0/deR99qNkHAAAAKAv8oFC5tX66U1q38WGe8k43EV636xSG1WbpC7653m6B4yEAQAAKIGEHAAAGK59IWiFEx57rgNJOW/j85x+j2NXAwAAAOiRZWoPhKFXLlP74eLs5CBXOoF7yVVUvkvtVDR6eQ8AAADoPAk5AAAwXFMhaJzqOAOxw6Scl+ln79vAAAAAAPTJeDKbppcnItErUckk5rFWQkGdYm40tegzfq42c/L0w+N0L1ARHgAA6DwJOQAAMFwq5DRPdZwBaTkpJxaWf0w/04IkAAAA0CvjyexhpTJCn0R15++jkom5UpqU3l9xOFase6iW0x+LfE8AAADoLAk5AAAwQOPJbJReHohE41THGZiclPOy4R8Tmxim6WcdizgAAADQQ3EAyZ4w9MKLXN35XChog2o5vRPrWEthAAAAukxCDgAADNNICBr32omPw5Sr1rxu6n1VbZJxbGIAAAAAeicfJPRcJIr3Z1UcoWAXcrWcaX4vUrYn6d4wFQYAAKCrJOQAAMAwTYWgcUshGK6Ls5N5Ve9ib5zm+FN8X4leAAAAQI8thaB4quLQCfEejPdi1XxFc9wbAACAAZOQAwAAwzQSgkZdXpydrIRh8KbVJpHmviKxJ6riLIUUAAAA6KvxZHaQXh6LRLEuU/tBVRy6Jlc0/7GqZ66W3dhL9wh9CwAA0EkScgAAYJhGQtCoYyEgV7KZVvdb6H1dbZJxnCgKAAAA9N2REBTrTWr7Dimiq9J7M+bso1rOW9Eo1uF4MhsJAwAA0DUScgAAYJicNNksCTl8kBNpDu/wn0YSz0/pv5/nxB4AAACA3sqVD/ZEokg/X5ydHJjDouvSe3RdbQ5Qei0aRXqQ2kIYAACArpGQAwAAAzOezB6KQrOcBMm198Oyut0ib5zSOM3/HQAAAECv5fnKQ5EozmVq31+cnahsRDEicSwOQUpf/iwaRXqa7hlTYQAAALpEQg4AAAzPvhA06lQI+ITYVPL2Bv+/SNyZ5so6AAAAAEMQCR0PhKEoMQe6bw6LUuVEsh+rTaVyyrIQAgAAoEsk5AAAANRrJQRcFycvppd59eUF3p/jdMb8/wUAAADovfFkNkovT0WiKC8vzk6m5rAoXXoPH6eXabWp9kQ5RvneAQAA0AkScgAAYHimQtColRDwKfnE0MUn/qdY8P0+n8oIAAAAMCRLISjKTxdnJ4fCQF/kOdv96mbVzdm9F9WmOtdaKAAAgK6QkAMAAFCvcyHgc3LSzemVf/Wm2iwget8AAAAAgzKezKbp5bFIFCGqPseBMkuhoG9ytafoj05Fo7Pi2nyXrtVCdS4AAKBrvhUCAAAYnJEQNMdiEDdwkNo6tYWqOAAAAMCALYSgCFE5ZO5AGfpsm5QznsyW6fWpiHRGVJc/TNfnWCgAAICukpADAADDMxKCxjhBj6/Ki7sPRQIAAAAYqvFkNq9UxylBJONMHULEUKT3+jz1T/GlpJzde5Hakf4HAADoOgk5AAAAAAAAAECbFkLQeW+qTWUcm+EZFEk5OxcHnx2qygUAAJRCQg4AAAyPyhzNWQkBAAAAAHxero6zJxKd9jqSEoSBoZKUsxPvq00izlIoAACAknwjBAAAMDiPhAAAAAAA2JGFEHSaZByoNkk58XkQiVa8TG0kGQcAACiRCjkAAAAAAAAAQONUx+k8yThwhUo5jTutNlVxzoUCAAAolYQcAACA+qyFAAAAAAA+ayEEnSUZBz5BUk4j3lebRJylUAAAAKX7RggAAABqsxYCAAAAAPg71XE6TTIOfEH+fLwWiXr6m9RGknEAAIC+UCEHAAAAAAAAAGjaQgg6STIO3IBKOff2ttpUxVkJBQAA0Ccq5AAAANTnoRAAAAAAwF+pjtNZknHgFvLn5a1I3Mr71H5OsduXjAMAAPSRhBwAAID67AsBAAAAAPzNQgg6RzIO3M20kpRz434mtVHqa46EAgAA6CsJOQAAAAAAAABAI8aT2bRSHadrJOPAHaXPzrtqk5TzXjQ+6zK1H6KfyfECAADoLQk5AAAA9XkoBAAAAADwFwsh6JRTyThwP5JyPivi8SLFJ6rirIQDAAAYAgk5AAAA9dkXAgAAAADYyNVxHotEZ7xN7UAY4P4uzk7O08tcJP70JrX9FJeFUAAAAEMiIQcAAKA+IyEAAAAAgD/NhaAzLlOb5soeQA3S5+k4vfysb6l+SLE4SG3tXQEAAAyNhBwAAID67I0ns4fCAAAAAMDQjSezUXp5KhKd8D61A8k4UL/0uTpKL68H2q+8SH//KLWVdwIAADBUEnIAAADqNRUCAAAAAKgOhaAzIhnnXBig0f7u7YD+3tPU9lO/snDpAQCAoZOQAwAAUK+pEAAAAAAwZLmK9FwkOuEn1SugWbn61EG1qRrTZ5ep/Zj+3mlqa1ceAABAQg4AAEDdpkIAAAAAwMDFxvQHwrBzry/OTpbCAM3LCSoHPf4TX1SbqjjHrjYAAMBHEnIAAGB43gtBox6NJ7ORMAAAAAAwYAsh2Lm3F2cnc2GA9uRqVC969medpvZd+tsWuRIQAAAAV0jIAQCA4TkXgsbNhQAAAACAIRpPZtP0sicSOxWHMk2FAdoXiSvVJomlD/3Ij+nvmebqPwAAAHyChBwAAID6zYUAAAAAgIGaC8HOHahkAbv9DFabhJZSvUxtlPqRY5cSAADgyyTkAAAA1G9vPJkdCAMAAAAAQzKezB6ml6cisVM/X5ydrIQBdicnxM0L/NWjss/36fc/lNQHAABwM98KAQAADM46tcfC0LjD1JweB9AjeWPZ/pV/Nb32f7n+v9/0vrz+0r+zkQoYQP86Si+j/I/7uT+tPvPPXxIbxs6/0KeuU5+6FnEYVP9ytQ+53p/cduz2qT7mPP97fQx8NBeCnXqT+qIjYYDdi+oyaSwSlWaeFfDrRjWfSMJZunIAQFNqnqdZV39fX7s6T3MuwRhoi4QcAAAYnrUQtOLxeDKb2kQNUI7ot/OX119jAeBBU/eLG/xe2y9jc8R2E+j2/vJhccH9Biigj42+dJT71O1iaxP965Mb9qmnV/tR/SkUPX57eK1fiddHDf3Iu/Yxq9zHnLtqDMChEOxMPDPOhQE6ZVFt5pcedfh3jKShhQ2rAMB9XZunGeXW1DzNbdbXtvM0qyuv5mmA2kjIAQAAaM6y+njSNwAdkRcEon/ebgqPr/cK+NVj0/p2geHxtb8pXrYJO+vcVpWT2oHd9bP7V1oXN599qT+9vNKPnue+1OIs7LZfuTpumxYwfrvexzz/Qh9zbrxGz8YAeyKxMwc21EO3xGcy9Y3z9OXvHfz13qY296wDANzx2e/6AUwPOvwrf2meJsZE6yrP0VTmaYA7kJADAADDY3GlPXvjyezw4uzkSCgAdqOQTeF12SbsXF9Q2CbqbNvKYgLQQF+7bY978Cft5fb4yt+47UtXV/pSG16hmT7l6tht2sPx26f6mHg51cfQA3Mh2JmXKv1BN0XCS7rXv6jyPE0HxLPNwroFAHATeZ5mWvV3ne1Rbk+u/M1X54KjnZunAb5EQg4AAAyPiYJ2LcaT2bGNzwDNS/1tlL2fXmmPROWD64k6f1tMsHELuGV/O0ovB7mvfTLgvvRt9XFR1uZ5uHufsn9tDPdgoKH4VB+zHa8d62Mo5HnsQCR24m3qIw6FAborfUZjnSD6yF3PVb1O7dC4AgD4wrPdtPo4R9P1yjdNuToXvD38zlww8FkScgAAYHjWQtCqmKxZVpsJKwBqJAHn3venPxcTrp3KLkEH+FSfG4uv82qz0XZPRD7Ynp74LMco+tHjarNx3nMXfL4/GVUfk/qm1XATcG7axzxN7dWVjR/Hxmp01IHP887MhQCK+az+vqOfHeOIQ2MIAOC6awelPBGRz7o+Fxzjq+1c8LnwwLBJyAEAgIGJjWF50y3teZxivohT8IQC4H6uLAzEZq/HIlLv/ar6a4LOm+rjps+18Az2MzevbPCraxw+LfD6j9LLYSUJ57b96C8pdpfVZkF2aUEW/jxd9UB/ci9/bvzI1Q63mz6OhYaOMGbcjRfGGlDMM+F5uoe/qPIp6y2JMUOsTRy5Aq2Ne2PuUrzrcege99n32Si9jPI/Xv16Kw6y2u/ieLHueeb8rLnwrqjtXjUVhcH0I9uDUszT3N12nua5eRpAQg4AAAxTbA4zsdKumIg5NwEDcHuqMuzMk9yubix3IvvwjCrJb0Prcx/m/jYScVQeu7u4X8Vpic9yH7qsNsk5a6FhQP3JNgFH1Yz6RTyjcs5Tmz7oyOfdmHE33joACMoSn9k8RmrjWSsOWjn0DNK6h+6JtcZyqGOrbULNKLf96mOSTanPVpcN9UeHPnNw437lahKOeZp6maeBgZOQAwAAw7SubGjehWWc1OREL4Cvk4TTOVc3lltMgH72u6Nqc6KoBdlm+tA4BTuS9E+rTXJO9KHvhIYe9iWScNr3qU0fR+YeaNmBEOzEXAigSLF5/LcGv38cCDB3oAoU8wwVm+Sn1SbZJl5HVT/nw5cNxe6JdxF88XOynaN5KhqtuT5PE/2fKurQcxJyAABgmOJh32lB7YvJl1VsMncqHcDfScIp6n5m0yf0p++dVptEHM8H7Xic21GKffSfC88G9GgMN68k4XRpnBabcY+qzaYPCYA0bS4ErXvpGQzKFIky6T79stocfFKnmKM5UjkLOv/8NKo2iTfbNpR58KUxKLTWz8Q8TSQAOyxl9x5UHw+7e1tt5mkc1AQ9JCEHAACGyQP+7sSky3GulOM6AIOXT7Gb5/ZIRIq8r13d9LmsNps+10IDne9/o99dVBIgu9B/RtWchROsKXAMFxs7Do3hOiv691+ipev1upJATXP9wUg/0LrLPI4DyhWf4XlV3ybZNzEuMx8DnR0vxbPTtBruQVSnDfVPc+8u+LOf2a61HVbme7sqnptfVQ5qgl6SkAMAAMO0Su25MOxMTLasJOUAQ5YrMsyrzWZk+mEvjy+e583lkZizFBboXP8bfe+isjDbJVEx57ftKYn6TjrehzhltUxXEwCN0ajboRC0H3NzilC2+Ayn+3L0n6/u+a0iQW8uuR86+ex0kJ+bPDs1UB0nP5tKCkdfY62tRA5qgh6SkAMAAMO0FoKdi0ni85iQd0ItMBRO6BqU2Fz+OF3zo/QaTdUc2H0fHP3vQv/b+WeEV+laxXVa2DBPB/sQ1XD6M0bTz1CnAyFoVZwwfywMUL64D+cx1uM7fosX1SahX4IedOe5yQEGf/c+tSbGLnOhZcB9zbZqcTzbm+st2/agpg9VUM3TQLkk5AAAwADFhtj0UB8ToCaDdysmyLaVciTlAL2V+rlRtVkYsBA5PHG9t1VzXlebxJyVsECrffA098GPRaOo54RtYs6hTbfssP+IDR6xmWxe2eDR537Ghg/u00/s6x9aNxcC6JUYa/1+y/8mTlKfO/gEOvXcNK8cQvU5xw0lDhoTMdT+5jA3a239Yp4GCveNEAAAwGBJAOmGmCz7PZ+EB9ArsQk8tWX68o9qU37dAsGwxXsgTvo6d9+DVvrgUWqRyPFbJRmnVLEQ+2u6jqucWAVt9h+LalNd93llU1nf+5nY8LE2PuOOVMdp1wsb8KFf8kFdr2/4f4+T039M/81UXwCdeW5a5uemXzw3fdaygdg7+Iuh9jf/rDbzNN7//WWeBgolIQcAAIZrJQSdEhMrR8IA9EFOxIn7TGwCfyoiXPOosqAATffDi2qTgP9ENHohEqoioXGZq85BU33H6EoytQ0ew3J1w4cEC27D+6U9Ue3c3CH002H+jH/Ji9T2Vc+Ezj03OYTqyy4bqpY+F1oG2t8wHNt5mnMHNUEZvhUCAAAYLBVyuudZnlA5cMIdUKLchy0qlRi4me2CQrxnYmPZMt3/3gkL3LsfXlZOZe2rWHg/iET+1F8uhIMa+45RHsPZ3MG2Mtdpej3Mp/bDl/qORyLRmkPPS9BP8dnOh3U9/8T/7J4MnptKdtzAdXhYOYAG/Q3DEc/cv+V5mrk9JNBdKuQAAMBwWcDppphUOVcxACjJtYo4knG4rdj4+UtqKubA3fvhh3kD12+VZJy+i5N3n+fTEfeFgxr6jkXlpFX+Lsb0v+fKXA+Fg89QHac9cbr8Uhigv3LC/eWVfxUVc35K/34qGQd2/tykQsXdNVHdby6s6G8YoJin+SPWAMzTQDdJyAEAgIHKp2e8F4lOik12UTHg2IQK0GUScWjo/icxB27ZF1ebZPtnojEokcj/e07Egtv2G9tEnJgXeC4ifEFsAIqx2aFQ8AkSctrj+QiGYZFfX6Y2kogHnXh2is/leWVj/F28baiSg3ERfexrHupvuKFYA4h5Gs/j0DEScgAAYNhWQtBpUXLdxhegc/IpXXEPkYhDE6K6xzYxZyoc8MX+eFGpijN0z1TL4Zb9xrzabPCIRJwHIsINxPvklxj/62u40pc89CzYmtOLs5OVMED/5QSc79LrYWrvRAR2OtaJg6jWnpvu5aiB6xLPI4+Elp71N7EPQH/DbcT75Nc8TzMSDugGCTkAADBsKyHoPBtfgM7Ip3Qt05d/VDZf0bxIMPjNPRA+2R9HYuR2Qz1sq+UshIIv9BvbyoavKkl83M1jfQ1XOI23PT5zMCANVZMAbv7cFPPfx5XDT+pw3MD3nAsrPepvtol/v1QScbibmKc5d7grdIOEHAAAGLaVEBRju/HlKJ9CCtCqK6d0PRUNdnQPXLoHwof+ODbARjKOE0G57nlOYtRXcrXP2CZUq2xInX2NylxMhaAVquMAQHvPTjHfsk7tiWjc2+uGKn3NhZYe9DUjiX/U6OrhriPhgN2RkAMAAAN2cXYSG/nei0RRnqW2diIt0BandNEhT/M90GlfDLlPPkovv+qP+YLHua+0UR4J1TQpkkJXxmWDpkJOOxZCAACNPzc9NN9Su+MGrtOB60MP+psY38f+DIl/1G1bLcezOuyIhBwAAOBYCIoTE85xIm1stJsLB9CEvBDplC66eA/8xansDLRPXlWb5Gy4SV/5u2eFQfcZo9xnSKimjXHZscpcg+tj9vUtrVAdBwDaGdfE/dZ8S30u0ximibXnudBScl8Taxrpy+eepWhQvLd+jUrZ5mmgfRJyAACAlRAUKzbIv5KYA9TtymnqTumiq+JU9thsfmRhgQH0ybE5JBZsH4sGtxTPCkthGFyfsUgvf+gzaFE8M0iWHhYn7rZjIQQA0Oiz07zarJE+Eo1aNVEd52FlrYIy+5ltBa7f9TW0KCplr8zTQLsk5AAAACrklE9iDlALp6lToDi9MjaAToWCnvbL8d5eVSqVcXdP494ueXEQ/cXV01ahbXGfUplrOIy9m6c6DgA0+/wUG+RfVebAm3DUwPf0nEGJ/Uw8N8U8jQpc7EIkgK3M00B7JOQAAMDAXZydvEsvpyLRC39JzLHpDrgNp6lT+P3vN9Vy6GG/PI/3dmVzCPcX9/ZYgB0JRW/7i6hu6LRVukBlrv73Nw89M7bC5wgAGhrLpBYHFdog34y3F2cn6wa+71xoKayvWVSbeV2HLLFLsa7wKiehAg2TkAMAAARVcvrlQ2JOapGYs7A5GfiSK1VxnKZO6VTLoU998zyP56Auj3IfuS8UvRzH/SIadEhU5jo3F9FbxtrNu7w4O1kKAwDU/vwU49N4fnoiGo05auC6jSqHT1BOP6N6MV30LJJRzdNAsyTkAAAAQUJOP8WpJzHh9884odbmO+C6fJp6LA444Zi+2FbLWQgFBffNy0oyDs09H6w8F/SmrzgwjqPDJAH211QIGudZBgDqf36KcemqktjRtCbWmw+FlUL6mbl+hg6LZFQV1KFBEnIAAIAqlw9/KxK99jS13+P05DwhCAxYnIIUpyFVm9PUH4gIPfQ8n8w+EgoK65+XedwGTZGU04++Ik4d/tU4jo7b09/00lQIGvW+cnASANT9/CQZpx2vL85O3jXwfQ+Elo73Mdv1tjhgyTwNXebwFGiQhBwAAGBrKQSDEKcnvxpPZu9iE5eNyjA86XM/TS/ranMaEvTZdnHBoi2l9M8xHpeMQxsk5ZTbT4wi4TR9+Uw0KKi/+d3BIL3pgx5WNrI2bdnQRlYAGOr4ZZuMY5N8844buH4xr7sntBTQx1hvoxTmhaEhEnIAAICtpRAMSky2xCauP1TNgeFIn/VFevmtsgDJsO53v+ZKAtDl/jnG4pJxaLt/tPhaVj8RG5EiGcdmeEr0yrxDL0yFoHGeWwCgvmcoyTjtubw4O2miyp+DluhyHzOvVN+iTA5PgQZIyAEAAD7Ipy++EYlBul41x6Y86Jk4yTiS79KXz0WDgXoWFQVUhqOjffSykozDbkjKKaefWKSXXysbySibpJzyuV806/Ti7GQtDABQyzOUZJx2NVEdJ6ozmi+jq31MJNK/0sdQOPM0UCMJOQAAwFVLIRi0bdWc3/Om5cM84Q0ULH2Op+llXW2S72DI4qS68/yZgK700YeVzQXs/hlAUk53+4hIqo6NTZKq6QubPcpmHN2spRAAQD3PUdUmQcRG+fY0UeVPdRw62b/kw++eiQY9YZ4GaiIhBwAA+FMuJ34pElSbTcu/pPbP2ABmIgbKlDd6/1ZZfISt+Cz85r5GR/roeR5vQRf6xqVk/M71EaNqc6LzE9GgZ2z2KJdDHprz/uLsZCkMAHDv56iH+TlqTzRa87ahKn+HQkvH+pc4zObccxE9ZJ4GaiAhBwAAuG4pBFwTG8BiIuZdarFRz6lUUID4vFY2esPnvMqfEdhVHx3jqVciQYdEQv5KUk5n+ojtJo9HokFfx2KpzYWhqH5pKgqN8mwCAPU49hzVutqr4+QDKlxHuvY8tKok+9FfMU9jDwjcg4QcAADguqUQ8BlxcvbT1H4dT2br1I7yRjGgQ2IjbWrn+fMKfN7T9Fmx+Zxd9NP7xtx0VGx2ORKGnfcR82qzyUOFQ3o/FhOCopj/aZb7LwDc/1lqWalcsQvHDXxP1XHoUt8yTy+/VeZp6D+JkHAPEnIAAIC/yGXFX4sEXxEnAD1L7XfJOdAdTlOHW4tF+lU+dRHa6KcjAWxVWcCluyJZcSEMO+sj5tXmREp9BNA1UyFozNs8HwsA3O9ZSsJ3+96kccy7Br6vKg10pW9ZVKqcA3ADEnIAAIBPcSojtyE5Bzogfe5ikWqVP5PAzUUC27l7Fy3005JxKMXzPK6g3T5iUdnkAXSXsXJzlkIAAPd6ltr3LNWfcUyej7DGQRf6lnh/PxcJAG5CQg4AAPA3F2cnUV3hVCS4g6vJObG5+VDVAWhePgHw18omb7ir+OxEpZypUNCgSHpXwYxSLCUqtjqWW1Y2eQDd7aMiqdimyOYcCwEA3Guc4l66G+8vzk6aiL0DQuhC37KsVN0C4BYk5AAAAJ+zEALuKTac/pLaH5JzoDlOU4faRFLObznBDZpgEZfS+sRl3txEs2O5pf4B6DgJms15c3F2shYGALizeJ6SOLy72Nf9fPzQ8zG7FO/B1I69DwG4LQk5AADAJ12cnawqVXKoz/XknIUTt+H+nKYOjXglKQfgzzH8kTA0PpazyQPouqkQNMaJ/gBw9+epw/TyRCR2ZtnA91Qdh132KZEQttKvAHAXEnIAAIAvWQgBDYiNfZFA8Pt4MlundiQ5B27PBk5olKQcgI2nqT+0IcZYDhg2czbNkZADAHd7nhpV1jB36e3F2cl5A9/3UGjZUZ+yTcZ5JBoA3IWEHAAA4LNUyaEFe6k9qyTnwI3FwkBqsWnHBk5olqQcgI1l3uxEfeO5pbEcUBDzNM2IjazvhAEA7vacmtoDYdhp/Ot+Th5VkiHYAck4ANRBQg4AAPA1CyGgJZJz4CuuLAw8EQ1ohaQcgM0mp6Uw1Daei1hKxgFKsicEjXBvBYC7PVNFFZXHItG7cYzqOOyiP5GMA0AtJOQAAABflKvkvBYJWiY5B66xMAA7IykHoKoe501P3G88t6wk4wBl9VtTUWjMsRAAwK3HJqPKQYK79qahKn8HQssOLCtrbgDUQEIOAABwE4vU3gsDOyI5h8GTjAM7JykHID0X5s1P3G08t6wk4wDlMf/SjMuLs5O1MADArcVz1QNh2Pk1qPt5OZJxVGWkVXme5olIAFAHCTkAAMBX5QXiI5GgAyTnMDiScaAzJOUAQ/fAc+Gdx3OLSjIOUKaREDRCdRwAuP1zVSRtPBaJnXp/cXbSxDhGdRza7k+WlXkaAGokIQcAALiRi7OTRXq5FAk65HpyzjIvyEBvSMaBzpGUAwzdE2PuW4/n4r7xXCSAQjkEpRkrIQCAWz1XxTy5AyJ2b9nQtZUYQZv9ycJ7DoC6ScgBAABuYy4EdFQk58Tk6a/jyeyd5Bx6JBYZJeNAt7xSnQ0Y+vgkb5jhK/IzySuRAApm3NuAhk6WB4A+O6w260Ds1rKB72ktj9Y4NAWApkjIAQAAbuzi7GSVXt6IBB33oPqYnBOVc45snKZEkVhWOaULumrl3gIMWGyCOhSGr47l4j6xFAmgcA+EoHanQgAAt3q2GnkG7YS3F2cn5w18X9eWtvqSaeXQFAAaIiEHAAC4rXlq74WBQsRmwWep/S45h5JIxoHOi42Jq7whAGCInusDvziWiwpCq8pGdqDsvmwqCo1YCQEA3MrCs1UnLBsYb47SyyOhpYVnm1gbVqUSgMZIyAEAAG7l4uzkXbVJyoHSXE/OWdhESBfFe7OSjAMliI0Ax3nTNcAQLYTgk2M5yThAX4yEoBErIQCAGz9fxXjEXHk3LBv4nqrj0EY/EvM0kYxjngaAxkjIAQAAbu3i7CQmrV6LBAWL5Jznqf0xnszOUzu0oZouSO/DeX5vAmWIExydrAcM1VPVEz7pqHLCL9APIyGo38XZyUoUAODGFkLQCW/ygY11OxBaWhDz93vCAECTJOQAAAB3FacWXQoDPRCb5X5J7Z/jyew4J0RA6/KG1lciAcV5nD6/S2EABmohBH8Zz0U8nN4M9MW+ENTuVAgA4MZGnq86Y9nA8/O0kiRBw/K8/WORAKBpEnIAAIA7ySchObmIvnmS2qvxZPYuJmlTs/mEVuT3miobUK6nEjqBgXqsSs6f47mIg0qHQJ+oJFy/lRAAwI0thKAT3l+cnTSxdjEXWpqU5+sl9QHQCgk5AADAnV2cnZynl59Fgh56UG0maX8fT2br1A5TGwkLTUjvrdjkdJzfd0C5XknkBAZqYTz34VlBcjXQN8a29VsJAQDcmOop3bBs4Bk61kQc+khj8jz9kUgA0BYJOQAAwL1cnJ3EZNYbkaDHYtHnl9T+GE9mx6lZJKBuq8riIvTm85wXlAGGRJUcydVAP+nX6ncuBABAYZYNfM8DY02akufnl95jALRJQg4AAFCHeWpvhYEBeJLar+PJ7F1qR6rmcF/pPbRML49EAnojFvlWwgAM0GLA47kj4zmgh32b6jj1u7w4O3knDABAYeOXJhKK50JLg5aVeRoAWiYhBwAAuLe8mDxP7b1oMBCx4fpZpWoO95DeN9FvPhUJ6J1HeXM2wJAMskpOfg545vIDPaTqY/1UxwEASlP7HGc+6O6x0NKEvO72RCQAaNu3QgAAANQhTkjKm5F+Ew0GJiZ2n6T3/2W1OXXpyImnfE0+bfiVSEBvPUuf81W6HxwLBTAgh9WAqoSlfv5hHv8D9JEKOfWTkMO2sp7PF3TIxdnJVBTgs5qY25wLKw2Ns2KM5aAsAHZCQg4AAFCbi7OT1Xgy+6myyZxh2kvtebT0OXidXpfxmRAWrsubN703oP+WsQiY7gVroQAGIpLURwPq92Jj0gOXHegpFXLqZx6AEBtFVQUAoARvGnq+nwstDVlW5mkA2JFvhAAAAKjTxdnJMr28FAkG7mlqv0V1hFweHa6yeROGIT7nS2EABuZwCH9kGuPH32kzLdBnIyGo3VoIAICC1F4dJz1LT6vN4XZQ93trkV4eiQQAuyIhBwAAqN3F2UlsTnotEvBhk96r8WS2jsngXBmFAcuLAjZvwoDuA/lzDzAU876PeaMKUHrRtwN9NxKCeqmcCQAU5H0+gLFuc6GlblGlPr08FwkAdklCDgAA0IiLs5N5JSkHtuLEr5gMjsSco7yJj4HJp79ZFIDheZ4XBQGGIKqDHfT8b1xWqh0CcDunQgAAFKSJ6jhxeMeB0NKApRAAsGsScgAAgCZFpZy3wgB/io17z1L7YzyZLSXmDEdebFqKBAzWUpU0YGDPgX0d08XfptohMAT6unqthQAAKMhRA98zknEcbkGtcnX6RyIBwK5JyAEAABpzcXbyLr1MK0k58ClPq4+JOSon9N+y2lRKAoYpFgUXwgAMpc/r4/g2J9PrywG4i7UQAACFuLw4Ozlv4PvOhZY65bmn5yIBQBdIyAEAABolKQe+KhJzfh9PZqvUpsLRP+m6ztPLE5GAwXumnwcGpI9VcpaV03wBuJuVEAAAhai9Ok4+4EIFRuq2FAIAukJCDgAA0DhJOXAjsRjxm8ScfskLTUciAWRLIQAG4qBnY7qDyuYhYDjPsVNRAAAYrOMGvudcWKn5mSUOgnkkEgB0hYQcAACgFZGUk1qUjn4tGvBF28ScZU7moGzLyknqwEd7qW9fCAMwAA9ylcDipb/jYSXBGoB7uDg7WYkCAFCAN2ncsm7g+86FlrrkeZqFSADQJRJyAACAVl2cncwrSTlwE09T+0NiTrnyCV1OUgeue576h31hAAagL1VyYky353ICAADQc7VXx8nVFz1TU6c4NMVBeAB0yrdCAAAAtC2ScsaT2bv05TPRgK+KxJyn6TPzIr0eRbUpIem+nES1EAngM2LRcCoMFOo0v56ndnVcss4txEmV1xPPRrkFCavD8CROLS15/JrHdM9dSmBgJI83M3YCAOiy9+n5fdnA950LLXXJCV5PRQKArpGQAwAA7MTF2cnheDKLTXyvRANuJDYCxucmknIWwtF5y8oJXcDnPU79+byhRW6oy9tqk3TzZ7tlYsVXT1XNi+ijarPxN5pEnf45yOOiksd0AEPzUAgAAAanieo4Ma48EFpqdCQEAHSRhBwAAGBnYhPqeDJbV5tJXhvX4evic/I8NnGn18P0GToWku7J18eG4mGIzeqxOX1dfawKcfXrm5pe+To2pD/M7ZEQ99pR6i+OVT6jQy5TW+Wx+aqN92b6GatP3Ef3c78Y7YnLUrxiE3JywpgxHQD3dS4EAEABmkh0iDkB67/UIq+9WTMBoJMk5AAAADsVm/DyRqdlZRINbmovtV/TZ+c0vUaFhbWQdEM+8c0JXf2zrRIRn7VVvNb8uVt94T01qj5Wj9i+2hzcD7EYvUjtUCjYofd5HL5M/VonNovm3yPaUb6vxrNCbOB46nIV6Ulcx0KTD5cuHwA1kIAPAHTdZUPzQnOhpQ55jnAhEgB0lYQcAABg52KS90pSjlOw4eZiU/4f6fPzIr0eqbLQCZGM48S3ssXm9FVu55+q3tDyPXJdfUwE+lOuILGtIhGvklrL9CxdyyOJlezAaR47dLraXh7bxO94nD4rkbwWiTmH+rziTPN1LEY+dXXPpQMGaiQEAACDUvshY/mgKQdLUZeYDzRPA0BnScgBAAA6IW+2OxhPZov0+lxE4FbiMzOPjapd31jbZzmx0On9ZYoKOB82fHelQsQN7pvbChLL/P4bVZsNz9Fiw7rEsHIs83WDNrxObVFiElh+XojPyzLfc2MhXjJ/GQ6qwhJyKqeu8lfv87grrK78+/h3NzkUIU7y3f/E1zan0VUjIajVSggAgI5r4pl9LqzUIVfHUWWeqz43T3PTZy/zNEDtJOQAAACdcnF2shhPZqtqM/lrMzHcXJwM9Wv6/LxJr4eqLezEkRAUJZJwltUmCaf4z0v+G5bVxwSd2Pw8rTYLn+6n3fY4kgt2XY2J3is2EeczfV58XlY5GTHuvxJzuu2gpF82HxLh1NVhuqw+Vib8kGxT4/35+DPvt+3Gj6tNFTAAAKAtbxqaL5oLLTWJZBxrHMMU8zTnV9q6xkP1zNMAtZKQAwAAdE5seMmb62IixEkkcDuxIXUaGwnTZ0mCSEtSvOeVCdkSxOT9Mlrfk9Zytaxohzk5J5oKTt0V78uRMNCA02qTqHvexz8u9+UHuWLOkXtxZz1I12i/hPehU1cHJxK0V7md72J8mKt/bX+Hq+/F6Ne2zbwIAADQlNqr4+TnGQddUMd7aVSZpxmSmMteVZvkm1WeM2mVeRrgriTkAAAAnZQnO6b5dOLnIgK3EidF/ZI34c9Vy2lW3rgp+anbonLUMiepDPGe+iE5J71XY+FqXm0WsCyIdsteJPala7UUCmryvtok4gziPZUrWOznfm5ROTWzi2JcWkJimFNX+983bpOWd7Kx45b92urKM8c2wXpqHAfFWQsBANDxZ6S6zYWWmiwq8zR9dpn7oFVV0DxNXheeVpt5mgPvUSBIyAEAADrt4uxkMZ7MYiJmWTnxGm4rTug5Vy2ncTZudtfr1BaS0v68p8ZiRvQFR7mq07xykleXLPJ4B+4rkhDnXV7AbLCfO7ry7KB/65Zp139B1XF6a7u5Y1lytbAr1Q/jvbqfx3FzzyFQxOfX8ygA0FXHDc0fHQgt95Wr4zwVid4pfp4m95tX52m2iTmSc2DAJOQAAACdF5MxuQzwIrVnIgK3sq2WE5+hQW7ObVJeEFDFq1viVL8PSSfe71+8ty7Ty/LK/dXG9d1TJYc6+r/BJ+HmTa8qbXZPCfcZSdb96g+3mztWPeznzvP79XBbFTW1Jy47AABwS8u6v2E+CMqzNXVwaEp/bOdpjko+LOVzrh2iEn1gNGtuMDDfCAEAAFCC2FSdWky8/VBtTk4Bbic2aK3zhi3qsxCCTnmZ2iiqq0nGufH9dZXa1P21O31KrtAAtxWf36mKeH/p3xa5b3svGt2Qk0C7zEaPfvSFP+Xx4LyPyTif6OviROt4xvsuj4X1edRhXwgAAPr//NTQM5M1KO4tz5HPRaJ4b1P7KfU1D/M8zXnf/+A4cC2vucU8zevKPA0MhoQcAACgKHlyODYGvBANuLU4lezX8WRms24NUhyjL3oqEp3wJrXvInFTIs7d76+pjdKXP1cWCHZpr7IhnNuLhc39ISxo3vHZYVpJOOyKaYfHdfPKCb4lO03thxjL5I0PgxsPRnWwfIhJjOdeGM9Rw9wBAAD9tmzg2TqeR1TvpA6qGJctElFinibmrJdDDECep5lX5mlgMCTkAAAAxcnVchbpy++rzcYb4HaejSez87w4wt1JbNq92IQek/oHMbktHLXcY+N9HX3Da9HYmbkQcAuv88KmZMTP92uRqLSf7xns1rTDv9vC5SmzD6w2SdnTIVTDuWGft50vifGcDR8AAMDnLBv4nqrjcG+5Oo5Dq8q0naeZm6fZME8DwyEhBwAAKFZsrsslf3+qTF7AbT1KLZJyLJDcQYpb9D2PRWJnos9/kTehr4Sj9vvru3xy1w+VqhK7sJcrNcDXvM6fVW7Qr1WbZBBJObvVybFT7nP3XJ6ibKsjziVlf3E8t6hs+AAAAP7utKFnKUkU1CHWLVXHKcvVRJy1cPzdtXmalyIC/SMhBwAAKF4udTyqTF7AbcWE9q/jyWwhFLcmZrsTldH288Q1zd5fV9WmqoRqOfoYukcyzu37NEk5HZDGnfsd/LV8lsoaB6qOeMu+L4+bjekAAICtZUPP+w67oA4LIShGzNNIxLmFPE8TyYvf5fgBPfGtEAAAAH2QN9gdjiezZXo9qlSugNt4nhdL5vmzxBeojrNTLyTi7OT+Ok/v++Nqs1DrZLp2fKiSk5OO4TrJOPfo0/J9fK0/25mI/3mHxnX7xnVFiIp9C/fFe/V/6zymW+YxnY1y0A6JwADA9pkmxuTvrjwTr3O77rzEdZr0O8ff9a928Fw/TS+/eYv1Q7qeB55Xi+nT5vlQN+7WZ0b/P83v+SPveyifhBwAAKBX8oSvyQu4vSepreKz4xSjr1oIQeticv8g9/Hs5v56nBc3l6k9EpHW+pqlMHDNG8k49+7Ptkk5q0pSzi50rULOoUvSeVEJd+HggNr6wOj7RrlK6nMRgcbpuwBgWGIe+zy3GHuvrbfArZin6T4H59Uor73F/SJi+kxEoFzfCAEAANBHMXmR2ih9+VNq70UEbiQ22Z/nk8L5BNVxduJNavuScTpxb/2Q9JqvCc3by30ObMUJ63NhqK0/s8C/G50ZZ6Y+9mF6eeqSdLrP+z59Xg8l4zTSDy4ivpXqHdA08wcA0P/nljhE4MfU/hHrkqnFwVJxqMBKMg7c3HgyGxk/d9ppat9JxqlfzHvF/Ff68odqk9gJFEhCDgAA0GsXZyfL9DJK7UUlMQduIk6K/308mc2F4pNs3m3Xz3kB0ybM7txXY2EgqtC9Fo1WLISALMaxU/1h7c8JL0WidV2qsma8211x2qqE7Ob7wW2ytb4QAABuLg4risMA/5GfWw7zIYHmbOB+rL91V8zTTCUZNitXNd6vHIoHRZKQAwAA9F7ePLyoJObAbbySlPNX+XSuJyLRiuinf0x995FQdPbeGv3DTyLRuMe57wHJic30ZbHQrzpE+2OqaUd+FRs9uidOAf3Baaut9oPbU1h/rMyVAADA50RliG0STszRLM3TQO3mQtA52+rFC6Fox5VD8ay/QWEk5AAAAIMhMQduLZJylsLwp4UQtGJbBeJYKDp/X43+waJA82wY50U+HY9mzIWgdaNd/wI5KWjPpeiUOP1zX3+3s3FdjL3jcyFJEQAANmKeOqqEf5crQ0jCgYbkAwIfiESnRP83Vb14N/L62/fV5vAaoAAScgAAgMGRmAO38lRSzofFgIcRC2+HxsUGwJEJ/qLuqdE/SMpp1jz3QQzTqRMIG+/HzvMzAe3Z70Lf6jJ0yot8yrTNbbvvD6fVJjkKAACGKtYMY54g5qnnqa2FBBp3IASd8lPu/8zT7FCep4l5VIenQAEk5AAAAIP1icQcJ4zAp0nKUaGiDTGhPDXBX+T9NPoHSTnNiZMBLUgOU2wAmQtDK/3YwrNAq3aakJOTHPWr3ennfpR42Kn+MOZJ4vPxWjQG7VQIAICB2ibiLMxTQzvGk9kovTwRiU6IeZrv85oPHZDnaWIu1TwNdJyEHAAAYPC2iTmpjarNhmKb8eDvhp6UIyGnWZJxyr+XLitJOfog6rZwCmur5kLQmtGOf34kGzxwGXbufR7/HQtFJ8d2c2M7AAAGJBKSv5OIAzvh0JRuiHW6/VyVhY7J8zSScqDDJOQAAABcERuKc2LOD5UTQeG6QSblpL95Xtm02STJOD26h1abUySp36PUF+0Lw7D6xvSZOhKGVvuwlfF/a/Z2/PNt9OjG+G9kk0cRYztJOQAA9Nm2aufUoSiwMw6j2r3tOp1+sMMcngLdJiEHAADgE2JDXkzApy+/q5w2AlcNMSln7rI3RjJO/+6fC/dNfRG1sBC9GwshaEcaT0539HNH6eWJK2D8x43HdvHsZ7MHFHjPAwC+6k21OShA1U7Y3Vg5DqHaE4mdivUc8zSFME8D3SUhBwAA4AviJJh82sg/Uvs5tUtRgeEk5eTFgMcueSNsxuzvvXOery/1mgvBYLzO1Vpov/+KuKuS046HO/q5quMY/3H7vjGe/Wz2AACgT35O49wDzyawc3Mh2KmYh57rC8tinga6SUIOAADADcREVGpHqY3SP/5YbU7OgiEbSlKOCgXNeF/ZjNl303ydqc+D1O/aSD4MCyEQ/wHY39HPnQv9zkjGKZjNHgAA9ETMV/4Q631CAZ1gvnt3XufD1SiQeRroHgk5AAAAtxTl6+PkrPTld6m9qFTNYbgiKafvCSsWA+onGWcY98p3Pj+NmAtB78VC6FoYdtp/rSpVctrQeoWcNG4dpZdHQr8TknH60T8uK5s9hsJntfB7HgDwSdt56ZVQwO6NJ7M4rGVPJHZCMk4P5HmaFyIB3SAhBwAA4I5is2RqC1VzGLhfxpPZvI9/WP67HrjEtZunfvNcGAZxn1xVFgPq9iT1TTb09dtCCDphKQSN20WFHImiuyEZp1/ju6Xx3SB4Xiv/ngfAzThsbVjPJfvmpaFT5kKwE28k4/RH7FVJL69FAnZPQg4AAEANrlTN+UdqP1ebyX0Yilf5JKu+mbu0tfs5+kthGNT9ceGeWDsbyvtLdZzu9F3Lysaspu0iuVD/2T7JOP0d39nsAQD0gWfwYT2XuN7QLeZpdtMfzoWhX3KClYNjYcck5AAAANQoNhqldpRaJCd8n9rL1N6LDAOw6lNSTvpbRunlsctaqzh160gYBunAvbD2eNJPCyHoFAmkzXrU8tjuobFd6+LefyAZp5/yZg9J13AzIyEAgJ0+l8w9l0C35DW4PZFolUNT+m1emaeBnZKQAwAA0JCLs5Pz1A5Ti81fP1ZOkKXfHqS2zJsd+8CG93o5dWvY98N1epGMVZ8nPepr+eiNk1o7R7/VL8Z27XMC9QCucaWaGNzESAgAYCfe5+eSc6GAzjFP035/KDmxx/K1dTge7JCEHAAAgBZcnJ0c5xNk/5HaT5WywfRTnHS+7MnfMnc5642nif7B3wcXldO56mTBsn+WQtC5fmut32rWeDKbtvjjpiLeqp9sehtEP/nOmKS3VkIAAPTA3HMJdJZnyZbjrT/svzyf7bMFOyIhBwAAoEWxYSW1ZWoxGbJNzjkVGXokKjcsSv4D0u8/qjbJRdTjZxP9ZIdCUBuLKv1yGcnbwtBJSyHQb3JrL+OZVxiGIY/zfxYJ+KLHQgAArXthrgW6KVd/N0Zutz9cCcMw5Gv9QiSgfRJyAAAAduRKcs40/eN31WYTi1O46YPnLZ94XjdJA/U5TX3ckTCQ73ur9PJaJGrxRAh6ZSkEnWXzTrMetvFD0rh0P708EO5WvE33e2Pp4Y3xYryvCjAAUCIVvfvpNFfrBrppKgSteaM/HJ58zR0ICy2TkAMAANABUUI4NrGkFpvFJOfQB8f5lKsSTV2+WrxPbS4MXLPI7w3uKfWxqj30x1IIujtGTy+XItGY/ZZ+jv6yvbGfWA/XXH/ZKyqc1j92n4oCgHsenkuAD3xG2+sP58IwWPPKWhy0SkIOAABAx3wiOeenymmzlCdOIS/uVPnxZDZKL49cvlos8kZm+Ms9Lr2omlQPC5f98FZf2Xmq5JRvKgStmOvPBj3Gi9Pl5yLRq+tJvR4KAQC09lxiLAPdNhWCVhzoDwf9XL+uzNNAqyTkAAAAdFhOzlmmFptu/1FJzqEsj8eT2WFhv7MN7vU4jcRCYeAz4r3hZK77mwpBLyyFoPNWQlD+mFQIGvcmjf0krw1ceg9Ef/lSJOCT9oUAABp36rkEui0fircnEo17mZ/RGbB8T7SvBFoiIQcAAKAQcYrNteScH1N7XdnUTLct8gR7KeYuWS0OhYAv3c8qVXLqsJf6Vxv7ymejSPethKAxjfdhqZ+cCnPj3htDc/X5L7VLYeiFUyGo1UgIADpJ5YB+8VwC3TcVgsZd5mdzCLFeay8JtEBCDgAAQIFycs5xavPUHlab5Jw4idbGF7rmQVXIZuPxZBafpUcu2b3FyVvnwsBXqJJTj6kQFO1tVEMUhu6Pu+NaiUQjHuone2GePyew7TMl58PfjYQAoJPMYfbHC3MsUISpEDTOPA1/yvfGhUhA8yTkAAAA9EBOzjlMbZT+8ftqk5xj4yBd8Wg8mZWwKevApbq3SLBYCAM3uG+pklOPqRAUbSUErhX6ycKdxrOoMHBtnBfvCdVVyrcWglqpbAkAzYk5afOMUIapEDTqdXomXwkDV6X3RNwj7RuBhknIAQAA6JmoTJGTc2Kx/7vUfk7tjciwY4vxZDbq+O8oIaeG6+zkLW5hKQT39kQIimYTezmcmlyux0LQqLkQ4L3RW2shqNWDXJUXAKjfkTlp6L68RrgnEo2J5EQVa/kc7w1omIQcAACAHosyxHHqSWqRaPCP1H5K7XW1mZSDNj2our/5fuoy3ctlPmUJbnyPyvck7mE8mem7yv0MrEShGK5VMxrdmKx/bNyLfC+Hz43zXopE0WxqrZ8qOQCey6mf6jhgPMyGA/P42pjHAa7QIAk5AAAAAxGTcKktU5unFpvffqw2G2QuRYeWPB5PZp2sQpN+r1gIeOAS3ctCCLiDpRDc21QIinQqBEWNo9ei0IhHDX9/Gz2aY9MbN30+cBhIuVSHM24HgBKojgPGwzgwj5tRJQcaJCEHAABgoC7OTo5TO0xtlP7x+9RepPZWZGjY0Xgye9jB3+vApbmXmOxfCgN3uBet3HvubSoERVoJQXEkUekf+ejQpjduMM6L94gNQfDRSAgAOkXicD+uofEmlMPBKc2ZCwFfkw+dei0S0AwJOQAAAMQEzHlqUco6JkO/S+2nStlimrFXdfMEnqlLcy8LIeAelkJwLxYyy7QSguKshUD/yAcSsbmN2CBps2uBcuI87ksAfaYaXPmWDgqAojwWgkacen7jFhZCAM2QkAMAAMBfxOkoscEqtagY8o/Ufqw2p6XYRENdDjtYJcdCwN3ZlMl9ef/cz4PUp9rcV954ayUKxVkLQTnyWHNPJBqxEAJucb9TJQc+eiQEAFAr40wohPnrRi2EgJtSJQea860QAAAA8Dl588xxbjFhGkk609Ti1QY37upBtVksm3fhl0nv66lLci/HYkgN3lY2qN1HfAad7FrW+53y+IyVxUaPZkjE5i7i2e8wPwdSltPK4RW1imdnidkAnvGoZ5ySNxUDZTBP01xf6PmC21qk9lQYoF4ScgAAALixi7OTbXLOYT7NaF5JzuFunqb30KIji2ZTl+NenuUG7I4FzbLY9FOmd0JQFOO7ZiyEgNuKgz7Ss18k5TwXDfc+PtyfVsIA4D7HvS2FAIpi/roZCyHgtmJtfjyZRZUcSTlQo2+EAAAAgLu4ODs5T+0wtVH6x+9S+7ly4ju3s+jI72EhACidfqwsEnLKHPuuREG/OHDvVcfhHrx3jFlwfwLomrUQFO1YCMA4eOAuzVdyD0dCAPWSkAMAAMC9xUkqqR2lFhOqknO4qaiSM+rA7zF1KYDCPRKCotjcCs0bCUHtLNRzZ7ky6muRKM5aCGo3FQIA9znu7XVUYRQGKIqEnPothIC7ioNX08upSEB9JOQAAABQK8k53NJilz88JwQ9cBmA0qX+bCoKxZCQU65LISiGRMX6ScjhvpZCUJy1ENTuQRq324wI4D7H/aiOAwWxDteI9/pCarAUAqiPhBwAAAAaIzmHG9h1lRwbYYC+0J+VMz5yimu51kLQfTY6N8IJ1NRx/1tVEhtLI4m4GVMhAOjE2MTzXblWQgBFGQlB7ZbmaahhLLSsNsldQA0k5AAAANCKa8k536f2srIZh43FDn/2VPiBnhgJQRFOhQD0hwVaCgE1UWmpIHmDl8059ZsKAcDOWZco1xub0MH4F8/W1GYpBFAPCTkAAAC07uLs5Dy1w9RG6R9/SO11ZZPHkB2MJ7OHO/rZTlAH+kJ/VgabRsq2FgL94QBd5somUIdjISiOKjn1mwoBgGc77syzCZTnoRDU6q0qb9RoKQRQDwk5AAAA7FRs7kptnlpMyP5UOTl+iB6kdrijn23DJtAXj4WgCDa1lm0tBEUwvquXBArqfP6PfvSNSBi7DNyD8WTmXgXg/obnExgKY996LYWAusQhqpXKgVALCTkAAAB0xsXZyTK1afryu9ReVCaAhmTe9g8cT2ajapMMBNALuV8DGDonr9ZrKQTUzCbKsqyFoBFTIQDYKdVry3SpKgQUSUJOvZZCQM3M00ANJOQAAADQObGoktoitVH6xx8rJ+gOwd54Mjto+WeOhB3oGf1a962EABqnYlh9LvNJmVAnGz3Kog9oxoEQAHg2x3WDgXAwXn3eXJydSCqlbkshgPuTkAMAAECnXZydHKcWGxWias7L1N6LSm/NW/55UyEHesZpgwDUSeIETTzjx+ahU5EohoScZjweT2YqugHsjs3MZVoJAZQljXnNV+sH6bh8GM+lSMD9fCsE/fO/vP0Pe//b//EfBYJijf6rb6v//rt/EQiK9W/+y//83/2nb/7V/ykSAFCvqJqTXg7Hk9mi2pwkGq97ItMrT9L1HeVr3crjh5ADPWNTX/ethQCak8aSU1Go1VIIaEgke6lmVYBIoEp9a2zMMf9SvwP9LMDO7m8STsvkukF5zFfX/ywNTb23ngkD3J2EnB769//+P/3r//V//38EgmL9D//231T/9r/71wJBsf7rf/nmfzr4b/6L/1kkAKAZ+TTdZbTxZBabFw4rG3n6JK7pUUs/ayTcQM9MhaDz45i1KBTNKcoMyXsbFWnQSgiKEn2BhJxmxu5LYQBo3Vsh8HwCtEaFnBrvX+aWadCqkpAD9/KNEAAAAFCqi7OT49Sm6csfUjsVkV44bPFnSeQC+saJg9Asm3+6byoEtXHqKk0+y0d/eikS7n8DdyAEADuxFgLjEaA15qvrsxICmhJ7LkQB7kdCDgAAAMW7ODtZSczpjb3xZNb4iVnpZ1gEAProkRAAUJOVEOA9hmvVqAe58jMA7ZLYYTwCtEeFHP0g5bDHAu5BQg4AAAC9ITGnN+Yt/AyLAEAvSTjsNGMTMMYryUoI8B4js3G5ORJyANzXcN2gz8xV10QFE1qwEgK4Owk5AAAA9M61xJy3IlKcNjakWAQA+spmdGDIjPHqcZmep9bCQMNsqixE6g/eRb8gEo2QkAPQPuNc1w1oj3maeljrpg0rIYC7k5ADAABAb+XEnNiY/FNq70WkGHvjyazpDeU2rAMA9I+NHvWQKEEbz+vnntP1C1QPxpOZpByA9scguG5AOx4JQS1WQkAL91rvM7gHCTkAAAD03sXZyTK9jFJ7KRrFaHpDis2aQF9NhQAYMBs96mGzG95rXLcSgsZIyAFoz6kQFEllCMCzM7jnQqdJyAEAAGAQLs5O3qV2mL78vjKZVIKmN6SokAMAAJ+2EgK817jGBrDmPB1PZg4NAWjHWghcN6AdaYw7EgXPY3ivwVB8KwQAAAAMycXZSUwk7Y8ns0jOWaT2QFQ66VFsSIlEKqEAuBWb+YBBspm5Vhbf8V7jL9Kz+Sr1swLRnDiUZCkMg/gsTUWBG4xro0/4VSSMPXDdoHAjIahtDKkfpM177lNhgNtTIQcAAIBBujg7OUov00q1nC5rskqOCjlAX+nfAP0f93EpKZ4WrYWgKKdC0Ji5EABXHAhBY2xoLpPnE8BzGBgrQadJyAEAAGCw4kSh1GLj3kvR6KRpg99bZSQAAPi7tRDQ5jO5KBTF9WrO4/FkNhIGIJsKQWNjj5UoGIMArVHJuB5rIcD7DbpPQg4AAACDd3F2cphefkztvWh0ylQIAG7NQicA92GzG21TtbYcKyFo1KEQAOPJLA6P2hOJRqgwUC4VcqBMKhnXYy0EtOXi7MT7De5IQg4AAABUHyaYjqtNAojNQN2x18QJsel7ToUW6LFHQgAM1EgIamGzG95zfM5KCBo1FwJAX9AoieeFUlURcP+CVklihjuQkAMAAABZXtiZViaaumQqBAAA3MBICGqxEgJaZnNRIS7OTiJ5yiEmzXkwnszmwgCDNxUCYw4AuMIhFgAFkJADAAAAV8QGk9Sm6cvXotEJUyEAAADoLZuLyrISgkYdCgEMV64Uruqtexh/5fA0YOgklGLMBAWQkAMAAACfcHF2Mq8k5XTBfgPf86GwAgDAJ9noQdvWQlCUlRA06tF4MpsKAwzWXAga8/7i7MSYA6Bd+0Jwf7lSKQAdJyEHAAAAPkNSTic0cSqkRQCg18aTmX4OgLs+A9noQdvWQlCUlRA0bi4E4POP+xfGitADDse7v/dCgHsvlEFCDgAAAHyBpJzdczoswK1Z7AQAoHY5ae9UJBr1dDyZjYQBhiUfrLEnEo1ZCUGx1kIADJgqxrj3QiEk5AAAAMBX5KQcG052R6UHAAC+ZioE9+aZh11YC0FxVkLQuIUQwODMhcC9CwAAKJOEHAAAALiZg9TeCsNOSMgBAADooYuzk7UoFOdYCBp3MJ7MVL2EYZkLQWPep/GGCgMAAEBjJOQAAADADfz/7N3NbhTZtijqufdeuo2rK8GWjm6X3BJ9KOkciR5ZLZq4noDkvgCmfySSJ8A8AeknKNN0i0C3417ZfUsr/QQLpNvfNwY5o8iiDNiZ8R/fJ4XCVWsVPyMjZ4z5M+a8PDv9lDYTo59Fo3UzIQAAAIDu5UXNxkaadae8DoUBpuH+oycH+XtPMwoh8PkBDNQnIaADayGA21OQAwAAADeUF51YENG+x0IAAAAAveGUnOYdOiUHJmMhBI0qhACAgXLCG61zkjHsRkEOAAAA3MLl2emqvL0XiXbdf/RkJgoAAADQC4UQNM4pOTABeczzqUh4ZwEAAMOlIAcAAABub1Fen4WhVTMhAAAAgF5wQk47nJID47cQgkZ9zqfeAwAANEZBDgAAANzS5dnpp2SX0rY9FAIAAADoXh4X+SgSjXNKDozfQggaVQjB4H0SAgAA+k5BDgAAAOzg8ux0Vd6uRKI1doQFAACA/nBKTjuckgMjVX63F+Xtnkh4V/F9TjgCAGAIFOQAAADA7hZC0Jq5EAAAAEBvWOTcjjgl50gYYJQWQtC4QggAAICmKcgBAACAHV2enRbl7UIkAAAAgCm5PDtdJ2MibXl2/9GTmTDAeJTf6Yfl7bFINOoiv6sAYKj0AQAGQkEOAAAA7Mcupe0wQQ0AAAD94pSc9qyEAEblUAgaVwgBAAM3EwLadv/Rk7kowO0pyAEAAIA9XJ6drsrbZ5EAAAAAJkZBTnseWxgF45BPvHomEt5RAADAOCjIAQAAgP2thKB5ebIaAABohnybLvp5c1EYrsuz0/PydiUSrVkJAYzCUgga97l8RxXCAAAAtEFBDgAAAOxvJQStmAkBAADfsRaCvd0TAmAHTiBosZ2+/+jJoTDAcJXf4bvJ6TjeTQBwM3eFAGAYFOQAAADAnuwICwAAnVsLAUAnjoSgVcu8oB8YJkV17VCQA8AYPBACOjAXArg9BTkAAABQj0IIGmfBCQAANOj+oycPRYGWzYVg2C7PTtfl7UIkWnMnOakZhppnxdimgpx2FEIAAAC0RUEOAAAA1KMQgsbVtTjwXCgBAOBaiuCBXayEoFVP7z96MhcGGJxl2hTV0az3l2enn4QBoHPm4mpg4xQ6MBMCuD0FOQAAAFCPQggGw4QsAABcbyYEtMzionE4EYLWrfJpG8AAlN/XyLFeiIR3EsCEmIurh5yfts2EAG5PQQ4AAADU4PLsdC0KAADAwM2EgJZZXDQCeUzko0i06l7anLYBDIPva3sU5AAwJjaxoG0zIYDbU5ADAAAA9bH4BAAAulEIQS0s9KBtj4VgNFZC0LoX9x89mQsD9Fv5PY386plItOL95dmpExkAGBObWNC2e0IAt6cgBwAAAOqzFoJG1bI48PLstBBKAAC41kwIaMv9R08sLBqXOJHgszC0buW7BL13JAStvosA6Ie1ENRiLgS0xYYPsDsFOQAAAFCftRA0ygITAABo1gMhoEVOZBqRfCKBhdDti92Ll8IA/ZQXNToNrj3eQwD9sRaCWsyEAM8b9J+CHAAAAAAAAIZuLQT1uP/oiSIJ2uJZG5+VEHTihZ2MQbtIep+LQwFgTO45EZMWzYQAdqMgBwAAAOqzFoLB+CgEAADjcXl2KhevjyIJPGvs2hYX5e1KJDpxYqEe9Ev5nVymzSlWtGMlBAC9okhS35nhmQsB7EZBDgAAMAr3Hz1ZlNeBSNCxtRAAAAADZ6EHnjX2cSQEnbiTLEaH3rj/6MmsvB2KRGs+X56dnggDQH+U7fK5KNRmLgS0xDgN7EhBDgAAMHj3Hz2Jif535bWyEyRwQ2shAAAYHacy1MPkO43L4zcPRGKUVkLQmafld0sBAPSnLbwjDK1RjAPAmBmnoXG5oFz+CjtSkAMAAAxWLN4or6L88UX+VzFAsBQZ4AbWQgAAIMfjWo+FgBZYUDRSl2enn8rbsUh05s39R098v6BD5XfwQD7VupUQAPSSjVPqMRcCPGfQbwpyAACAQcoTy+v094mtFyadgRtYCwEAAHy3zz0XBRrmGRu3lRB0qnCKOHSWQ93VBrbu6vLstBAGgF5aC0Et7lj/QAvmQgC7U5ADAAAMzv1HTxbl7Y/0/SNzV6JER+ZCMBhrIQAAGJ1CCPRt8IzRvbww+kIkOhNjpifCAJ1Ype/PW9CMIyEA6K1PQqAPjWcMpkBBDgAAMBixu1x5rcof3/3k//qg/P8dihjwA2shAACA7zoQApqSTw94LBKjZ4F0tx6X3zWfAbT7fov86alItE4BIkB/nQtBbeZCQIN57Ky83RMJ2J2CHAAAYEiDAEV5Pbvhf7LM/w3A31yena5FAQBgdCz0qM+DXDQBTZgLwSTEAunPwtCpF/mkcaBhOW9aiUTr3hvnBUA/GvZmYx7Yk4IcAACg9+4/ejJPm4VVD27xn91JJsBo30wIGlX30fYXQgoAIF/ku0zG49liZ5dnp9EmO6Gle0f3Hz15KAzQuFXazEnQftwB6K9CCGpzJ5/GB02YCwHsR0EOAADQa/cfPTksbx/SbpNZj/N/D22ZCUGj6t7x3IJNAAD5It9noQdNmQvBZKyEoHMxplo4SRyak+cgnopE664uz05PhAEAfWnYK5e9K5eF/SnIAQAAetvxL6+YTHmz5y+1NOFMizxrw1IIAQDAeOTTGKjP0zwpD7XJJ3XcE4nJtMvr8nYsEp2LopwTbTo09l57IxKdWAkBQO/7A4Uo1MrGKTRhLgSwPwU5AABA7+RJrCLVsxNHTDivRJWWWFQ0LGshAAAYnY9CUCuLPajbQggm50gIeuFBeTlJAmqUi9x8r7qzEgKAQfgsBLW5V+Yfc2GgZsb+oAYKcgAAgF65/+hJdPiLtJkkrsvj8tddii4NP7sPRWFw1kIAADA6Tsmpl0l5PFPs5fLs9DwpluyLGCNdCQPUJr5PNmjqxnE+hQ2A/jsXglothIC65ALzZyIB+/uHEAAAAD3q8MeOmS8a+uVflb/+SV4EAE1QkNO8os5frGwPirJdENXbu0p2oIS+WwsBMGHR53sqDLV5GpPzZe6s0Im95U1YLFyepmV5fRCGXngWYyFlu74QCtjrnXYo5+zUSggABiPGaR4LQ21scoHnCXpIQQ4AANC5vPPGSWp+MO4kTjGxkIiGKMgZpigusSDslsp2dCkKAEBP2YShfovyOhIGamChx3T7kLEhxkWq90RsdhdFOWt9e9hN+f2Zl7c3ItGZi3ivCAPAYJiXr9edMhdZlO/ClVBQg4UQQD3+XQgAAIAuRYFMam9nnFh0vxJ1GqIgZ5gs2NyhLc1tNwBAH62FoHaHQsC+8mYsz0Ri0hT29UucJr4QBrj1+yzGxE5EwvsEgBsrhKB28njqyGtnyelVUBsFOQAAQJed/EV5+yO1ezrF0/L3tZiIJhiwalhDOx8qyNnNQggAgJ7mjPK7+t3LO8GDPgT7tM+rtDmllv54pygHbi4Xl0Zbdkc0OnPlRACAwTFOU7/HuZgC9mHNDNRIQQ4AANCJ+4+erMrbu45++zcWE1Hz83wgCoNVCMFOPPMAQJ9dCEHtTNLjGaIOSyHoHUU5cHNFeT0Qhk6thABgWC7PTj+Vt88ioW9F7+gHQo0U5AAAAK2KXeTKK3bCedbxH+Uk72gHdZgLQeOa2kXXzly7iV3SHwoDANBTcrz6PbX7KrvKm1jcEwmcktNbinLg5++yaL8U43QrFnMfCQPAIBmnqd+BtQ7skdtG/8+pj1AjBTkAAECbHft5eVunfkxcxQBDYaCKmjgtpHnrJn7RvDOXxUC7scM1ADCp3BG7r6LvgLZkxBTlwHfkYpxnItG5VR7LBWB4FOTU746+Nvrl0B8KcgAAgFbcf/QkBoQ+pH7ttBGFQXZUY99nO04JsdNv89YN/tqF8O5EIRoA0Ffyu2Y8c0oOO/SZ5+XtsUhQcUpOrynKgb+/x+I7oRinH8zlAAyXgpxmHNp8lB3yW6cYQwMU5AAAAE136O/mHeTe9PSPGAuKlj4p9rAQglasG/y1TQTs5o6FOgBAT8nvmqP/zG3ZsRdtybC8y2O5MHl53OudSPTC8eXZ6VoYAAbLOE0znJLDLjwz0AAFOQAAQGPyySFF6v8Ocq8sKmcPTglpR5OD9YXw7kzbCQD0zuXZ6afydiESjXBKDjeWx4WeigTXtNOr5JScvrf1K2Fg4u+wRVKM0ydLIQAYdP4fc3yfRaIRTsnhNjnuPDnFGBqhIAcAAGiqMx9FCkV5PRjIH/ldXigCt3nO58mRzm351NQvbCJgL4+1nQBAT9l9tTlLIeCGjoSAH7Arb79FUc6JxX1MkWKc3nE6DsA4GKdphlNyuI2lEEAzFOQAAAC1u//oSXTkf0+bAaAhKSws55YWQtCOy7PTounvvyjvzEA/ANBHFno055m+Mz9j11Vu0M8/KW8fRaLX4oSrQlEOE3t/LZJinL5ZCgHAKBRC0JhDpxlzwzzXOA00REEOAABQZyf+buycWP74aqB/hSggUpTDTZ/3WXl7JhKtuGrh9yiEeWfPDPRTc/ta5IkBAJDf9ZeTT/iZpRDgORmFOP383HgpU6AYp5ecjgMwHoUQNOaOvhX639AtBTkAAEAt8qRs7ED8dOB/lRiwOrHzIzewEILWrFv4PQph3stSCKgpn4i2NXboepcLcyz6AmAnl2en0T/9LBKNeVy+pw+EgZ/kdPCztjr64k7J6b97abOJkXafsb+7FOP0z1IIAEbDScbNepZPqoXrct1l7tcBDVGQAwAA1NGBX6TNYvaxdOKrSWZFOXzvmY9n41AkWlM0/RtYsLk3p+RQl+XWz7GI84/y2TryTgagr3nkxHlH873+8lIkuIWFEAxCbGL0e17IBWN7d62SYpw+cjoOwIiUbfqn8nYhEo1ymjHX5brWNUALFOQAAAD7duBjYCcmq+6M7K/2ICnK4fsOR/jM91lbu2adCPVelkLAnjlFPEPXFfe+KK91+b+bMADgtgohaNQ9OSDf6RfYdZUby4utj0ViMF6VfTOnizMauRjnmUj0NqcAYFwKIWjUAwX0XCPyXesaoGEKcgAAgJ3EpGt5xSL5FyP+ayrK4dpnP9lFpm1tFeQUQr0Xp+SwT9s6+0nbGpMFbyL3KK+5iAEgv+uNF97NbOV0D9O4x4loTvQFnFo7HE/TZsz0oVAw4HdWzG9ErqgYp5+cjgMwToUQNO6VPJ2tnHee+29AwxTkAAAAu3TcYxBnnTYFK2OnKIdvxalQdpFpz+cWJ1+dkFPP9wOabFvjvfwhdrD1bgbgZ8o8Mgq7LfBunvcyfz4LQsCO7fUn/cnBqcZMF0LB0OT5jaK8HotGby2FAGCUCiHQN6e1nPeuZwHaoyAHAAC4bcc9dqz8I02rIKGaYLabjOc/ngG7JrarrdNxqgVAF0K+l6d2SGeHtvUg3X6HrmiL1zkvAYAfKYSgcfeSRZNyukdP4hl4IBLs0SePZ+hKJAYlxoff2TCBgb2v5jk/9M7qr9dOxwEYbc5vHq4dD3IfnWmLZ+CeMEA7FOQAAAA3EpOqMbla/vhmoiFQlEOwW2v7ipZ/v5WQ+57Qbn6xxzMTi7/elL/GuUIwAHqUT07Vi1xkyzRzuhgreSUS1GAhBIMUGyacGzdlAO+r2NTjQ3L6eZ/F6ZbGFgHG7UQIWvHKvMmk894Yo3shEtAeBTkAAMBNOuyztFnENPWTQWKiTlHOdL8HMWH7WCRaV7T8+5kI2N8Dp5ZwC7HIYt8duqJo9oNdmQGQ33VulccPmFZf+a7vGXW5PDuNMYCPIjFI0a/7w07c9PVdNfHNxobkKJ+eAMB46T+2x5zJRHPfZANKaJ2CHAAA4Gcd9nl5O0+bxa5sinJicnkhFJP6HszS5lhnWpYX47T5+63L25XI721pMSY3aFtjh646i33j11orCANAftdpf/nEYo/JqaPAGrYt0uaEBIbpVT7F1JgAvZA31yqSzcaG4KrM3ZfCADBuZVt/Lt9vTfTVFUBNT3zmToSElinIAQAAvivvaPhBh/1a7+z4OCkGrrpx0eHnzX7i+7ISBn6QYzS1Q1c8e2/yArC5SAMgv2tdbOZxJAyTyekWyQJnapYLKbUjw38XnNssgR68p+IZLJLNxoZiKQQAk2Gcpj2Py5xI/2o6+W/kU49FAtqnIAcAALiuo363vGIg7JVo/FDs+Oio5/F/H2KQ0qRtN4qOft+V0NfiscU3/EDThY7Rbn/I7+mZcAN47whBq57JAyfRV44TB96JBE3IJyQ43WzYtjdLeCgctPyOquY33iSbLA3Fx7LtXwkDwGQUQtCqF3lDDcadAx8k63ugMwpyAACAbzvqMUFalNdT0biR2Am2sNh3tN+HGLh6IRKd6WTh5OXZ6Xmy8KcuSwtvuKZtXab2duiK9/S5U+0Apq3M76KP+1kkWvXGYo9R53OxMUkhEjRMGzIOsVnCH9Ens6kRLb2jYjx3ncxvDM1SCAAmxcYp7Xtnvm7UOXB8tiuRgO4oyAEAALY76ou0WVDhNJDbiXjFYt+5UIzq+2DgqmN54WRXfPb1iF1InSTGdtvaxQ5d8RzGqXZr72qASbPYo31HFnuMMp+rinGcOEAbYwLHIjEa0Q88z31CaOT9lE/F+d07anCOOx4HBqD9XP9TeXsvEq0rjNOMMw9Om3FPOTB0SEEOAABQddSPyts7HfWdRdw+2IF/NN8HA1fd63ogfuUjqE0ULR4JAz0odLyX39UnTrYDmCQFOd30ky32GJ9VspEL7TlMTjgbk+iT/V6+F5w2Tq2cijNon3NbD8D0GKdpXzVOYxO98eTB1aYp90QDuqUgBwAAdNJj57jopL8QjVq8ypPKBrIG/J1IBq76oOjyN788O12XtwsfQ22e5VPYmHbb2pdCx1igc66IFmBayvwu3kMWdbdPUc64crpVstiZdtvu2DlbX3J8HpfXP2ODKGOo7PlemuW5DafiDNcyt/UATI+CnG4oyhnf98imKdADCnIAAGDC8oKYddpMglKfiOc678zHsL4TVTGOgavu9WEg3qku9XpXfsfmwjDptrVPhY4x6RRFtGvPJYAck1beu4pyhp/TrcrbM5Ggbbmg8r1IjFJsELW2WQI7vJPu5ufmn8ncxpBdlG288VeA6eb5n+T5nYl5cEU5w8+JV3Jh6A8FOQAAMN0O+qK8/ZHsHNeUiOvvdnoc1HdCMU5/XOUTarpmwWYDMbUQc5JWPW5bo0joQ/lcxrM581EBjD8XEYJO+8iKcobbX458TjEOXVokp5yN+f1QbZawEA5u8E6K5+Q8nhvRGLxDIQCYPOM03VGUM+yceJWM00CvKMgBAIDpdtDfiUQrYqfHc7vv9/47oRinX3oxAJ935zr2cdQqFtqcGOCfXM7xdAB/1Kf5fb30qQGMVz5lwYLubnNBRTnDzOcs8qAP/XMLt8ctNkt4pzCHH7yP5uVVpM28xj0RGby3ZdteCAPA5CnI6VZVlDMTikHlxatknAZ6R0EOAABMq3M+K69zHfTWVbvvryxC7+X3QjFO/6z8WUbfJtp1axrt62pgOcf2zswHPkEAuSaNvW8V5cjn4NYuz07jeXwvEpMYM1CYw/a7qCrE+VBej0VkFK7KaykMAOTCezl+t2J+/Nw4zWBy4+gXG6eBHlKQAwAA0+mcz8tbFOMoOuhODI6YTO7X9yIGF9e+F71ydXl2et6XP0zeqfHKx1K7atctRTnjbV9XabiTArEA7PdY8GNnOIBRWglB56Io5w99Y/kc7CDaDSedTcNfCnOMH0zyPTTL7yKFOONzmBdgA0BYCUHnqs1T5kLR29z4bi5SN04DPaUgBwAAptFBP0ybias7otG5+Aze5UW+dprp9nuxSJuTcXwv+qWPx9Mf+VgaoShnvO3rKo1jUiAW/Pyz/PssPacA45GLvy9Eoheib7wUht7lcnedrkyP2/BYwL0QiUn5UpiTNpsc6ZtN4z1UnYjzT++iUXpftuUnwgDAVo4f7wVF992L+fIPNk/pZX4cfaDIjxWpQ48pyAEAgJF3zssrBrHeiEbvxIBJ7Ai8svt+J9+LKLCIyXzFOP2z6umfyWRAMxTljK99je/L2BbMvCqv8/LvduBTBpBzUv97NsYt5IO9yedi45AiOUWWHssL9o5FYnLu5L7Zv/J4qo2OxvcOOsiFOE7EGa8YX10IAwDXWAlBb7zL8zz0I0eOfs86GaeB3lOQAwAA4+6cF+X1VDR6LRYtn9vhsfXvxQvR6KWrvGN5r+QdeO3c2JyqKMdimmG3r9UOXWPdvTZ2Zf49n3A384kDDN5KCHrlqXywF/ncPCnGYTjiNPArYZis6HfGRkcxprowpjrod8/d/Bmuo8+dFOKM3SKPswLAt46EoF/5ds61Z0LRaa68SJtxGhuMwgAoyAEAgHF2zg+SRRRDUu3wuFaY0+j3Ylne/vC96LU+D7gvfTyNUpQz7PZ1Sjupx+Kgf3pfAwxbXgjodIV+5oOHQtFZfzlOJLDIgyG1406wJN4dcQL22qk5wxtHyDuvr/NneE9URu99PuEMAK7L7yMn+CgSvcu1z/O6E9rPl49ynmycBgZCQQ4AAIyvc75Mm93kdM6HR2FOM9+Jeezik2NLv/V2UtZkQGttYJF3fGJAbWyaZhFwvFNMRgEM20oIepkPvinfryf6w63lcnEyQaG/zBDlE3ZfiwT5/VGdmlONq86EpZfvnEUep/0jf2bmMKbhc3kthAGAn1gJQS/z7N9z8btxmnZy5lnOl1+IBgyLghwAABhP59wiivHYLsw5MoG883dilndajF1+nYrTf+9z0UufLX1MrbR/7/LOT/S/nT1M095JPXbwjcmowrsaYHjK3DP6zxci0UtPc39Y4WuzuVzEN/pgj0WDAbfl0U+3eQbf9tNiXDVONo1NFA7117p/30Sxbfnjv9Jml2/jtNOzyCebAcCPcvtVebsSiV6KQurzvEEbzeXNMed2Ll+GYfqHEAAAwCg65w/T5mSJe6IxKrHAOXY/eVF+xsflfZUXjfHj70Ps0HOYL7ssDsdJ3/+A8f0rn68rbW0rXuR324EJ+962s6u0WSzLZhFrLPaK3bmPPLMAgxJFwO+Eobf94Sh8fR99uwEU78vloDtVcZkxIL4VC9nepM3paxe57Svy6Uo0+645yN/NA9/NyTsuv3MnwgDADUW+ZvPRfoq50Q95zcKheZBac+dZ2oxRGqeBAXNCDgAADL+DvihvRbJAfOxi55kY5FrnnR0dC/3370KcErVMm0UYMVhrsnc4Puedr4Zg6eNqTRQ52Bm9f23tPG126DIx8HfV6XYLoQAYhpyDfhaJXouc4zz39dg/l1vkPrNcjjG15bEQTL+Rn6mKc/7I46tH+eQWY6z1vF/ipPJFnIRTXv9d/qvf02Y82/jstMXGRofCAMAtHAlB70WOt86nubB/Hl2dimOcBgZOQQ4AAAy7g75Km918TWxNRxRexeTxv+Lzt1D9zwnf+C78KynEGarBDLDnRZtXPrLWVDujryyS6UV7uyxvH5Ii4J89s+/KWBX5lCcA5KLU8359lRdQW3S/Wx73MPKTZAyJkconSr8WCW4o+rRxKnkUjfwr99+WeQMKbvZeuZsLmqKwKRYQ/jO/YywkZNvC7vkA3DKvj/fGsUj0XowrxCmU53LonfPpec6j3yTjNDAK/xACAAAYZAc9FiUXabOzH9MVO9A8K5+H2NH5JK7Ls9OTCX0HYiHWIm1O0WDYVgP78y7TZpEB7bZ3sdBjMZV2rmdt7jxtFivLO24u3k2x8/LbaDMsQAHotXjHvRKGQYgF1FGs/TG/XwshuVHf+Sjn0zBqZZtQFVQYJ2KX/ltcUfwZ/xzvmXjHxAK5Qn/uz/fJPF8Pfc+4gddyNQB2tNSHHYyYM/pgnOZWefXMMw7jpCAHAACG10mfp03xhZ0yqMSzsF2cU6SvBTqfRvb8RxFOdfkOjMNx+Zyuh/QHjlNy8kkhTglpv62LBZjvy/vh0J6bgba5seAmnvUXorGziN2ijOVhPmELgP7ldp/Kdvo4mQgfklgEbMHHz/O4w3zpOzMlMV50rr9ODe+Zx1tt6lV+rr4U6MR9zEU6+R0SRTfzfH/oO8UtfYwiSWEAYBcx95P7+wqAh5U/G6f5eY5twxQYMQU5AAAwrI56LKR4IxL8QCy0eZqvd+Uzc5E2E8VfrqFNFuddYuZps6BiniwkGqPVQP/cy+SUnK58aePK9uF1eT+yU21j7e8ibSYHtLv1vJvf5ZhGYc65kAD0MrczIT482ws+VopfFeJALrKMMaTCd4Aa3ctXjEe8yu1tbIpUFemsq/uQNg/ZKryJqzoBZ5YU37Cf+G4shAGAPS2jvy8Mg6Mw5+859ywZd4RJUJADAADD6KjbMYNdPcjXi/wsRYFONVl83reBsPLPV00Cz/NlAnjcPg51MNYpOb0Qi2AO43MoP48j4aitHZ7nnOOBaNQuJqP+KGP8Nm0moxSTAfQnt1s7JWfw79jHOT+PPGY1tfesBR7wlzb9PG9qZBMNmnQnfXOSTm6P4xYn6qy3rlDk+6c2NmnI74VZ/sfq56oA564+Pw1aONUagBpy+sIpOYNWFeZEXrwsr5MJjtNE3h39UuM0MBEKcgAAoP+d9Vl5O0kmyahHVaDzLD9fcasmiYvyisGwxnd0zINQ1STwLN8Nqk7PauB//mWywKdrsQDmTV5stbQr+l7t8jw/09ri5kWR7CKeW88sQO9yO5PkwxbF8m9yfhgFVrHg42TkOdwibXahl8PBlryJxsOce0MX76N737TNr7ba7u3/bzUue531Nf/b/Ae/r3cBXXs79twLgFYtk1NyxpAXxzzqUZkDR46wGvOpOXmT3TixNeYsre2BiVGQAwAA/e60R4d9lTYLjqEp100Sb08Of9z618UOv35VfFP97HkmXA19IbpTcnrXjr0rP4/YEf3L5fSRG+ca86QQpwt38jO7SJtiskJIADrP7ZySMy7xOT4rP9PPaTOusmrjRIIW87fIIQ70r+GH7fphLsrR16HPqnHZ63h2GZI4Cf1QGACoMZ93Ss54xNhFNU4TBelVcc5YxmlifKa6jNPARCnIAQCA/nbcl2lr5zzo0OPv/Az7WI7k77FIdujqkzv53fkqL6g9GsuAfgN5Rjy7dunqxzv2Q35eDxWSAfQiR1WQM778ME7IeJGLc07yVQzpvbu1uGOebAgAtxHfm0K/B6BRn3N7CwB1WyZzcGMTYxrVOM1V7q8Napwmn4QzT4pwgC0KcgAAoL/uCgEwUoM/Hadih65eq3bbukhfd0WfdLFDGYtZ2hSRRSGOCYL+Pa8HUZBdPqdHwgHQWW7nlJxx+3NH1pwbRZ5YVFefcsV8Ck516WvA7u36p7wZQaEPBNCYuQ1GAGgonzcHN25RnLM9TvMxfR2nOTdOAwyJghwAAOipy7PTw7y7hoVAwNgsR/b3ieKGP3ysvRU7Ib+Jq3yvvk95V/SpLBTIuUTs0LVIJgn67k5+TuOzitNyCiEB6CxX1Q+fTp4Y14ucN8XOrOdb17qN0xbzoo5ZeT3Ml5wNahTf43zKlJ21Aer33OnUADRsKZefjMf5ehX/8M04TVFen5rOO/KcWjU+M0ubAhwnrgI/pSAHAAB67PLsdJE7/U9FAxiJ0ZyOs9VWn9tJfTCe5utd3mkrinOKsS0c2CrCOZBDDFJM7nwoP8ffymfzRDgAWs/tnJIzXffy9XQrr/rShymvdXlFQXeVN67zdVOzfIVY1FEt8HBiB7TTtsfO2s+jLygaALU5Hts4LwC9zeXfJ3MdU7Q9TlMV6cStGqeprpRuP05Tjc2E+da/M04D7ERBDgAA9N8ibXb8sPMGMAbLkf694pScKH4wUDsc1U5b1S5bRXXFQtyh/WXyzurz/BzKGYaveiYBkNvRvWoBSLAACAYqFo2X/aZYYPVCNAD2dhEbygkDAC051B9nSzVO44RhoDcU5AAAQM9dnp1+yotsi2SBLTBsF2PdNTG31cvyxzc+5kGKgftn+Yrils9ps/t5ke/nfSrSKf98s7TZqSuuyBFMOozPYbQrwgDQaW53lPLumwCMpn0/zCeKOgUNYHexichcGABoMY93mjEAvaYgBwAABmCrKGed7NALDNfhyNvqo7KtXiTFk2MQ79o/T9AJ5Wcbt4v8Lo4inU/5Hp990cQfIu/eHIvF4j5LX4tw5ALj9rF8pk6EAaBzUZATud09oQAYVd99kTc5sLEBwO3FJjYHNhEBoANOMwagtxTkAADAQHxzUo6BJmBoPjZVtNAzMSHwwcc9Wg/y9XT7X+ZinVCdrLPtJs/9fOvnu0lR15TFM7QQBoDe9MGX5Y/vRANgdA6S08gBdrEo8+RzYQCgbVvjNG9EA4C+UZADAAADEhMdinKAgVpMpJ0uynb6bfnjCx/5JFUn62yz6zK3cVS2I2thAOhNbrfKJyB6nwOMq33f3vhIUQ7AzTx3oi8AHefxR2UeHxvjOc0YgF75dyEAAIBhybuPzdNmB3WAIXg7sQXmS200sIOLsq1cCgNA7xwKAcD4RFFO2pyUo/8O8HPHUawuDAD0wEIIAOgbBTkAADBAW0U5AH0XC1uWE2ujY1HPwkcP3JJ2A6C//e+3IgEwyjZ+nWx8BPAzUYyzEAYAepLDF+XtvUgA0CcKcgAAYKDyoqDnIgH03GEuUJlaG32STAgAN/c653YA9NOyvK6EAWCU/XenkQN830VyYiQA/bOQvwPQJwpyAABgwC7PTldJUQ7QXx9zOzVVi2RCAPi5i7KtXAoDQK/73lFgbiEiwHjbeUU5AH8XxTjzKW62BEDv8/d4Ny1FAoC+UJADAAADpygH6LFJL1rMEwILjwHwE9oJgGHkdk5ABBh3O68oB+CrOB1SMQ4Afc7fj8rbR5EAoA8U5AAAwAgoygF66HVezDL19tnCTUBbCTAei2ShNsCY+/CKcgA2beCBYhwABmAhdwegDxTkAADASCjKAXrkqmyTlsLwp0Xa7CoJsO2jthJgcP1uJyACjL+tV5QDTFm0fXObhwAwkNx9Xd6WIgFA1xTkAADAiCjKAXpiIQR/aZst3AS+9Vm7ADDY3M4JiADjb+sV5QBTpBgHgCHm7kfl7aNIANAlBTkAADAyinKAjr0t26FCGP7WNkdMXosEkC3y7n0ADLQdTxZpA4y9H68oB5gSxTgADNlC3g5AlxTkAADACOWinF+TgSegXRdl+3MoDN9tm5fJLl3ApnDxRBgABp3XxQmIByIBMPr2XlEOMAWKcQAYet6+Lm/mJwHojIIcAAAYqXwawzyZMAbasxCCnzrQLsOkXZTXUhgARtPnfisSAKNv7xXlAGOmGAeAseTtq/L2XiQA6IKCHAAAGDETxkCLXpq4vVG7bDd1mK7Ixw5yOwDAOHK72H31QiQARt/eG2MFxkgxDgBjsyivK2EAoG0KcgAAYORMGAMteF+2NUfCcON2uShvL0UCJmdRfv/XwgAwOk5ABJhGXz7GWGdJISYwDopxABhjzm5TPAA6oSAHAAAmIE+qPEwmjIH6xeTtQhhu3S5HAdOxSMBkvC6/9yfCADDKvG4tHwaYTJsfC/zmyRgrMGyKcQAYc84e7zeb4gHQKgU5AAAwEXmR0DyZMAbqNc8LUri9Q20yTEKcIrYUBoBR97ej6PKtSABMos2vinLeiwYwQIpxAJhCzm5TPABapSAHAAAmZGvC+KNoADV4afJ27zb5IG0mwoFxiqK7hTAATCK3U2wNMKH+fHlFf94iP2BIFOMAMCXGaQBojYIcAACYmDxhPE8mjIH9HOcdptivTV6nTaEkMD6x0GXhFDGASZknxdYAU+rTL8rba5EABiAWJCvGAWBKuXqMy0e+bpwGgMYpyAEAgIkyYQzsISZwD4WhtvY4JsKfiwSMzoGFLgCTy+uqU2kt9gCYTtu/1KcHek4xDgBTzdXj3XcgEgA0TUEOAABMmAljYAexuPDAiQ+1t8erpEgSxuR5+b0uhAFgknldLPZQvA4wvT79L0lBJtA/VTGOsVwAppqrF+XtpUgA0CQFOQAAMHF5wvjXZMIYuJmYwF0LQyPt8bK8HYsEDN7rnF8BMO1+tmJrgGm1/VGQOU+bxe8AfXBctk0PFeMAIFc/PUrm3wBokIIcAACg2hlmnkwYAz/2PC8wobn2eFHe3osEDNZxLq4DQF4X7wOLPQCm1fZXRTn69UDX3uZxRgAg/Tn/9lEkAGiCghwAAOCLrQljA1HAdV468aE1i6RAEobo2GIXAL7pZ8vrAKbX9n8qr4Pyx7eiAXQkNlU6FAYA+JvI043TAFA7BTkAAMCf8oTxPNnFF/ir43ycOy21xcmpZTA08X212AWA68jrAKbZt4/+wfPy+iwaQEuivfnVpkoA8N0cvZp/uxINAOqkIAcAAPibvIvvc5EAkhMfumqHFeXAcMT3dJ6/twDwvbzOYg+A6b0DVvr2QEuqsYlCKADghzl6jNPESTkK5wGojYIcAADgWnnC+JdkMAqm7EIxTqftsKIcGEA7mRTjAHCzvM5iD4BpvgPOc9/+vWgADfmYNmMT50IBALfK0Y3TAFALBTkAAMB35cGoWbIYHKboyyJzYei8HVaUAz1vJxXjAHCL/nXkdRZ7AEywb19eUZj5UjSAmr0t2xdjEwBw+xzdOA0AtVGQAwAA/FCeMH5Y/vhWNGAyLDLvWTucFOWAdhKAMeR1FnsATPs9cJQ2J5JfiQawp8gnn5ftyqFQAMDO+XmM0xyIBAD7UpADAADcSJ7Y+S1ZOARjZ5F5P9tgRTmgnQRgHHmdohwA74HY/Oi9aAA7qsYlVkIBAHvn50V5ey4SAOxDQQ4AAHBjl2enJ2kzYWxBOIyTReb9boMV5YB2EoBx5HWKcgAm3r8vr9iJ+6VoALcUxXzznE8CAPXk56ukKAeAPSjIAQAAbuXy7HRdXlGU81Y0YFQsMh9GG6woB7STAIwjr1OUA+BdcFTeftHHB27oZRTzGZcAgEZy81XaFOUYpwHg1hTkAAAAO7k8Oz0sb78lg1IwBhaZD6v9rYpyPooGaCcBGHRepygHwLugehfY/Aj4nqvy+iUX8QEAzeXmq2ScBoAdKMgBAAB2dnl2elLe4rQci8JhuOL7a5H58NrfT+U1L388Fg1o3LF2EoAG8zpFOUyVZx7+2sePzY9+TZuF9wCVGJN4mHNGAKD53Nw4DQC3piAHAADYy+XZ6TovCn8tGjA4x/H9tch80G3wItlFF5puJxfaSQAazulisUdsdnEhGkxEFBwshAH+9j4o8vvgvWjA5MUi4OfGJACgk7xcUQ5TE2OS5pthDwpyAACAWlyenS7L2y/JAiIYiuNczMHw29/YRfe5SEDtXmonAWgxp1unzWIPfWrGLhY0HZSXxcVw/fsgTsuJ78hvyQJAmKo40TxOxVkJBQB0lpfbPIWpiE1T5sk4DexFQQ4AAFCbGJgqrxiYsnsG9Ntzi8xH1/6uksU6UHc7eSQMALSc08XE9zw5GYHxiv7KPC9sAn78Tjgpb7NknBWm5nU+0XwtFADQeU4e7+N5UpTDeH3ZNMWJjLA/BTkAAEDt8mkNv6bNbhpAf8Sg2m92Vxxt2xuLdebaXti7nfxFOwlAhzlddTLCsWgwQgeKceDW7wTjrDANsdA3xiOWQgEA/crJ02buzTgNY2PTFKiRghwAAKARZce9SJtjnO3iCP3w5bjpXLTBeNve89z2fhQNuLVY/PLQ5AMAPcnrFuXtpUgwIs/zWBFw+3dCkfv6r0UDRilOxTEeAQD9zcc/5XEa6x4YC8U4UDMFOQAAQGO2dnH8JTnKGbpkkfn02t55MjEAtxG728Xkw1ooAOhRXndU3n5Lm0lyGLLnTiCEWvr6y7QZZ7UJB4yDU3EAYFg5eax7eC4SDJxiHGiAghwAAKBx0ZmPHd7SZhdHC4mgXcd5h8VPQjG5tjcmBizghJ97GbvbaScB6GlOFydczpNNLhguxThQ73vhPG/C8Vx/HwYrvrsvnYoDAIPMx6N/+4tcnAHnoYpxoAEKcgAAgNbknd6iMMcujtC8GFB7no9QZ7rtrgWc8ON28td8+gAA9DmnO8853XvRYGAU40Bz74b4bs2S03FhaCKfe2gsAgAGnYuf51zc3BtDohgHGqQgBwAAaFXZwV/nXRzj1IYrEYFGxADw3MIncrtbLeC0SAe+iuLgWfn9KIQCgIHkdJ/K6yBtTp6FvotFHr/ok0Ir74Y4HfeXZAMk6LuYC/kt8rmYIxEOABhFLh4bkZp7YwgU40DDFOQAAACdyKc2xCCVxURQr+NkQI2/t7nVIp0ohvwsIkzc6ygOju+FUAAwwLxuWd5+ldPRYxZ5QPvvhnMbIEGvxRzIwzwnAgCMKxc390bfRR/ROA00TEEOAADQmbxAfFn++F/JLo6wrxjofV5+pxYWmfODdrcqhtTmMkUx6fBrzj0AYMg5XVHeZnI6eqg6rdUiD+ioz19e8X6Ixf8WBEL3Ilf7rxiHMF4LAOPOw9Nm7u1CNOiZeCYfGqeB5inIAQAAOnd5drrOuzjGLr92cYTbi8ndGExbCQW3aHNfigYTcpzbyUIoABhJTvcp53ROnaUvFONAf94Ry7Qp3PSOgG5UG4LEe3EtHAAwiRw85t6iKOetaNAT79NmnEZhOLRAQQ4AANAbsUg27+IYi8Tt4gg389rkLju2uUfl7Zdkxy7GLfKJ35weBsCIc7plzulsbkGXjmPhkXwLevV+2D6Z/FhEoBXVCeYzG4IAwGTz8MNkE1K697Z8Fg+M00B7FOQAAAC9kxeJz9JmF0eFOXC9KKL4JS+ugF3b2/O8Y5f2ljGK3b9iEcyJUAAw9pyuvNmFla68jOJnYYDeviPW+TuqMAeaE2NqMbY2c4I5AJALc2Oc5r1o0EFe+jwXhgEtUpADAAD00tYujjFYZbIYvoqBtJd59+Fz4aCmNrdqbz+KBiNpJ3+z+xcAE+xD24WVtnOuX/OmKkD/3xMKc6AZ8X2KQpylMQgAYCv/jnGag/LH35IN8WhHjAfOFYhDNxTkAAAAvWayGP4iiiUeWvBEg+3tvPzxeTI5wHDFyQBOxQFgyjldkZyWQ/Mucs5VCAUMsu+/SMZaYV/x/fmv+D4pxAEAfpB/x1zFLDkth2bF82UzT+iQghwAAGAQTBYzcbGjTZz2ELvarIWDhtvbVdpMDljEyZDEotDYof3QQhgA5HN/OS3nQkSo2et8YqucC4b9rjDWCrvZLsRZCwcAcIPcuzotx6nGNOFlPF/GaaBbCnIAAIBBMVnMBL1Omx1tnPZAm21ttYjzl7Q5mQn6Kk5zepkXhRbCAQB/yemKeEfmPoUTENlXLBqKAuilUMCo3hXGWuFmFOIAAPvm3kXanGr8WjSoQYzT/FI+V0dCAd1TkAMAAAySyWImII6WjknepR1t6LCtPY+Tmcofnye7dtE/cYrTzGQDAPw0p1umzYKP96LBHv1TBdAw7ndFNdb6n0khJ2xTiAMA1Jl3f8rjNDbEYx8xPxbjNOdCAf3wDyEAAACGLE+CLe4/erKMe3nFiQ53RIYBi8HXpYVO9KytXZW3VW5rtbP0oZ20EAYAbt93PijzuXnkdeV1T1S4gc8573JiK0znfRGbwizL90VsfHAQP3tnMNH3X3wHVsYeAICG8u4opJiXefdBzjvk3NxEbJ64sI4A+scJOQAAwCjkXRyX5Y+z8nqZnOTA8MQz+zxOIzGIRo/b2qqdtVsuXYhCnF9zO7kWDgDYKZ8ryqvqN8vn+JE4EWCmGAcm+76InbtX+Z3xa3LKGtNwlXOkWT61fC0kAEDDeXf0ueNUY/Nu/Ex1Kk4hFNA/TsgBAABGJe/iGLvIHN1/9GSRNqfmPBYZeiwmepf5BBIYSjsbu+XGM7ssr2eiQgvtpB2/AKDenO4o53OHyQmIyL2AH78zoj0oyvfGLL8zFt4bjExsALIyPgsAdJRvb59SGZd5N7ZdpM04zblQQH85IQcAABitvIvjvPzxl7TZ2RX6pDoRZ2ayl4G2sXEy2aL88b+0sbTQThbCAQC153Of8gmID+VzpM1OvK/lXsBPxgEOy+tu9NXSpogBhizyn1/ySbwr4QAAOs63P5l3Y0uM07wsn4mHinGg/xTkAAAAoxcDFHnw6j/L62XaLPCFrijEYWxt7HZhThyX/llU2NNH7SQAdJbPWfAxTfG5P8wFWgA3eXdUGyEZC2BoYmw25gj+M/IfixsBgB7m2sZpiD5WzJEdCQUMwz+EAAAAmIp83POXo57vP3oyL++L8joorzuiQwtigfnK4nJG3Mauy9th2b4u454v7Su3bSeXdmQHgE7zuUXO5+J6JiryL4CbjAXk8YAYZ12U11ORoWeiYOwkbcZmvfMAgCHl2sZppiXGaRb5swcGREEOAAAwSXnirbj/6MndtCnKWZTXY5GhAbFzkcleptS+RvHjMq6yjV3kn++JDD9pJ5cmGACgN/lcvJMt+Bg3hThAE++PKHg4Md5Kj1ykzQZdJ3m8CgBgiHn2OhmnGTvjNDBwCnIAAIBJyxNxq7juP3oyS5vJ4tjV0eJx9hG7LsZk78oCcybexlbt6zxtFuKYJKByld+/RxbFAEBvc7noy8SCj+r0QycgDl8sTF7mRfMATb0/rhtvjTGBB6JDC6rxBuOyAMDY8uzIbarCnMOcYxunGTaFODASCnIAAACyPIgVRRRH9x89eZg2g1gxYaw4h5uKQbNVLkIAvravRdqcSrbMbetC2zpZ73M7aREoAAwnl/v2BMRY9GFR9fD6qhZ4AF28Q9bp63jrLCnOoRlRhBPjDDHecC4cAMAEcuzDrTk3m40Oj3EaGBkFOQAAANfIE3dfdgBWnMNP2HURbt62xndkmTaLOQ9yu+rUHO0kADCcfO7LO90JiIMRxdBHFngAPRoT+LY4J94nT0WHHSjCAQCmnl9/2sqvq8J3uXW/HafNOI38FUZGQQ4AAMBPfFOcM0t2ciSlz+nrhG8hHLBT2xrfoZOyXT3calcfi4x2EgAYRC4X7/ci53KLZDfWvuVhq7RZ4LEWDqCn75Fon6rFg3fTpjCn2rjjjgjxHRf5HVdYxAgA8Jf8uppzm6XNOE1cxmn64XPu+9i0DkZMQQ4AAMAtXDNZXO3kaLJ4/KrF5Sd5UBOop12NHbxWabPT+iwpetROAgBDy+WqPnKcLnuof9yZWKR8lE8xAhjau+QkXym/T6oxVxt3TFuMMxT52SgsYAQA+GluHfnSMq6t042N03TjY9oU4ayEAsZPQQ4AAMCOtheRxz+bLB6lq5QnfS0uh1ba1XX6uqBzlr7ujqtN7S9FOABAlcvFTvWL3D+u8rhnItN4nzVyMKfhAGN7n5zn90l1ek512bxj/C7S1wKcQjgAAHbOqyOXKrY2GY3rqcg0KsZpVslpODA5CnIAAABqsj1ZHPKuM9VlMflwVJO+J/kzBbppU9fJiWR9bieLtJlQ0E4CANflcl/6VGUedyiPq52CaGBK75NvT89RoDM+1RjDlyt/5gAA1JtTr+JSnNOIarMUc2YwYQpyRuje3X/87//nf/1f/1MkGKo7/+M//r//+//493+JBEP1f/7Hv/2/ogBAqHadqf55q0DnYb5biNQP1SDZl8/LpC/0sj11Iln37WSx1U6uhWRSVtv5DHuRYwxfTKj+KgywVx63XZxzT4Ru328dURGONlWOAbu+V/4s0Mnvlnky5jokH3Mf8zwZi0W/EfCdgy7y6VX66zhNNVZjnObmxliEs0rmguqijzNB//bf//3fogAAANCB+4+ezNLXieK4W1Teju1dF88tLIdRtKfz5ESyOl19007a0QsAaCKHe7iVw9mV9e9iwXJVhCMfA7j5+2WWNmOt2+OuinS6EeOw1any3mcAAP3Oo6v8OQp0zLX9XTVOc2J9AfAtBTkAAAA9cs2Ecfyz3Wh2F4vKtyd9CyGBSbSl82/aUu3oj23vTqtQEQDoMoerrikunt7ePMKJAQD1vmNmaTPOWr1j4ucHIlOrGFuIcYV12owtFEICADDoHHqepr0ZXjV3Zo0B8FMKcgAAAAYgD3jN8hWTxneTnWm+FYNi63wVaTPxawETEG3o3fS1QKdaeDPFNvRqu41Mim8AgH7ncA+/yeHGlL/ZPAKgP++a2dZYQfWzE3Wu9zl9LbqJK95fa2MLAACTyZ3n6es4zZgK3KtxmshvFZcDt6YgBwAAYMC2FpnPvrni349xl8fYMTiKbIp8/zIBbNIX2LENrdrMeW43q/Z0yCfqfLs4Jn7+ZPIAABhJ/rZdYD0fQO523cJlm0cADOOdM88/fnsfe8HOx3z/Mp6QjCsAAPDjnHmWhjdO8+fJjsk4DVADBTkAAAAjlxcs3U1fF5tX5ls/z1K3g2Mft36uJnurCd9kwhfooO2cpa8FjlXbWbWn1c9tLsCpJgnSdvuYvi7ujMUx5z45AGDi/d5v701vVlGdQBiK7T6tfizA6N89PxovuLv1f+36hLft8YQ/31Pf/GxMAQCAOnPlrsZpLrZy3WL7bpwGaJKCHAAAAK61NVD2I7N8fav40X9kwAuYYJs5v2VbaTEMAED9Odv8O//Tt7ncOn0ttNGfBaDOd9EsXT+euu3bjZV++n7aYodvAACGkhvPv/M/GacBBkVBDgAAAAAAAAAAAAAAANzCvwsBAAAAAAAAAAAAAAAA3JyCHAAAAAAAAAAAAAAAALgFBTkAAAAAAAAAAAAAAABwCwpyAAAAAAAAAAAAAAAA4Bb+fwHat2MBAAAAgEH+1mPYXx4JOQAAAAAAAAAAAAAAADAIOQAAAAAAAAAAAAAAADAIOQAAAAAAAAAAAAAAADAIOQAAAAAAAAAAAAAAADAIOQAAAAAAAAAAAAAAADAIOQAAAAAAAAAAAAAAADAIOQAAAAAAAAAAAAAAADAIOQAAAAAAAAAAAAAAADAIOQAAAAAAAAAAAAAAADAIOQAAAAAAAAAAAAAAADAIOQAAAAAAAAAAAAAAADAIOQAAAAAAAAAAAAAAADAIOQAAAAAAAAAAAAAAADAIOQAAAAAAAAAAAAAAADAIOQAAAAAAAAAAAAAAADAIOQAAAAAAAAAAAAAAADAIOQAAAAAAAAAAAAAAADAIOQAAAAAAAAAAAAAAADAIOQAAAAAAAAAAAAAAADAIOQAAAAAAAAAAAAAAADAIOQAAAAAAAAAAAAAAADAIOQAAAAAAAAAAAAAAADAIOQAAAAAAAAAAAAAAADAIOQAAAAAAAAAAAAAAADAIOQAAAAAAAAAAAAAAADAIOQAAAAAAAAAAAAAAADAIOQAAAAAAAAAAAAAAADAIOQAAAAAAAAAAAAAAADAIOQAAAAAAAAAAAAAAADAIOQAAAAAAAAAAAAAAADAIOQAAAAAAAAAAAAAAADAIOQAAAAAAAAAAAAAAADAIOQAAAAAAAAAAAAAAADAIOQAAAAAAAAAAAAAAADAIOQAAAAAAAAAAAAAAADAIOQAAAAAAAAAAAAAAADAIOQAAAAAAAAAAAAAAADAIOQAAAAAAAAAAAAAAADAIOQAAAAAAAAAAAAAAADAIOQAAAAAAAAAAAAAAADAIOQAAAAAAAAAAAAAAADAIOQAAAAAAAAAAAAAAADAIOQAAAAAAAAAAAAAAADAIOQAAAAAAAAAAAAAAADAIOQAAAAAAAAAAAAAAADAIOQAAAAAAAAAAAAAAADAIOQAAAAAAAAAAAAAAADAIOQAAAAAAAAAAAAAAADAIOQAAAAAAAAAAAAAAADAIOQAAAAAAAAAAAAAAADAIOQAAAAAAAAAAAAAAADAIOQAAAAAAAAAAAAAAADAIOQAAAAAAAAAAAAAAADAIOQAAAAAAAAAAAAAAADAIOQAAAAAAAAAAAAAAADAIOQAAAAAAAAAAAAAAADAIOQAAAAAAAAAAAAAAADAIOQAAAAAAAAAAAAAAADAIOQAAAAAAAAAAAAAAADAIOQAAAAAAAAAAAAAAADAIOQAAAAAAAAAAAAAAADAIOQAAAAAAAAAAAAAAADAIOQAAAAAAAAAAAAAAADAIOQAAAAAAAAAAAAAAADAIOQAAAAAAAAAAAAAAADAIOQAAAAAAAAAAAAAAADAIOQAAAAAAAAAAAAAAADAIOQAAAAAAAAAAAAAAADAIOQAAAAAAAAAAAAAAADAIOQAAAAAAAAAAAAAAADAIOQAAAAAAAAAAAAAAADAIOQAAAAAAAAAAAAAAADAIOQAAAAAAAAAAAAAAADAIOQAAAAAAAAAAAAAAADAIOQAAAAAAAAAAAAAAADAIOQAAAAAAAAAAAAAAADAIOQAAAAAAAAAAAAAAADAIOQAAAAAAAAAAAAAAADAIOQAAAAAAAAAAAAAAADAIOQAAAAAAAAAAAAAAADAIOQAAAAAAAAAAAAAAADAIOQAAAAAAAAAAAAAAADAIOQAAAAAAAAAAAAAAADAIOQAAAAAAAAAAAAAAADAIOQAAAAAAAAAAAAAAADAIOQAAAAAAAAAAAAAAADAIOQAAAAAAAAAAAAAAADAIOQAAAAAAAAAAAAAAADAIOQAAAAAAAAAAAAAAADAEE/kC8hSNgG8AAAAASUVORK5CYII=;labelBackgroundColor=default;clipPath=inset(0% 79% 0% 0%);" parent="1" vertex="1">
                    <mxGeometry x="1070" y="243.91999999999996" width="78.82" height="82.57" as="geometry"/>
                </mxCell>
                <mxCell id="51" value="" style="edgeStyle=orthogonalEdgeStyle;rounded=1;html=1;labelBackgroundColor=default;" parent="1" source="50" target="35" edge="1">
                    <mxGeometry relative="1" as="geometry"/>
                </mxCell>
                <mxCell id="50" value="Twilio SMS" style="shape=image;verticalLabelPosition=bottom;verticalAlign=top;imageAspect=0;aspect=fixed;image=data:image/png,iVBORw0KGgoAAAANSUhEUgAAAyAAAAD9CAYAAABEOBMEAAAABGdBTUEAALGPC/xhBQAAACBjSFJNAAB6JgAAgIQAAPoAAACA6AAAdTAAAOpgAAA6mAAAF3CculE8AAAABmJLR0QAAAAAAAD5Q7t/AAAACXBIWXMAAA7DAAAOwwHHb6hkAAAAB3RJTUUH5gsVEjQWTIL1OwAAcW5JREFUeNrt3XecHVd5//HP98y9W9S1u5Jsy93G3dLuyjY2ptmWdtcGQg8JoZcUAgQSEgIkoYX8IAmhJoEApoRAQg9VkuXei3ZXcu9FttX2rrq23Dvn+f0xV2AcF1nau3fu6nnz0ktOLGtnzpyZOc+cc54HnHPOOeecc84555xzzjnnnHPOOeecc84555xzzjnnnHPOOeecc84555xzzjnnnHPOOeecc84555xzzjnnnHPOOeecc8451zDkTXDg+NDvwY3z4ZtXnhuKVkwskCRGk0GLiaIgAQpY9fesf1QQKVAxSDEqAY2ZGLNoFTNLtzWNpHPHp9O+Zrk3snPOOeec8wDkQPHT7pPoiUexk9ECoTBdMANoAw4CLRQsqP7fs4E2gznK/rm1GnAkj/k9qfaPtPqr8ph/Hgd2AUPANmALsNVgPbBBsN5gCLMdZrajFDaOzaCdhf2X+EVyzjnnnPMAxDWijYt6AJQkTJOYA2EhcDRwHHCSYCHQUf3VCrRUg4paitXgZLQamAwBGwzuEdxlcA/GA2CbzWxn2txUbtmxk9m3XeYX1DnnnHPOAxCXF5sXL0NNTVCuJBJzEIcBJwGnCZ0CHFENNGZPQpCxP3YDw8CjwN3AAMZqw+4x2FymMh6QLRhY5RfdOeecc84DEDe5QccLsZgSCtNmShwHPFvoDOAU4HBgLtlyqUZmZEu5HgbuAQYMuwrjZixuDoTK+rCLk/qv8g7hnHPOOecBiJtopa4+YrQkBA5GLAK9QHAG2WxHBxAOgGbYBTwA9AOXYrba4N62gTW7tp94PLNvv9w7inPOOeecByBuXw11LYNIohAOBp6N1CN4LnAkMO0Ab56UbB/JIHCRmV2CcUf74IqRTYuWMn+tL9VyzjnnnPMAxD190NF5Dlgqhdb5wHOqQcfzgWOAZm+hJ2TAJuAGYCXGZVF2l2C8vX+Ft45zzjnnnAcg7rHWn9xD6zSolGlW0CmgFwl+h2x5Vau30DMSyVL+Xg5837CrGbchEln7Gg9GnHPOOec8ADmAberuYdQqTKfpIMQ5gpcDzyOryeHtv/9GgFuBHwO/ILXbCCq3DXhRROecc845D0AOIKXOZVhMpaR4DOJ3hH4fOBVfYlUrBmwE/tew71q2VGukw5dnOeecc855ADKVDXX3EqMVEoVTEa8SvIpsb0firTNpthhcKvg2ZpdK2hpTw5dnOeecc855ADJ1Ao/OXgySIBYjvVnwCuAQb5m6GgGuxvgqZstVDNvKO8vMv92zZznnnHPOeQDSyIGHWRKCTpH0JuB3PfDIZSByJcaXDbtI0o62ft8j4pxzzjnnAUgD2dy9DCMqscKzEG8S+gPgMG/TXNsNXGHwb0a8CIXR9tWXI0a8ZZxzzjnnPADJp40nnEfT7FbieHke4g+E/hg4ztuyoewAfojxxRQbEMSOAd8f4pxzzjnnAUjOlLp7MGO6pD6hdwNnAUVvmYb1qMGFmP2HzZi7LmzbQNvay7xVnHPOOec8AKlz4NHVi5lJQZ1C7yMrIDjDW2ZKiMAag89i9kNJu3x/iHPOOeecByB1sW7h85h28HRIYxvSm4TeBRzpLTMljQI/NLNPjZQrNzcXE+YNrPRWcc4555zzAGRylDp7iTGGkISzkT4gWIovtzoQ3GPwGcP+S8a2dt8b4pxzzjnnAUjNg4+uPsDakf5I8Kd4Wt0DzRjwK8M+qnJljSWJtQ/6bIhzzjnnnAcgE2yoaxnju3fQPH12l9CHgQvwWY8D2b0G/wD2XaGRkRFYeLvvD3HOOeec8wBkApS6e8FsGug1kj4APMtbxZHVDvmWmX3KCnpAZaN90JdlOeecc855ALKvgUfnUghFsHgY4m+rBQWneddwj3OjYX8TsVVCsaPfgxDnnHPOuX0RDuSTH+rqYdN4CSOeJulCobd58OGexOlC30oI75DRUuru9RZxzjnnnNsHB+wMyFBXD2ZWDCG8Suij+JIrt3d2A98ws78XWt824HtCnHPOOec8AHkapa5ewOYg/ZnQnwFzvSu4ZyACFxv2/mIoDIxXynR4liznnHPOOQ9AnjD46O7FjIOD9PfA6/EsV27f3WrwF2O2e2UTzdYxcJG3iHPOOeecByDVwKOrD8kw4wSkf1KWYjd4F3D76RHDPoDZd5Eq7b453TnnnHPuKR0QA/BSVw/tA8sx48xsszkv9uDDTZCFQp+TwruItGTL+5xzzjnn3JOZ8jMgm7t7KZOqyZLeIH0e32z+WClZ1e8RYBQYJ9vfEKv/zoCkGqwVqv/cDLRUfxXxVM577Db4vBE/AdrpaXqdc8455w7AAGSouwcjKpC8AvRpwREH2PW1anCxDXgEWG+wEVgnWGfYFtB2zHYgdmKMKgs8KkAFYVgWeBgUEU3ANEwzEDMEcwwOAQ4XLATmAwcDHcCMatByICkb/BtmH0XaEsbGmHvrpf6Ucc4555x7jCk7QCx19WIVC6GQvEroM2QD5aluHNgE3APcatgdGPeC7gMbwuLOQjo6FiXmrr1iwn7optN6CJECaLrQLMGhBscIjgNOrP46vBqUTOWgtyh4p4mZWPyr2NRU8keMc84559xvm5KDwVJXL2aWBIXXIT4FLJii169SDThuA643rB/jNrCH04rtCkmwjsH6LAV68OSzuW/nw5zadlxRCh2gZwm6gdOALuAooHWKXpfU4DsYfwlsbPdaIc4555xzUzcAyYIPQgh6I/CPZMuBppIx4H7gWuAyzG4y7CHK5V2WJNaxZlUuD/rRk5bR3t7Mjh3looI6gE7BWcALgEXA7CnWHw34rpm9F2lTMjrKnNsu8yeOc8455zwAmUonM9TdQ1llNVnTq4U+z9SZ+agADxhcCbYc41pi+mhQIZ07uLxhr1UhNpGG8mzQKYLzgGVAJ9lSrakShHzTLL4PVGof8I3pzjnnnHNTJgDZ3N3LLsY1k6ZXVoOPg6fAaQ2TLa36IcalZvEhRGWqFbzb1NlDOY7TUmieA3q24GXVYOQoGj9dcmrY183sfZK2eZ0Q55xzznkAMgUMLV5GYWYrld1jLxL61wbPdhXJllj9zLDvY7a20lLc2Vraxqy7rpryHXJzdw9AITEdYdIFglcDS4BpDXxaFYMvYPZ3iJ0ehDjnnHPOA5AGVlp8HhSawdLnCV0IHNuog1TgFoMfgn2faHeDYvvggTlY3bykh1kjzexsHp8r6RzgdcC5ZHtFGtE48CmL9gnEmC/Hcs4555wHIA1oqLuHYAHDTpb0DbIMS40YeNwMfB2zH47G8fVFNdm8QR+gAqzrfh4zmEFKbBV6LvA2QW+DBiK7DN6fVir/HkKIHYMr/QI755xzzgOQRrH92OcwPmsmMjtUCl8lG5Q2kgjcClyI2fe0c+RRa22mbe1F3iufRKm7D8NahZ4n+GOgB5jeYKex2bB3JAk/SCvCU/Q655xzzgOQRhmMdvUCNgeFzytbntNI5/KwYV8HvjFSKN/XnBaYt9q/hu+N4SwIAZgmdAHwbrJ0vo1UVPN+gzfJuMJk+J4Q55xzznkAknNDXT1EaEqkjwi9Dyg2yKHvAH5s2L9aTFdLStsHfMZjn/pAZw8qFLCYzg/otcCfkFVebxQ3mtnrEXd6AOKcc845D0ByrLR4KU2Pbmb8sIPeLPRZYFYDHHYEbjDs02b2C8FI+4DPeExIf+jqQ6lkhXhcNRh9DTCzQQ7/R2b2NqQt7f2+FMs555xzHoDkb7DZuQxCAtjzhb5FY6TbHTL4Gha/mKj14XK6hXlrrvCeV4NABKxF0kuAvyJL3Zv3/p0Cn4wxflRS2TNjOecmy/qTzwGgUCiEXD8rDYujMSoR829f9aR/bPPiZZiZJOW0dpRsBxYLwOFrnnzlw4aTzmOMyLRCIaBcv8Ps4YcfjgsWLOCQ2y7zG8pN8QCkqxfgKEnfBJ6X88M1siKCHzWzVUIVH2DWONLr7CMpGDFyhNBfAm8i/5vUtwPvKhZnf2t8bAvtnhmrroYXP58k3UW5qX2O0ImgE4FbInG1UNrhy+XcVHhWZu/SuZJep+xjTZ730I0atoJo/4sYf/zqAQOGl1wAMV0k6XXAITk9j5RsJcR/AtufaOlt9UPakYg3Ch0NJDm+Ljsxvh8tXiLJfHzjpmwAUuruxYxZQfpXsk3nebbL4NuYfZKk+EAY3cXcWy713jZZg8iu3ixblsIrgQ8CJ+b8kO83+H0Z148lZQ6+6WK/iJM5GFvcQ4wWkkLoQJwqdC7wgmq/mQs8avB2iV/F1OjwFNmugZW6eiApoBj/Gvj7nA9y99gKvB74uVXKtK+9+DHn0wvQJun7ZLWi8mzcsL8MIfl8TCs8Npga6u4FrDkQvkT28awR3GfYK4FB38vonqmGyBxU6lzGzpEhZrR2vIGsMnbeb8iPYfwPaLT9pp97L5tkbQMr2NLZMzI+bfq3CyO7BgSfAF6U4/5+lOCjhr2+KS1s9itYW/cceQYd8+YyXkmToHCIUFeShHOUzaoex//dQ7RQ8PKxUZY3Ncm8BV0jMwmLlZaEcFaDBB8Ac4AlBSU/HyvE3/oXkiCb9VjUAOfRJHR6pZIWglT5rfMwAZqF6Gyg7nQE6CRg0O8sN+UCkE1LlqGYMKOl4+zqsprmvD7XDa4Ee39lfPt1SXE6HQOrvIfVydzBlWzsPg9Z8VbD3irpL4E/BWbk9JCXSnp3tPiRUldv6tPZE2vDSSfT1HIcMd3VpKDD0lRnJiqcpyyF85FAy9P8FdMLBUS24sO5hiYUaKzU5Rg0FSqBscIT/ssCIjTIqTQJPdnqk0a7Lqoes3NTLwBJYsBkC4Q+Ahye08McI1ty9bFCTB6qNM+gY7Wn1623Bf3ZNH2pu7dkZh9Gukvw4Zz2owR4hxRuCqb/3bykx2vD7Kehzh4wQWLThI42Rs4KSVhKtub9MKDpmY1/nJsyvD972zvnAciTGe7swWIskIR3k9+1nTsM+2fDPoO0Y/aaX3qvypn2/hUMdfWOPbp7/MKFrcX7JX2WfE7Xtwn+LiremsRwj1+5Z25z51JijEqS4kzB8Qp6IdmejkXAQfjXOuecc84DkCcPPvqwYGBaJvRHOR04bKxmubpQaMyXzeRXx8AKNnUvpajk0nJM3yDpM8A5OTzUbqH3RezPSl19Y+0DXh/k6ZQ6ewBkgXahU0IovEDZtT0J6KBBC64655xzHoBMshgMGQdLej/QnrfjM7gf7M9J7aeSYrtnxsm9+f3Znpzhrr41ZvZmSf8MvCKHwe1rJVYJfvDI6eey8MZL/OI9xm2HvJCDDmoirVgSkrAAqVtw7mM2kc/yVnLOOec8AHlGhrqWUbGxUFTLH5LPeh93GfZn25pHl88ab2beag8+GsmWrTB3Dg+a2TsljQKvzVkQMlPorwy7viUtrvMrBuu7l9FiIpUVIBxucFoohHMFzwWOAqZ5KznnnHMegOyzQEJR4WxBHpde3WzwjhCSq+aMtuDLrhrPMfcvZ6izBwVtNOy9QjuAt+fsfjhN6E9jjB86ULNibVrUS7EIaUqLjKOjdFaApcAZwKE8s03kzjnnnPMA5ImVsiJys4XeBxycs8NbY9gfKYTrbbxM+1rPdNWoOqoVx0tdfUMGH5BIgT/O0T0h4K1BYRVi1cNnnMOhN0z9YpZDnT0YSIHpghOjcVYIOpcsc9VBNFjqUOecc87lPAApdb6AREVSyq8GenPWVncYvFMqXh8ru+lY6+vyp4L2geWUuvq2mdnfSGoG3kp+Zt06EO+N2I0tlaZtU/UabO48lxhNSWiaI3FykM4BXkiWuaod30TunHPOeQBSM6GF1MaPlMKfkqOCg9UN5++2QriKcpmOQQ8+ppJUFQoUthn2IaGZwGtyNOg9T+gVBL6+5ZRzmXvL1Ol7Q529AC0Szw4FnS94PnAiMNuDDuecc84DkJordfViaZSS5M3A4hy10SNgf/ZQ6/BFC0fnMn/Ai8NNNXuyY5W6+jYb/IXEdOAlOTm8ZsG7LNrFsan40JQJPpb0YGaFhPA+4M+Bud4TnXPOuQNDfjZ4SygJpwneTH6+fm4F+5sy4z8/bGQu870y9ZQWIyAeNey9wDU5OrRO0JvKI2WVOnunRFvLREAHA3/gwYdzzjnnAcikK3X1YJY2gf4YOCwnbTNq8I8W7b+KVrSOfg8+prp5a5aT7YDWvQbvAe7MT3jOW5pamk5VmCIrkwwwmoFW73nOOeecByCTanhxbzb7ofBs5WfZSzT4aiR+3oLK7b7s6oDRPrAci6BCvNGw9wEbcnJoRyDeZGkMw129fqGcc84517DqvgfEBERrJoS3AvPy0CgGqzD7h4B2tWvy6i+sP/F8Zs6rML4jaTWYJzEfWIgx22StAsPYbWgb8DCwyWSbi8b4NonD+5fnu7d191FCGCiYtRnWIWmhwXyw6aAmYEywE9hk2KOCzZaGrcisfXByzq99YDlDXcsYS8d+0VJo/aTgk0BLDlrw1Qr6NlL/8OJltK3xNNDOOeec8wDkGYksYUsQGM8RvDgnbXIn2AclrZ/x4ENQqu0P27xkGTFECmlhDha7x3cmz0M8W/AsoANoQRSEEgBEKqgAu4FNQnek4roZ2JVbuvvWNk+v7BzbXWDu6nwEI3d199ERjQoUErMjJc4WnI1YLHQYMEvQRHZ+AYhk5zeuLNB6SIkNAleVunuvMbN1QNpR41mpjoGLKHX1Gha/gsLxZDVC6r3+6VCkt8aYrlVQxR9fzjnnnPMA5Bna2tWBorUS9HayfP/1ttWwvyEUVltapql0W81+UKl7GUaUYjg8seQVwMsRi4FZe3HNCmRf5NuAE4CXgYYNbhrZVfg+Zj/fcMp5G4rFQl0rtW9Zcj6WXd+zCvD7wLnA4U/T7wJZhesmYAawEDgLeJvQ/ZJWAd8pdfXdJDHWVsNZn/aBFZS6+3Yb9gmhE4BzctBHX6EQ/hN03c3PP41Tr7jJn2LOOeec8wBkb5kE2FmC83PQFtHgK8T4v1iZWu372Nx5AYWQEk3zg8Lrkd5cDSKS/fyr24AewTlIf1QsFv7DjO+Vunq2TfYellJXH2YkZnYm4p1kRSX3N9NRETiu+us1Ej837AvDXX0DQGwbqE0gElNIEj1i8HeC/64GRPV0EOhN0eKNh+xoT/0R5pxzzrlGU7dN6KWuXsxiEekPgDk5aIuLwT5NCOXmrbUpOr1lSS/FJE0M9Uh8D/RJ4OQJCD4eP1A/TdIXQtB/Cp1V6jpfpa6+mjdgmU5KS/oQzA/iw8APgN9j4tOstgNvFPoR4v0may9112Zj9rw1y4lEKunY1Qb/DIzXu6MKXpQQTpa8Vp9zzjnnPADZK99/9bxq5istysnsx8Nm9nHQRutfwYz7r5/wHzDc3YtFZkTT+4D/BF5AbWegmoGXIP23sLdAbCnVMHvScHcfuzsXQuQ04JuIDwIH1fi6HQ58TOjLQqdsXrKMbd0vmvAf0tG/kkJoMswuBH6Sg/56qInfnavjGOru8aeYc8455zwAeTrn3d1FLJcl9HvAwXVug9Swf0vT8tXESMcE/+VbO/sY6u7BjHmITwEfBeZP4vkdjvi8FP5O0szh7omfCSl19XDffctJlZ4n8S1EHxM7q/NUCsArgf9MLDk7CTBUg0CrfWAFSNvN+CRwX71vXMErS3bn0cJnQZxzzjnnAcjTMolQKBwLvCwHbXCJGV8NSVNsH5z4vRKpQKYFgs9XCy021+EcpwF/AXwcs1kTuRxrY1cfba2Ro47uewniq8CJdbqOncBXx2N6TkiM4RosOYsGbbM0YPA56r8U6/iAXiQFvC6Ic+4Z8i8XzrkDKwAZ6l5GoiJILwGOqfP5Dxn2jwraLIsT/pcPd/YhY5akjyP9LvUt/NgEvAPpg1hsnYjlWKVFvRQT2DJSeKHgM8CRdb6eJwBfJIYzCdk+o4k0b2A5pR0RI34TWFHncxXwexZju/lzzDm31wzDUmCswSKmSiXEqX9xIPXjdR6A1OIhYoHUyu3KZj9U5zvnm6TxMqIx0bMfw919EKxI4C+AN5GDqvNkG9TfjcKb1GQa3s+N2yoIS+1kxOdyEEzucRLwGcyOqsUmbcWICNuqG9I31flcu5Ceg8S2k30WxDm3N+/gCgWKYwY3VQeQjWCnwWBZKUk6NSdvDMOIWw0GG+iw12N2Z+N0I5cnk56GVxKGnQl01/ncbwf7CklSaZ/gWhLDnX0gA9PvAO+uDvzzolXig1bWbaDLt3T3MLf/mQdfpe5eDJsr6cPAopz16zNBfyt493B3386JrBXSPngRm5f0ErFrCha+I3hPXa8lvDKN8VflJi9M6Jzbi2fYwCXVJar2ZZNM2bs4z6P6ssHFmC0HaBtcMSWvS0dWd2oc+BiwnqwYcY4DJraD/Tg11vheRJf7AKTU1UuMsRBCeBkwvY7nXTH4crGoO8drMAltMogcJfEh8pFi+PEOFfqQjFuM8IxrvZe6+yhSpkzxjcDLc9q3f8/gimCFbwwtWUrH6lUT9hfPW72C4e6+CsaXEBeQ1Sapl/NCCMcDt/rjzDm3N9oGlnNv9wtKQv9vJk1KcjFB/yTRB5EhdluzEo7tv3xqB4f9yxnu7rsP+ECeg0IDRqlYE4H5gyv9hnL5D0Cy1LscCyyt83lfh9l3y+PQMcFfU7INwZag8CdAV46v/QtN9vrp6vhsqXsZ7f0X7dV/NPbhk9n5M6NM4STBO6hzMcun0Aq8J1K+PFhy/8Q/gI2imu4sU/6y4J+o3xK7Q4HeBN061N1LR//U/DronJtYx/xmMO/rZ/IUHP5mxt6vi5vSJm3QVOpaRnWabilZ/YZ6GTPsK1LYVJv7W0DoBF6b82tfBL1tZxw6Ctv7brDjZ4dhMUjoreR8ihhYhPTaxGDLBBcqbO9fwThlDPsf6rxmV/DSiqVzfBLcOeeccx6APG6YZJa2CvVS3w3Z1xj2CyPSPjDRG897MSwgXgcsbIDrf5KkVwTBXcfuXdraYEZQPJGs9kbeCXhtKh1Zm09JRsHCI4ZdCNRzD8YiSaeCKHW+wJ9qzjnnnMu1yVs+owBZmtTT63i+owZfDRRKFnfXYDwqBEcBL26Q6y/gVYa+0TGLp90LUurqQwlY5KXAEQ1yjicY1if0paHOHjomcL1qR/8KSt29YPwQ8Xrg2XU6xzlCSxXClaTNOOecc27vbT31OTSP7mL3jPlNRpghMQdoB2ZimoNsOqgAVhRKslTWqgBljJ3IdgLbQJsx226w6zsDcfT3FwfmrfGl0XULQIY7eyAEiPFcJrcK+ONda/ArI9IxeNnEnuNvKoy/kCwIaRSnGpwuWL65+yXM6//ZU4YrMWWuxPkNdH5B6MWYfSsETXjUGcbGiS0tGzD7OnAak1cB/vGWxTT9HEHD/lhzzjnn/q91xy9lxqyEctmSRMxGOkxwdERH7y7OOlpwiOBgsl8zgQKiKQs+CJDl969uKTAgIiqgMlAGtiNtFmx4XXeyDniw1N33INg9Mu5Lo21rbg7ptm0VDrtz1QF9LSZnBkTC0nSGpB7ql9mhbNi3g8IWixNfN0eAGQXEsjoOQvfFdMHSuX07lm/51cynPsdsHdNJwKkN1s+XGDpWxtqJ/ovn3noppe4+IvwywC3A4jqd48lInYJL6tXIdxzazfFHLWRo50ghyR7WT3G/pDGSNNMgFZkNWpXYAoM41H2A1FwxRjFtl7D2geUT/tcPZYVCZyhLm32Y6tAXDLaY7PqkYI9WxgLz1tTgPLt7AJpkWkCWHMPtvWhic/vu5m2bp40yv3/qZ1wa6uwFKEgcBEzL6WGWgQ2IkfYGSHwy1HkeMZpCUmyTODqmdCUhLBF0kq3maAcK+/AAUnW8lwB7lh/M5XErRAQRNIx4MEk0WKlw47RphcFSZ+99ZjYUQrC2GjxjPQDh17Hi8dQ3K9QajF+aTfzejz1hMNkDY1ED9oPTS7+aOVOw42lvtWwJ3ZwGO7/5Ep0w8QFIdu0jLWpdN25jP6xjADJLcF5zsfWSUldPTfr4Uxnu7MUKYnjX+HOCCu/gafZAGZiyl+v8RuhAgnOFlnPgZKYRYjdiuZl9cbi7rzSR9XSqQdzcgD5JlrCjtU7XNRVaHSt6ZxLUv2lJD/NXT9y9M9zVh5ktRPqgxHk5HlDmNgAR3D08bexvC4TrpvrJlrKgvEnSe8kKGE/P6aGWgUsN+2Cpu3dTHoOQzYt7MUMhYa5Qd1JgmbIVKscCs5ncD8UB6Kj+WgK8WWI70n1CV5ixcqird7WlbEbYgbJka1ICkGrxwbOAeXU6TzP4bxXChsLIeC1/zrFkaVEbzTEShwG3PdWAIbWYJApLGvD8AnCaQuFbQ109dEzw4Lyjf2W2BM/4PuLN1G8J3nNGxnfPBO2oxyiB1OYG6ePAuVPwWTmnAQPviXAGUjIayx8e6u61iUjzvOuE5zKafc14WXWQ1VTH80uAswR/GYlvTKIm7AVR6lpGyngSVPzzaspyt2+OENoVzV471N27e0qnGs9W95wK/HkDfJw5QuhG4Mt5OaChxT3Z3HtkOuI00DLBOcApwKycjUnmkBUB7ZZ4u9CdVuAyjOWlrt7rQhJ2pOWUjjVTd9av5tmohjt7iDEtAmfX8TwfAPu5pZFZt1xcy59zFI35hatdxiF6qm+7JkSYQeNsPv8/1yamlRbVqMubGanZXQb1fFqcIjiuHmualP2vAzjGx0tT6x0heElzKHRMVL8abZ0O0ZoE59c5+HisMyWOmNBFYAoEivOElnk32m8noKn/AcCy/3U0yMeOBDhKOVhEO9R5LnfPAoLaifo9FL4r9BPBh4Dn5Cz4eCLTgW7Bn0v8SNL3Y7Q3kGgBtpGN3X217XeLX/5bvyZLzWdALOudB1PH5VcGl6Qp94YahVulrh6EMOwIGmv/xx5NiCP34s/NAg5p0Gf7QmQzgdHadLIyITRF4IdkS0pm1iOQRJwhtLqOHzQCbqo5EjgO2DxB0SpkM655mk09FDhT6O4JjsyPp3E/2uRoYE6gQfaLHWDqek2GFy+DaDIlh7Yd2/syoddUnystDdymM4BewTlCa4eXvPF/MH48vLjvPoS1DU78XpFhdsPgubDkkmXAmaXf7HM0YK2Mm0x6NcaPEQ9lgTLFgF4Lto4kXEI50v4MC3vXdLAwetxZ2ZSitJj6FR/cBfbjJFGlY2BFze7B0cpuAW0N2uGDZZuwnvwMBRLTqzdHI5qD0VKrFfztg5dU71W7Aeiv38tAz0ljLFQ3+Do3MfcOWixEqatnv/6ioe5fF6Q9DTgsR+dYAD2/nKZhIu6dUlcPylLPd5H/r68+ynUN5aHjzmXXc36HmIT5Vkz+TNLPhT5DttKmZYqcZlP1OfkpxC9JeH8MdtD4817MIycvm+D7yygvvRayj0x3go4DnQrcBQyBjhH8HbKXi5CV24ZnCT4m9JKikn26SWsagOyaPotCcxFlnaJe2T8GzLjWrLZ7RwtJcyC/G8b25gE//eleANVNw4UGPcVmSU2q4XxxGC8hhW3AT+p4Hc8IQYfI39huYvvVmWlMg2z/OlZIjd27twN6LlDM2TmeVUjCgom4d0xGauUi6CzvPc5NnFJXL9OnFaaPjoy/KqAfCP0jWfKfZIqeciCbgf77gH6yc1fltS1NYcZwVx8buycmEGlbs5KDLv4J7f0rBoW+h9EP3CL0PaFrTNZmcAtoiVmcU30PLDVsnUHL7sqYcheAgFEZHZtB/Qq0AaxMCoVh1TB5TZaHTTTw4Bzs6W9ey25wNfBNXNP+PveWm7BomLEKeLRO53kYcDLA1kU+C9IgIjCW82M8NSjM28/4AwsJra0zO7LUu7lzpOBUTcAjThYIlhyk+mXF2xvjDdDvnMsCj85eSot7E8TZhPA1ia8Dz8vbh4waSqpj6a9K+k+TPb8YQ1KqzWoH7RnrZSNntZGt7NiCOD0qzgZ1Ad8TTG+KKip95uUtahuAZOt2DqZ+WYGGDVsV07SmaUlNkGIG7G7Yri0b2YvOMgJUGvQMy9UXbs0jOczuBm6o03m2Ci0KCqRT9XvQ1JMa3Do5/XOfHYU4mv2cHpAE4mSyL3p5M93QC5Ig1j+rdyLO80Tytczs8W43eMBvP5f74KO7F4LNIeHPhb4veA2Nuxx8v9/xwMuEvkfQXyO1DXf3MdRZm43q1UikDdiEcbHghTI9B2yLTFcD02JQa9yHTdY1DUCqX5JOBg6q04Vai3ErVvvU/S2hOfJ0dTTyHYFsf+pxtWFmu6sD+Ua0C7PxWveFUBlFIYwZrCD7sl0Pp1XSSsFixDXGzQdcz0Rt8q6NWcASAVsWL92nv2Cos5cQRHX51aycXojnldM4u7gfQ5ts/4cAPZscZ0U07Bpgi99+Lq+GOs9j/VHHgXGKCP8h9PdkSY0cLAA+IviamXWOjY6xeT/36D2hJEBWZ2wb4iqDw5HeDFxispJBQUbrvswc1ywAecxDuJvfVIicbKtCCNtr/lNiQtnKYDzcoB25DHt17DuATQ16jhuAXbVeQDb35suz/BBmV1Z/Zj0cK4U2giekahAB426eog5PHsbmQmeklhbiPvYrCdI0zqgWA8urkySO27+9YiKNsVVwRo7PcxdwOZD67efyKBtDJi1Nc496naTvA68mP2m786IAvEzS91unNb85oJYJWpL16xUjO8d2yLLZps2Shslm6zuAqzFGMVJQK3kKQKoP4RZlRXXqYZthV0SLFMdr+9W7ffCX1X+yB6lVmtfa2mlm6+wp9slIQtKOvQxU8ujhYGGnrPaDcsMwcT81qry+F46QOFK+E72RbK8OCPNscSC07/M2sGwu/yiqe5Ryqk3oOWF/Mn5lGQMPpX7vvr1xPzCIp812uQw+egHNRuHDQv8OnOCt8pSOBb4g6W9NNmuoez+CEANkPwX7b8NoLTYD9h0zrrZogP0nZu8beuHhW8hmUP8FGGIf9lnXdNO0sijppDpdkHvB7gQx69ZJqg0n3Q0M03i1Mh4BPfxU/ScxqARGMW4FXtKAN+jaGCy29S+v/U8ySELYbdksSF8dznUOWfrPG3acchYzb7nWH8/5Fw27UlkV+5k5PcYjEM8CNu7b+0BYtvl8QY6vg4AXpJb+u9jXquii+t47KMfneV002xCquYKdy0XgccrzoHkGxHgI0kcFb+TA2WS+v6YDfxkIC83sg8NdfY+2DTzz8U71v3nwcSHJ6t8eL/IIA0CWxOLqfT3g2j18sg3ohwLz6nQxrreKDWGT9NMMzHgIuLMBO+5gjE+9/nzWwPI9Ae4N5Huz7BPZCdw0WT+sY2AF0QzL2mpnPQZRQsc1T29nvDgT1xACcAtZ3vW8mg06bV/W+pY6e7E0FpRlrcn7oLdb0j5VRd+66DxCNqY/nfotPX46qRmXmxruOe6msC2nnIOaZ0KMx0n6D8FbPfh4xorAGyR9xcQJw1197NdsyCS89GozAsp+O4r6bDZMDa4JhSS216z44P+JPwhBO20/osF6vYyAK5LEKtq77rDmcdFxI7jb4Dab1B9pGHYLcF+dzvnY0Z2bm72EV+MEIIFkGLgxzwcpOCONaXGos+cZ/4cELSTf+yL2WAicvi+BVpokpLEyXVkBsbx6GNkNwtdounwodfYQm5uxmC6R9E3gRfjLa3+G3xcIvm6yRYKaZcjKbQCS1UrkBOpTHGYIuHkyB5xBZcwiwn5FY2UWeSiaXR4N2gZ++dRDajMsTR8ELmuwG/KizdtGN5pNXo+waJBaCbijTud8lNBsfxY3DiNicDH5nmHsDArzFPZ+bDDUvbQ6I04ncEQDXIqC0DlpTJ95jv1sr9zh5HufS79ZfADf/+HyEHws7skyLUXrRPoS+awR1IjOFPo3TCeGAP9M/oKQmjyAhjuXksZyovptHHoAs4eYxAHn3P6Ls2mQyBqgkRbdX2Sye9HTt1X7wAqUJKlllb4bJeVwCfj5/NktdEzSbBhAx+BKkkIo89trJyfTwYhD/RtSIwUgADZAtsY2rw7L6lvsfcdKKtBUaKKafrelQS7HGUGh45n8B0Pd56Lsf4vI7z4XM7hCSnz5lcuHJIDZ8ZK+kPOZw0Z0tsSXzHjWW7qzpbBTPgAxJaBkNnB4nc7rttTi9sn+oZV0OgR2Ad+kMbJhlcC+nRDSsNexmiHsSuCKBrkBV5rZjZM5+7FHNDAYoD4FKucIHSGPQBpGVnbW1lG/IpZ7Y4bQmUFiaC9nB2ISGC+PzRU8p4EuxzGITiRKe73crMjcZBZk1YrzunZ9c5Yi3PyGc/UdfHQuZbi7D8yOEfoC8FxvlZp4vsRnDTtUQXziLVM8AKluQJ9DnbJBGTZQCIXUNLkpzuev/RGW/fyV5D+lJsBPY6rrLULbXlaKNxOgHQZfI/+zIMMYXxOMmpK69ESwO6jPF+2CYcf4s7fBghAl4wZXke8R4hlpTJu0l4coBRDH01ipNKcLPTeoQBL3fkVtKd02i2wDel7dZtjdHn64HDzrMLNDJH0WWOYtUlMXgP4pYnP/eDA/syA1CUCqX/IWUJ8N6LuA2w2jo39VHYacIsBWsH8hW/6TVw8CXwwJ4+2De5+qrX1gebayzVhOthQrz75tZpcb0NH/y/qEH0bJYF2dHvGHEwpsXXSOP34bRFbEkivJd8HPkyQdvDd7mIc6e/cUpH0O0NZgl+MFMZZnV5K9O+zq8qtjgONyfE5XFENxu99prp5Knb2YWSvSX5NtOHe1Hg3AqwN6D2aFUk4yY9UyDe9BQGsdzmkraF29GrSjfzkWgcilZEux8vixaRz4fHNTZUB65ofXPrAciRGDTwP35PR+WwP2RQVV2idx78dvjyaNaJVR1SkTlmBBLI8V0+CZDBsmAMkeHveR76roC0En7s3yPgliVhW8EaPgExDH7G1Bz+qf6gLac3o+OzGuTM2Ln7t6Bh89jMcxEfRGwVvwbFeTJQHejfRKhcAzzmTYCAHIlsXnYgjBwdQnD/pDmG3C6jfuH6+UMalsxj8Bl+SwI/6AaF8bG0ts7up9HZxbdZDPR8jfUqwh4O+wcHc94z+pTCE0RatfbYeDCKHVs202DiFCSHaQ7yWcrcDpaC+qhWfVz48AFjfg5ZgHer7gac+z1NVDmo4HZWmGk5yez92GrTXzBViuTsFH1zJICjQlzecIfYiseJ6bPHOEPmYxnqYkYXhxfVe+TXgAkqpAsVgAOLRO5/SAYdvqOfA86JZLKKYRAhuA9wM356f/2ZVgf0tgW9t+zAy09a9AGEb8PvA58pM6dMTgnyy1X2CRtv4VdTuQ9v5LqW7av4P6JCU4SGK6f19qHO2/KWJ5NfUpYrmXgRKnxxhbnu7jZXWW5AyyD1INGBBydrS0eW/+ZAjF2UBnXs/F4PoxyptNHoC4et1QASw9WtIn6zhGPNAdB/oHs9hhSX0zcU/4T5fE2OhYUq/OZbCumBRi+15uqq6VWWtXYtEQrDazd5OPpUprDd6LuC/G/X8JtfWvQBbGMT4F/DtQqfP5jQOfFfYFJaRtgyvq3uCWrep/GBipRzfEaPPxRoMxA7M15Lsq+skShzxV/DHc2YNVKkHoeUChQa/G6VI4/GlnEbOZnmOBvCZ+GAe7uEVN1tG/0u8xN+mGunqIMRaF3kW+EzVM/TgQzhF605awi81L6rcUa+LDHwmSkFid1sEKHpqIwfVE6BhYQZrCptvLl5nZHwG31vFwrgfebmK1ougYnJiXUNvAckzsNPgw8HlgrE7nNwL8I/AJ0Eg9Zz4eHxFjbAO21uGntwLtHn80WPxBSsVGh8h3Ot5DgBOecgZEAZLkILK0tI3qEFD30+13qW60X0J+93+sw+j35VeuHoY7+5BECOE84A3eInVXELxzbpzRHSzUbSnWxM+ARCMxaxbMqcP5lA0eiTna992xZjnzTmyiKdElGG8hS7EZJ/EQUuB/DXtTULghVYW5A8sn9Ae09y8HbJthHwY+TrYHYzKtN7O/Bv4B2NXWvzxvN/tWYHMdfm4zYqYvwWosHQOrKIZWM7iU+s8qPpkW0BlBonL0/82oMtR1LlnGbhYBRzfw5SgKlqaxEp5sH8hQ97I9hXfPIr8bam+0rMaMc5MuZoXGFgi9n8bLhjdVHSH4SyNOi3VaijXhP9UEBtOAmXU4n12YbSZnX3k6BpYznkZM4QYzfh/4EpOzcbsE9v/A3ibTHXNW/5IFN11ckx/U3r8Cw3ZWFD8JvBUYpPYbcSJZ1fk3qhK+YJGRvAUfIgJxR90CEJgNYutir/HUSKqprvuBh/J6jIIlaUxbt81+on9ZpEAAdDaNv9H09BCS+U+2DEsEggod5Hf/R2pwaUhCOXoCLDfJSl3LKNtugd4CPM9bJFd+R4SXS4FS5+TPgtQq7GmlPil4dyO25vEbVPvAStr7fwniYcP+wrA3kW00Ldfgx40Cyw1eY/Axg6G2gdoPzDv6V1KskKazWn5q2Msx/hnYWKMftw74uGGvDoSL0mLFnkk9k0kbSJIwnqpi9anrIKFZkoi0+KO2kQIQjIg9BKzO8WGeLGnBEz1vZVCxdJamRnXjY0Gngth+cs8Th2LoeOCInB7/JrDrzIx5a1f4zeUm+S2U0KRpiwR/SH4zxB2opgn+hBjnocmfBanBTxSgaWSzIJNtTKadsvyuOWnvXw5RoxTsR2a8EngXcA2wewL++h3ASsPeYma/LxUuVqyU2ydxP8TcNSuZd9lPIOqBGPmQmb0U7N+qAcP+Lj1LgfvJ6o+8BPFxoUfm9P+Sef0X5XYoOXfGdBNsqdMBdAREDP7cbyxlEoVxsnS8eV24fxBwMoDN73tc5Ks9m7JPngIXY7rgeUEiKf/2u6XU1YMkqul3Z+f0+G824158+4ebZEPdPVRsPIBeBxzpLZJLZ0h6EUHsPqRzUn/whGcmqY79W1WfAGSnKb+pK38dhFS/1G/t7ts4+7B5Xx5+aNMPJJ0FvIRsHfERZEvYni6SisA2skJ3VwC/MOzGQtT248JyNq6u+zmWh7t6rzez1Uj/KqMH0VcdlCwA9qZC3jiwHrgZ7JeGLo7R7hVKO3I44/F/7wdjbHQc6heAzAxJQL72oqF0DFxCqbsP4FpBCejI4WG2Cp0WFH4xvDD99Rzf5iU9yIRlz7KOKXJJXhBjnDU6nd+qIi4gxrQYFM7I8bFfloSwK8boN5abNKXFzwMCBRVPFrzKWyS3isCbFO1nowsWlHi0gQOQ6pRKU/XXZNtmZuVG2XM7p3859Gf3aqn7/J9H41dBcR7GcRKnAEeDDq0GI9PIvoTuBraTrQ2/B7gF4x6LDAOxfU2+ptirtUYqw6decJtV7Da12n8AhwMnG5yg7KvIvOr5NZFl0dpNNpy5H+N24DbD1p150IrRyzaex8LBixvmzg4xJc1mH4brNUicMTuwZch3ojecaCDuRloDnJfTozwjjZUWHlPnJkSREpuDdA5Tp8rxCYhn8bglcdWiuwcBp+b0uLcZdpWZ0T7gy6/c5LHQTGqjoaAWn/3IvzOBFxHCt4Y7e2gbnJxU3bXKzd5UpxfPLllus8Y8pfb+X0G2xGgDsKF0xquusGAwvrOIUQSSkL3wKhasnM4ZqiQ7ZtNxwyUNcX5tN/9yzz/uBu4A7tiypDeLWY2iGUWDAEoNqySmccDmPm6WYyEXN9R1DXGENBQBdtdpJNZ0zx0bae+Y44/Y/HrCrmGCplDYUbH06hwHICeADkHc91snJA4FuqfQNZoHOkuwerizl1/XGJIAO478FlW707Db5anw3GQ/1JRQIDlB8GpvjdxrRnqDxfi/SNsm64dOtQCkAlNjpWv7DT/Y849larNRve7mrl4B2TKyMepXP6Sm5qy9Zs9SmrHquU72Tq+m6bNnKdsWXEsGsAu0E7cvz63/kxUvsJWKzQXsCtAO6pNZ8OkcgjhZ6L7fDDyEYd3Awik1noJzotlXpOxZNbR4GSEEYkyfDczI6XFffes91w2dcsyZfpe5SVPq7CEkBSxNX4zPfjSKM5DOACZtQ21tBkNmhToFIOMxWLTgu+1c3liFya3/sicsaKZJWM3LoRsQ1wPfIduzMLIXv0Yb6INBZS/P6Zn+2gWsALvi8UXi2gaurxZF5xb47RmGHGkBnZ4kYqizl+HOHio7d0roBdRnGW4tdUkctufNphBIK5VmobxWdR41uOzUY59D+4BXP3eT+N4JIk0rbcCLmTrLMCPZCo49hYV3kq1amSpmAheUbTQMdU9OdfSazICY1KQ6BSBZJ/HpZpe3J7Iq1aIgk60YUM1nQNoHVjLc1Zti9mnQSsOebvNxBA6V9AlgfgNcwSvM7F9qEDCNCm4OYnN8gux9ikZ5pLKpOKN4FbA4jw0jOKNSSadJ2g2iMH36PLI1xVPNoaDTlO29A4GkheR3/8cDmA365zg3+c8EAXYa+a2Ns7e2ArcBNxh2C6ZHwHYjIqYWxDzBMcCzq+d6CJO/ymEin+U9RZoXYkxK0dIaLcGyAk9Wtam20iiz4Pe/y1XwAWRf0OsRgITJWvlVTTgwAtzwdH+21NULcGz1zzeC9THqVyEQ2wcmL/ta25oVDHf3mWFXCf1R7Z7Z++Vk0OHAHZbtiThFcNwUvJOLguePlHf/T6mrx4SwLKPfoTl97FyXEh8J+BvRTZ5SZw9WLodQLL6YfC4b3avnvcGPZfY9gzWpxa1SYN7jnv0bupcxwwqMEZsFx5p0vuAPqh8lGjH3/XFI5wi+1cABiOq1F6MYTME33Lm8fVbASKjTvijLKlL7dWjY+NUAbiSrpXNUDg/xIKRTBHcEidQ4u4EHHk/n7JZi6wJgg0LAYjwTaM7hcVbALi2okJqN+k3kJvF9F1AhHAKc24BHP2LY94EvROKgUKXjKZYvHvSb+mNjm7p7by2T3tpM+G5AbwT+lGxGpJEUgPMqafyvoc7etGOwtpnzavJpRGbjdQpAkix3jE86u9wFIU3U54tIOZKa3xONHIEIy6bE+3P80jpTSkhjOn2KVD9/MkdTLa4Y03SGsqUXebQBuNGItA9c6veQmxSlrnOyBb9iUfVeaSTDBh/E7B3ATUk5PmXw8Xjz+1ewsP8iZPZIjJVPGvbaHD+zn2KowhlJooMnozB6bX6EVK5TAFJUlPJcCd0dsArUYW2ooBLGA35PNK5QiQRp3OBi6rOMb2/62elprMxAOpL87omYCDNALwwIslTDx+f0OPst8oB57UE3iUxNJNlr7tlAawMd+ibD3h+JXzRpV3v/Ctpu3reU/+0DK0kIMQZdbtgbgFUNdhkPA508GasmarUHZLz2aT+fUJNQmAofe4dPeymmiKXlJhlFYQVlu5grMdh4oWV3OR1vouPGixvy/G4+5rkc2T6LsUoaEtRsZgWDBJQKKoIxg9g2sJwpoi4BCDC2bbhs8xc04xrT3JtXMtzdB9gNoBJZ4c68OV7SYcDpNEZSgf0Jtp6TWmyRwil5PVfDrkhCGEkt9RvITd69YVAhnS7prAY67JLBe1NL/zsQYscEFOycO7iSzd29yHSrYW+T9CWgr0HaY7rgdEkrSl29NS1gWqs9IPWaAZlpUqERv/WWus8nmhWCWIBxPHH0VMHRQociZoJaLVtftjsxbbeRaesCume4u+9mM+4iUkKk7YP5HLBvXLSUiqVqKjZPD3Ck4JRyJZ4Q0JEGHUjT9JhK6AabgfuHu/puN7gF7KHRsHt30ZqZ3984HxSGF/fs2QNSrzoB4886aTrbSg1Zn9PtGVBaBHQn4lbghTk8xHbgDGXHlkzxy7FY2Z6X08hnquFh4KqIMbfs6XfdZEYgAuww4MQGOeKKwecqMf1eUIgdE5iuel5/NnAf7u570LC/FjoSOKFB2uWMNMZm1bg+24QHIDGLO8YDGgemTepLGmYhKzbKBMiW7j6mNzexY3RsnrDnJuIlwJmIw0BPM2BV9ZTZLvEACVcCvyh1915XjGHr1jDG4f31r5I+3NWLYUUpnFi0Qq9Bn7KH0/y9GqiIsmAj6JZWm/Yr0EXDXb13CaVzG2B2JAYoEIjE9jodwsjuHeB7QBr+zU5SCDtjalfmNAApCHqZWtXPn8xcsnPNa6rh2zDdCZDc4neOm8ynFBgsokFmQQ1+Zti/JiFUOvpr86XfokFRayy1vxP6D2BOAzTNCYKDgAcbKgCprjUfRYxMdkMLWmX5X3dY6uwjNEWszME7x8ZfKen1ZDdtyz7c77PJ6gMsBt4sdEM5xK9Pt+Ivhk97yTDpCG0Dq+pyjmY0GXa6pDcCL0IcpGe+DKlIlubyUFAP8DDSTwy+Nbykbw1Gpa0/x4GIxPSkmR2Vkbo8dAy2xXKchEKErpbaB1ZQ6u4DuEzwHvKZZaqPSf7oVCdB6M3kcykcBleEQthqZV9+5SbPcOfSLAOWxRNpjCKk6zH7RykMK5Zr9+weXMHmrl7M7MeFoOcC726AtpmPWACqaQBSgzXpBtgusgq/k63FxMw877ctdfdBsGmxEn4X8WPgM8AZ+xB8PJHpwDlCX5H0P8Ryrykplrp7J+38hhb3sGb6Ygh2TAh8UtJPQG9nYgr0BODw6g38U4yPGnbYtu4L2Ny9LJ/xh8HQ6E5Znb56CLZGGSF6ANL4DLBbgXtzeoBzyWdK2lo4BpiVw+PaDXZVTCNtNU6h6dxjxZBQieUEOLJBDvlnMXKTRaNtsLYfaecNrCCRKmb25Rw/vx9rmuCwWg+lJzwAsV8/BOsSgEyvvgTzF3h09VDqvgCMI4Q+K7iQLFNELfbhNANLge8KfQyYP9zdx4Xdtd0DVerugyQUDjv+4FcI/RjxHqCjRj/uEOADQj+oEM8PlSSUOvO3x0sWaUpUUH2mpM1gq5kRaviFx03WxYyMVXZvAq731nBP4h6DQV9y6Sb/XQeB0GpZcJ53JcO+HRJVOiZr36wZ6fj47cCPG6B9ipYVCm6sACSYIaxeAcgMYEHeiq4NdfXRWgjI4lkS3wXeVg2Wam0u8JdCFxp28isU2HTa0hoFH72AzQzwIeArZKk4a30hRLbx9etK7D0KTBvuzlcQYojqfp56LNcYA7YBzFl7mb8hG1zHwEW0FKabwSWAR5TuiVxvadzo8YerSxACcwULGuBQrzKz1WaTd6O0D64kaW42ywKQLfm/ljp07iFzGOqs3QqaiZ8BCSLNctbvqEObFYQOCspPADK0uJfRrSkjFZYhLgTOYnIjpAR4kdA3osWzsCJbu3omOPjoAzRH6O+BDwJtk9zMC5A+AfwtMDNXQUjWF+fULQAxtvtgZOrIqqJbP/CIt4Z7nLLBpSFJYuLbP1w93nXS/Dq8/5/xY9RgVRLCbktt8n+y2S3A2ga4okeVHhlureVweuL3gBgQSQWl+rygOTzkZAZkqKuXJBGtc8J5El+mvinYTgO+klg8IwYx1DkxQchwVx8yZgn+HvhT6rf5rAX4C+BvDJs2mftenv6hzBzqswdkBNkW+Qb0KRWCYPYQcKO3hXucdRg3YDBnre//cJP8qst+zSOfe6MeaxtYfzSYt3Zy01SbjJlh1nbghga4pHNBNc0qW5NN6M2FphR4qE6NduR4WgmlrvoOQLct6kFBGJwh6fPAUTnoUCcLfQbjWSHsf5A23N0HohnxAeAPqX/+/yLwbtB7iBSGO+sfhFQfyocxOUvuHm87MOzhx1SKP1KkZNzgKm8M97jQtD+SrjN8+sPVTRv5rwP0KPCg1WFpQEf/SnbaDgxbTc6X0RpMRyQ00gxIiBXKsYzBw3Ua8B0ZpDl1DT4WLyNNAoocAnwKOClH/eo5oI8TmTO8H0HacHcvlj1nXgO8szr4z4MWwV8o6CUqJAx39tTtQEqLzgGEoWOpT3agDWbs9CVYU0f7wMXZMiyzq4BN3iLuMS5LVBivyXdF5/Zu0DqL/HfATcCWeq6TUZYJa1eeG0nQHKBQy4s54X/33DWXPDbKHKtDux2OaK/nKqxUAZk1If4KeEEO+9YrCHp7oRi1ZUnvvndP0i7gw1C3Kt9Ppg34qMV4PKF+z0JLmhivjAfB8XU6hPVgI3lOS+32oV9ZxLB7gNu8NdxvBlV2rWF0DPjyK1efEauMaeQtC9D/tTFGxur1Yc6yT0hbyFYo5FkTRkst2ynUqB8Cth4YqUOjzaqmuq3LFRvq7kMBLHAe8Pqc3oxF4F2VSrLE9mF0Wurqw4xpgvcBR+f05jkVeFeMVqzXcjwhCkmhhTotvzPYEJKk7BtSp9p7XiShsB243FvDVd1sxl2YT3e6OjFADVGAcIdVotVtZYAJTKPkfAYEKJpotYbahM6eTC1sBnbWodGmIz3LgOHOyS9OF7Kznwt6L/nOBnEY8M6Y0vxM6meUOrMAC3E+8NKc30CvDUHnILGlHpmxZEh0UL/CTOuIxtw1/kV0KklGbiNaxOCaBniJuUkZ+9lVxdC00/d/uHo/nhrgGCsxRqvfp2EDrAKMN8C1LNTyB4TatS/DwLo6NJoE3ZVYDqbJXX6zedHL9hxCH/C8BrgRXxISO1MBhvcyNa+CQbSZgrdSn43Vz8Rc4C2YtcQ6fBlU9r9jgYPrcO5l4D5/H049c+5Ytyed4yBwl7fIAW+H0BWplekYWOWt4epDgNVl2f0z1ZoUknqvTKn54H4CpNVfjRWAyFKwynbgwTo13OKCCnMmvUeFEYjMAN5AlhY279pAr4sWC3s/PBcmvaBBAiyAZZKerTrUhhHCYBH12SOzDbMHzZdkTElGpGLjQzRGOkdXW3eZ2c1+r7s6P5RA7K7+U54Pcy6JkvrujVQzMC3nVzRilKlhQ9UkAGkbXEWSNKVWv69zRyOOZBIHnaXupVlrBjqBZzfQY2NpIByzN12h1N1LtJgIXkb+Np4/RZDFi3eOVjSZe0FKXT2ksZwIuut03huQF6ubqjoGLqIYmqPBpUDFW+SAHvddOzpWGfL4w+WgL+7MewAiOCjA9Lrtl/pNbbC810sZFxqt5Si6ZmuUsiUvdhvUZVHqHNDiSQ1wrYCyzRF9ZEt/GsXhiBdKxnDXBU9z44qgcCT5zOz1lEHW9JbCgskMSJGQkg6yGZB6vAgeiGZbPQPWFH7ZZ8uwBqhTynOXC2Ngl7S0FO2hQW8MV/fB/U4g5vwwFwIH1ytRUfWnHkX+P+LuiGJ3w21CzwZABsY6YEcdGi4RnFlJy6HUNTl1IAJg0WYCZzfYMyMAz09TFWzvnhuLgcMb7ByPFZw0mY+b6v6PE6lTBizBPfMGVo7hpnYQgj2AV0U/kD0A9IPRjSebcHWX+yVYwDyk4+qxLHuoexkhq+13KvWpDfZMbMesUsuZotru0hYPA0N1arwlIRTaJisLrmUlrw+nfjUf9sfiEJj/VH9gW1ffnqY8Axoi1d5jzQBOn7yHTA+BAOIs6jPNGg27bbi7jyTipmzwkRKUjANXNsBL39XGajN7xK++q//zCAy2UZ/yC89Ek+D5c6fNY7I+UP96SGyB1Cqtkzke2Q+PGHHU1IABSLY6gE3ArXVqvOMknYrEtlMmqZOZHUtjLb/aYyHYoTxFR4tZkaEW4OQGfT6eEqLClq7zJ+EhA6lVWqjfbNh24BYD5g76V9GpqmNgVbWolV0NlLxFDjipwaUhhIrv/3D1j0AMzDY1yLPonOFdmw6a9DJt2f6PE4ElDRBQ3pcoqYRG24SeKROUjBr016n9ZgJnB0SlqbadrNS5Z++EjqQxsl893nRJhz3Vmkgzw8xmAoc26OPxsBjiDNMkTAlke4GOpk77P4CHMR7womQT+jBuisGUuz010cC4B7jlAL00FfL/xbVWNoJdb2Z0+IcGV28Ck20C1jfA0Z4kaelkLsMa6u5lF2MCvQo4KO8fN4D7AdoGavdsqVkA0jFwCdW9SDcBo3W6H5amxNk1H4aFlKKKIBY26KOjuJeBxUxgXoOe4wKM6bVeqrBl8TIkIel5ULf+cJthQ74qZ2KD9KAYZPkq9GaCQki2ky3DOhDdZvDLA/Tc15jZveb3ucvDs8jAIiNk+5Lyrhl4sxltw12TU6RYiOk0Hyd4VQO0z6iwmtcRC7XtkAZm91G/KblFglNqne3AgJ1xLFQH6I36+HjqY5dAmk7j7f/49QASqanWmbAsBCyNLUBvre+vp3BDEpJyHUu9TjmCGYmpSbk7rjFSi4BdQZaB5sAa9GCrgO8CB2LChStCSHYH3+flcvEsMgpJsdIgAQjAcxGvagpFhmq8F6TUtQyL5SB4PfCsBmibLWZsqHVtoRpvQjcQj1KdyqmDuaDzEoWadjAZFLOR7bQGfnzszbG3kFXwbERFJiHrRDUZwbFkm/XrYadha6IZxRQ3ceYZmmt1iymfWPvAZdkuEOPmOj5n62UEuATj2gYa9EzcAAG7wsxoG1zpd6eru+m7NmGWYnAHjVGbqEnw/jEbPzMosP6082oTfHQuQ6GAQmEZ8LYGuZwPMAlL6Wo8AyLaVi/fbnVMEynoSWM6VzUeOFSnwRu5INjeHHtK467ridS4Js1Q51lICZJeCBxSp/Nch3EHGLPX+rrwCbRwsoub7n3PNqycbgauPsCuyX0Ya7ZvH30UuOYAO/e7DO705VcuL1ruGqz2RhukcZJiHC30CcMWNsVCjUbZgWjxSKGPAAsapF1W/+y+a7fX+ulS01F5WqywZcn5kFXrrddGwcWIM2u9GqWcjkZgV6M+PGzvjn13AwdZY2Y2VsspRWkWFiuzgN+B+qx/MhiIxI3mG9An2iyhc1QIDHf25urA2gdXEpoK0bDLObCqol9n0dbPnt3CgVYR3rAr2g/+Ssn3eblc9UuLmPEgcFcDHfY5Qh/HaC91n8/6E46dkL9046Iehrt7wThI6B+AZzdIe5QNbnzJMc8hNPISrAU3XLwnIl4LPFqnxpwh9HKLlpRqttnIaC1MNxo3FWbU09RriQbR2EnjrjPfihirVViw8fRs8zkKp1G/5VcmuCpRUu4Y8GUZNfByK8dD8zgLUv0SfiOw7gC5FuMGF4UkpNV3zPUcOBXhR4Artqz/Qzr6/T53+SHEzGLT9jpmP923w4Y3IP07Fg9vbj2WR04/d7/+wk3dSykUAhGORPqi4DXQMJsyN4INQO2Xd9Z8QbNhRLP1Bqvr2KBLFTiWGhVUaR9YuWcA8CA1XuZTq5c5xoN78TFtRx0Dyf31CKYd1CiPaqEcKFfGBbwUmF2nc9xs2HW+LKNmFiPeFbGmUle+ZkEwMLN1wOABci0ewuyGaqITzHiAA6ci/P0YAz7L6fL3ISRlV6W854NAI81IJoJXS7rQZEtadqHhxfu2b3jz4l7KIwiz7oC+Ingl5Gzz4FO7w4yHJuPxUvNG6ehfQaIwDlxRxwY9UuhFBLHjpJqmXLufbJlSoykhHnnK+FyGke6gcTd73hdCMmq1ig8DFJLiswTn1/fBYff5sozaPS8FfyLpnWAzhvchCNm0qJeNJ/cy1NXbVurqO2e4u+8PS129i0rPfilbF+17ogzFiEIybnAxB0YHuDZGW2cG7QMrCNI4B8i5G1xbSW199OxXLmc6BlZVs5+yGnikAU/hPKEf0NL0FzHRwY90L2Woe++e80OLl/Lws04hBA5paU3eK+n7wNIGfL5cWkjCzkq59j+rMEknBHAd2TKfjjq0qYDfJ7XvjDezoYY/5x6yJRAnNVifu8fsqZcvdPSvYEt3X6zOZL2+wc4vBW4yS+kYuGjC//Kh7mUU1UyZ8VdQ3xR7VzdNa9lW3t0wGUmtAQeMMwWfQGGJwZdK3b39I2Pl3U3Nweb3r/q/AUf3UnYlJWZW5hUltYGOpcALBBcApwKzJF1i46OvShNt2deDaltzEcPdfRh2PahUp+fsZKkYrEqSUEnL1QVY2W/XSmwk/0W+9uvcwS4vFkKM5mnuXE4f7Gb3S7qiAccKAEcKPin02lYKPzBjRamr955yTHc0N4X4wH2jdJWy7+ml03oYH48qJmGm0DGtMw/tEbwaWDxZ4+sJthFsRRqNg26pfRKbwiT1RoDbkVaT1Ueoh8WIXqFvbu7uZV5/DRrX2IhY04AByA2zZqQ7tu9M9uIyciNiKzCngc5vsxlrahfdBso2doiyCqf1st3g4srIOO0DjZD9SnsCw0bcONwCvDab7dLqac1N/Ri3lbp7t8rYQZYAsCX7c1owO11wMOJZwMnAEcAsfns98PEmtQNb9uvxk92gdyJuAV44hcc3j4Bdb8C8m1c8JpblblA/WXA3Va0HbjCsJh9TnNtf7QMrGO7uKwM/I9v70Ii1wxKgC+iUeA/o7qakMGAp9x1++LTS8OF9YwbNRGtvLhSOJPuYdBJZoeaGLcBlcI2Z3apJOoVJCUBkFUiadpvZCtUvACmC3hixn2o/X/RPMaaqABeRRcCNEv3uNLh4x64EQvNejBm5DVgLPL+B7qubDLunFnuHtz5rKVEC44LqV496uRWzgcaZTtiTtlplGtdcsin2pYiKUIqyVNXKlreG7LnztEtdAxO0HDZJkh0xxmumcgBicEMk3v/Yl6SiQSEZMbOLNbUDkNVmPOglRl3eb1KDKyVuAzob+ExUDSrmAc8BTCKSJe4JoGQKXbUK2M+CklGz0Un5gZOyMaZt8OLq1zm7DNhUx550llBfQGzsntjChG39y/csKLmcxioItha40YD21f/71M8UA2WzH79soPNLs5tKu2MNFk3HGQWINg94Q52DzlUhKQwnDbIqwwQmysD4FHl4F8gKXU4DpgOt1f97b56xExI3FsoV0hgxuIQsYcRUFMEuSij8Vr9pW7MSyyrCX0PjZiPcm45yWZBGm8Z8n5fLcz812n7+/Q3AVCtGJbLZkSKNW5T5ydyLcZkRaR+4dOoEIHveG4bdQX2zYbUI3h6xtqQWU0wyjPgA8NNGeZkb/CBgw2vXP/291D6wnBgNM/tpAwVZt4NWgDFvcGKXLAx19hISAXo5cGYdz3GLYStjTIlqqIFJBWjkGZBcmX3Lnj3Yditw3xQ9zfXANUb8PyloqxuKbgNumaLnXqKa5W7mbZ5+1+VX+8AKhl/yagz+lzp+dHbP6OPGD+Lu8gOaxOQWYRJPjoRkBPg5WVXqenmO4IKA9jq7wd5q61+BCBHjv2iMnPS3gf0oAues/8XeRSwS5VR3AD9ojHuK7wTTg7UYlksiTe1gxFurX0TqZa0Zt4DRtqYxBiaKhqKN0ZhZ43Lc441KOraRLOnHVDSIcd8TzRnJoKBkO3DZFD33WzHu8CR3rjEGtEbEbrJszOfy7V7MvhOmFa1tcPImrSYtAOnoX5nNgcAqsnoZ9dIs9IdmNr82H4sNiGuAb+e8w5XB/qNZMx58JvHgvP7lFAtmhl0I3JnzcxwAvhNltE9w0oHNS3ppsgDilUB3nR/0P09U2GqNtJ9bEGUjBpv92T9x2gdWUkxazLK051NxduliBY0klSc69xWkFjG4nKm5BO2KpKmwzXu5a4wABEK2x+9C/Dmf92v1P3E0vX2yP25MbnGUGLE0vZcsX3s9nSXptUnSRKlrgveCDKzAUDSzL1Hf5WZP/yI3/Vc57qK9/5ktTYoGMxPdYdi/5niQMwJ8VhYeNE38xohgMK70WMEfU9+9Hw8Cv4hU6Oi/mMYhdgyPpaKmabEP2Bc/WVG+R6bYqW0y7DIzY87NT/JBIStMuBa4Y4qd+y4zuzItpw2S5c4d6Ob1r8g+x2I3WJYRy+XTvZj9V2hJrH1wcp8tkxqAtA+uREmSGvwI2FnHBi8Af5TG8eOoQWokmZB4EPh7apVxa/88ZNg/RDHMPgzO5w2sYEdqAN8CfpjTm+rbGD8yIu2rJ3rvRx+xQiLp7WSpVevpshjTu7HGqkpmGG0dMwA2+vN/okWw+BDQP8VOrB/jrqf8ShdTCk3NpeosyFRyl8Ear37uGklH/3KfBcn9u5j/Tscnf/Zj0gOQ7GwNzK4ny75UTyeA/siiJaWuCd4LMricLFmC/QL4LPnK9LPLzD4RkplXCjG3f98G5+39KxDaZmYfAwZzdk9dbdgnELvaBpZP6F9cWnQeChAKnEn9iyztNvhhCIVKodxYA5MkVvYsl3kEL90+wY9YQ0rGptog3OCSJAm7nmoM3r5mFZXyOGBXkM2CTpVzv2Ys7tzUmGVz3IE9wDWixeuB73pr5M4g2IWhuTDpsx91CUAMIwmFYcN+XO+Bh+ANCjoXQamrb2KDkP7lEFUm8i/V6D8Pn6jHgc8S7VuxvIO2/l/t37WMhoJux3g3cHdObqibgfdKerAWXwutUMCIs4T+Aji43g8PM7vWzJh9y6qGeurNXXPJnha9B9ju74GJ0zFwUbbbzriGqfPVcRjsqjRGOp72RWmQzf5MlUxgZeCK1mSmdQxc7B3cNdbzqH8FQaFi2Bep/4dn9xu7Dfs00n2hTjOrkx6AdAysJMYUGT8B7q33vSH012aaV4vmbxtcjomdZvZhzL5DVvm5XsaAL2D2SUIYnYhot31wBeUIc4vxSoM/y8H1vA14ZxLijWlkwtdKD3f2opYiQr8PnF/nc40G/5OEMJQ2bCUNozpI9Kn5CW9Zw2R3M3X2QtxiZrft1UcFgxhtPXD1FDn3hzDr9+VXrmEj6FAhIbkb7F+AUW+RXLx9f2TGj4lGW532lYW6nLhFRtORe6s5ouvtBUG8vRzLGuqa+CLtiUGUbYrwnuoXgHrcfDuBfwQ+grSzfQKXJS0YWM6WMhSS1l9hvI365eBfDby1GMIV5VTMm+ClVwAWgNHyKULvBVrq3G/vBPtZtMiCWxtzU2q2GtOGcxC4TjmFynoSFbYxRZZhGXZpITRtC3uxdTAZvY0khEiWcXG88c+d1RF7yHylomtQB920ipSUmKXv/4m3SN3dB/YvknbVM6lFXQKQ9sGVNBemGfDfZIWl6ikB/rQpKT431GBD+pzB5czrX0kQJRkfAv6Gyc38cz/Gn5rZJ8xsZ1v/xA/M2wZWkqYjBMJlZrwe4+dM3mxPBfgf4HWp4nXEQEcNbqih7h7MbHp16dXxORiQ/WDL1ofvp4G/ikqjFFTcbT4tP+HSMIdoKQZX0vi1VrYBl6RWwfai+PCc29dVixLaTcC6Bj/3CHZZomRcjHnHdg2rum90l5n9E/lZsn0g2m3wT2n7nAFifXcGhLr9ZDPM4hogD59vDxF81LCDS929NfkBbf0rCIFdSbDPAH9Aloq4lilsR4Afm9lrIP4n2FgtI922/uXMGfglyAbB3ozxMeDRWgdXBh8w7E8Mu2Pe6pXM7J/4mkdD3T1s2vYAkt4AvCYH/fURGT+cO/sw2gcatyJye//lRFIEV4GPria0bQevqJYGt7VT4GV/K8YtmNE+cOVeDttTLMaHgOsb/Nw3y3QtGO0Dl3vHdg0eTqeEUOg3+HD1w4Kb5JE3cGG0+M1Q2kL7YH3HD3ULQNoHVhAUysA3yUeq2heC3otRrFUQMmf1CsbLxSjsEjP7PeB9wBomNrXJOHAd2DtitDcKbmwbWGmTNVBt718BpiEif29mryAryFia4B+zCfgq8HJhnxbaMtGFBvfY0H0OIrBg9lFnCb0faM1BX/3fitktU2FJhmX/6wfu93fDBLetIhXSTWQ1QRrZFYXmpuFndO4WCFnK94up7967/bXGsLt9/4ebGh9GLiLGCmb2feCLDX5vNqJLjPjJII3ozvp/vAx1/elmWLTrgOU5uDAS/CHSy0INsmLtMW/Nz5nbvwIUhyra9XnMXgy8F7h0P74IGDAE/NKwPzSz39n4yPA3JHbUY3NR2+By2tYsj0jXR+NtBq8A/p3sS+y+BlvjwO3A54DfMeNPgTVt/SusFsvK9ijSBGbzhf4OOCIH/fRRg28kIaQdU6EgmYFF2zAFBsm509G/kqIK0eASGjd/6y6Dyyrj5WeUVKJjzQqyQbtdTwMXuzS4uhCSXb7/w02ZIGRgBYKKmf0Lvh9kMt1lZh+A8Eh7/wrad9X/gOpZwZm2gRUMd/eNAl8BeoG2OrfHbMHHo3GPxEBNb8Jq/Y1Npy19OA3pF5srzd8yo1PiucCzgeOAecC06nXas/g5JVu6tYusiNvtwHVky1hu/VrvQ7vectERnLjxxrqXeGvPAoOxUlfvFYauBjtc0lnA2UAncDgwG2iqnmOonl9KtiRnK/CgwYDgKsOuixYfFUo7JmFGp9TVC9FaFcIHgJ6cPER+lFasPwSmhObRUcZbWysGPxP8LtDs74kJ/cYDsBrxSE4C6GfqDsz27Vmcnft9ZM/yhQ147tvALq9YSkcDL7V07omCkFJ337BhHxQ6tDrmcbWz3rAPzJjJjdt35OegCvU+gOrU8tWSfkH9C7sBHA/6pJm9qdTdu75WS3v2mH/Tr+s3bN+66IIr0qbKFUpDs0GHxDxgIcYsZK0YZrAbtE3wiMFmk5VklH/9dbAf/orbc/ewqQYV9w91n38/0ndDjLMN65B0iME8sOmgJmBM1eDKsPWCEuWw3YJZ+5rJ++Jf6lxGLO9WaJr2ZuAPqfdsYeZhM75eKCitVKbGF9EZt1/OcFcfwi5FGvQX0YQ/YTF4QOimRgxADK7aPV7e3NpUfMb/rcrroWnhCNgq4MUNePHuwrjV+7Cbql9HJN2F8W7EV4FTvVFqM5wB/rqs+OMdO0NNMoQ2bABCTFFSGAe+BryI+s+CIFiG9LfR7C+Hunp3TdZSlzlrf7nnH8fIKkQ/Qv6qjO+Xjqz4oZHNbmwF7snbMW7u7qFgRSpNYanQB8lmofLgRzHGNSGI+WtXTJk+EWUUCEMp9iPBGdkt6CbkHa9IQmHcsKuAVzbY4Y9grJre3GRb1z3zgLvtlrWUug8BuEbZS7i9wc7/6rY39w5t/doK78huymkfWMFQZx9JYjfEqHdIfAU4wVtmQm3B+ECM8b+KCnWpdv5U6v5Vt33NKswMM7sW+GlO2kXAWyT9GVAsdfV6Nz5QPhV09RIQFVU6hf6Z/CzdeNDMvpEkStsHptaApKN/RZYhHvsxcKf3wols24uI2SzIlUx8Mohau9ew/mjG0Zv3sc9nxWZup/FSPY8aXLblGyuZu8YDEDdFn0+Dy4lRKIlXGfZOvCbURNoJfMRi+g2JNG/BRy4CkD2RMNK4Yf9KfvK2NwveH6TXl5WqVpmxXH5sOmkpEmAcKfQvwKKcHJoZXBjHRwYtTs3NqBFoscLdlu0H88woE917zO6BxlrOY3BNyviG/ekOJqMpFHZWA7BG8iDYgG8+d1Nd+8ByYprSVGy72LB3AHd5q+y3EsaHoqVfIqhc73S7uQ5AspeNMWLjq4Gv56h9ZgEfL5JcwLRZDC9e5t16CktaEgwWSPon4JwcHdoAZt8ITdMsrw+S/TWvfwVjpGD2bRq/dkO+BvISBYVtBlc00GGPga0qqDmyHwViO/pXUrYUsMuAHQ10/tdHi496+OEOBB0DFzNaLtFihZVm9ibgBm+VffaQYe+0aP8qwniea4XlJgDp6F/BNDUbZl8nq42RF4cIfZ7d23tpLuLLsaaeR05cxlB3L5atEf8kWdrg3AzEDPs3JeGhcjlO6etgFlEIm4BP40WqJtA4Kban4OOuBjno+7NA1OioZgzc935lkC3BuqNBzj01uDxRUmkZ9d7rDgzz+leyW+MUSK41szcCvwSfAnyGbjXsrWMq/09MLPfLtXOVzDNiBMIDlhWoGc/RoR0t9HmrpGdLgY3dPd7Np5CWFiGzWYKPCL0+Z/fFKjN+aDFy0C1TOxVn++BKLKZYTH+GF6maMB39l+wp+LgGuK9BDvu6aPHRCam/Z+O0tR5cAq5tkHNfj9m1hjHjNt//4Q6kIOQixm0EpDvM7G1kK2LK3jJ7MXyGi8zsDUkybVVTGm1ef/7HC7kKQDr6VxAxMH4A5K31jhP6NyOeUVSRzYuf611+CqjOaM1C+qjQH/Gbeit5MGRmn5W0tXKAjMXbB1ZCCGXDPks+CpROmdeTleOmBhmEp8CliZLKRGQglAWGRzZgsApohDmFtYY96Ps/3AEZhAxemtUQE+vN7L3A+4GHvWWe1HaDz5rFNwSF/tF0Gx2DlzXEgeeunFnbwHIk22pmnwLW5+zwFgl91azyvELzLF+O1cA2dfcw1NVLhDlIHxf6U6CYo0PMNp5bvAyLLOhfdcBcm2rtnSEzez++H2Ri2nRwBaGYxOo+kLxXRV9nZDMAE/JOWXPxno34/TRAlh3DLk2U7Pb4wx3Qz6zsPbCdmH7OsiK1l+BLsp7oY8XbzeyDhjbM7f8VB/Vf0jAHn8t6ypHIGCNXG/w72dRSnpwqdGGspL20dVDq9I3pjSggkM0L4p+E3pGz4APgRsy+GEKotB+AVZBDNFC41Yw/Bm7yHjsRA1sAu4H8f028jmgPTORQwzBS0g2W/82twxhXG+bVz50HIQMraBu8KAquNex1wD8DW7xl2G3wX2b2mtA083uyONbRgOn5cxmAdPRfRLNaDew/yGf6xGOF/p0tpZebQvCZkMZS6upDxqGB8BmhN5OHgpy/bYdh/0zQusoB+sFn7uBKLEYkBs14O3CN99z9HYVHzOxB8l3cNDW4iCSUFSfu21PHwEoKKqRkX1HzvJ7xDoM7ovmHXuf2aOtfjoz1xPg3Bq8BfkZjLKecaBXgWoO3mcU/CuiOEhtoH7yoIU8m5PbIDIQ2Ap8inwW0jhJ8KUhvNyh6nZD8W3fcUracdgFgJ0n6CvBa8rXnY0/X/w5mPyNGFvQfuF9BOwZXEMplLAmDhr0e+B75Xz6UW4oQQjJu+V7K8Ahm12JG25qLJvq+AriO/NSaeqJjvLy5WNgSvZc799tByMAK2gZXjsu4qDob8sdAPwdOspK7DftAJL5y9ljLd2OwXXMHlnPsdVc17AnlNgBpH1iBmREtriSfS7EA5gP/KOkDwIxhD0Jyq9S5lBmFccWYPg/pG0AfWcX7vBnA7NMijLb7Egzm3Hwxl98UwXSfmf0J8I/A0FSLDSblBb5mZbYXArseGM5pW/RH7P6abMA2wyw+BKzO6bnvArt8vJIy/2bPfuXcEwciyykTt8/l09+M2O8AHwbuzOkYcQK+SfCwwecMe6mNpZ9WausLt/6E+asvaviTC3k+uPaBFQilZvYF4OKcHuYswYeEPmdw+NBp57Nl0VJ/SuTIUFcvUaEptrS+VuibgtNzeqjDBh8NCndHRb9wVa9kOe0Dy0EMR7MPG/Z7ZFnypkJ6xjHL9rhMSt0TMwPjDuCWfL5t7ZJEyWgt4g/FlKBk3LJ3SR5ngB4AbvZ9ts49tYP6L0L9JyPjEYv2/wzrM3gf2bN0bAqcYlp9Rn/MsAsi6V+a2e0dt66y9jUXTZnrGHJ/FUJEaJNhHyO/myebgDcL/ZdiPHPu2lVs9tmQuru144UMd/cimJMofEjoX4Gjcnq40eA/UuwXFSId/T778X8+SPSvIEnTiilcbGa/D/wFMNCggcgW4JeGvRmLb4xJceOs7bfVvg0HVpAkYTv53FOzAbjSiDXZgN22ZhVGBOxaYFMOz//aNLWNvv3jiQLTKUX7+e/dY55n7YMrYip7YKR57DMRXgz8IdkHqm0N2HV2AVcZ9l4ze5GVKx8ljTfP67+oPBWTUuQ+AJm/+iLMIlbadRVZBoTxHD9Univ0X8PdfW+W0eyb0+un1LmMOT+4FDNOQvoy8AFgdo4PeRUWP5dAZV6/L794MnPXrqJj9a8gxuGRoaEvYHYB8KfVAfXunB/+KFlF7k8Z9tJIfI3U8l2zypb5N/6MpnsempSDSKNRnQXYkbP2ucmwu2pZ/yIryMjd5G8j/pjBqkIS0knOZtMQU63KvgjbU/yBCo2zBGc8m4p84kGEsvNojIGz5WP/xfzVKzn02ksZG2Ejwb4VsVca/I7B35PVPtqZ41bcDfQbfNqwV5jZS2375i8Qyw+13zy1Zjwer9AIB9k+uJJSdy9G/JoI3cAbcny4RwOfC1KXYZ8eXtL3YBiLzLnFv2hPlqGuXqLR1PLn579U0t8Bp+T8kO8z+DsUNkTfY713z4TqQ3lTx9INKZWvNNH8Q9DpgpcC5wBHAi11PsyUbK/F3WRftS4HBi2yARHr9UVL2dDmBsQvyDLK5OGL65DBhYHCbrORGp67kLSLrMLys4E5OenSl2BcbJPZB6KNkGgQOCv/41xux9j6RB21OpR/VOLm6r2f6+DDsOtDMVQsfYJ4yQTYfYh7gJNzfi7bDG7MU6i08PZf167duXlxzxXjZbuyuSV8VtAFWiY4G3gW0F7H8W8KbAUeBK427FcYqyM2JBQbMZ3ufnxYaBylrj6AIyW+TdaRcv7M5Ebgw2ZxlVClbcC/bNd0BLOoh8L0QGXUDpf0Z4K35GiA8WS2G/bOtt//s//c/F+fY/6g95F9fj509iBITGEhYrHgDLJfJ5AljGiidrO+kWyGYwh4CLg5eznbGuD+kMatCJubk69Zw119GLZQ0luAM8nq4NRlKGGwGex/MH4FVNpr/Jwc6uwFKCroRYLfA9rqdO4CKoYNAl9D3EvMlpXUvM1bYcuJfZjZUZLeBZxUvTdy9+Xd4D7M/l0hrJ276Vdo3ePHBb0QBGaLhP4AWJjTR1Rq2HWYfQdpW/sTzHQPdfdQTnfRlMx4rtDvVgfKebsmAkYxW2VmPwZG2wfz/YF185IeDFMSwyykIwSLDLoFi4BjgXlAMxOfFTOSrdoZBu62bF/HarCbMR5QtC2ItG3wwPxA3VAByObOXgqJiMbzBP8JHNEI4yLg64Z9vmDJuh0a49D+i3ETPfjsBawJhfMRH6huNM/7EsOKYf9kMX5E0rhnvZo4G7qXsVMV5lhTq+BQ0LHAMcq+fh1dHaTMAKZXf7WQfRHT456Ne17+KdnmxlFghGxKfwh4xLK9afdidncWfNgmi7YdmXUM5reC/cauPjBUCCSq07vAgIql6da7t8SWmc0csf7qyXmXLO5jfBxaWkik+j0nImYVYiqwBf2TG5w+ePDZzDxiFpWRigpJkuRxPGCYVbAoiPOfZl/c5sV9e+7bnI5rDLNKBDF/7aqGPhezaGm6zZJk5tOeSx5t6lxGtKhiKLSCDkEcARyu7L1wZHVsuQCYVQ1MmqsfsJLHjCvSaoBRfsy7YSfZ/rKHDe4HexhjHfCQwbpyWt5ZaEps3k1Td1nVlA1A9nztaJ0+g5HdO98k9HlgZgMc9p7ZkE9F7Jeg0Y7+5d77JijwsDRKhXAc0juULc+b0yCH/71qatnhdp8dq/1Lp7uHqKhCTJolNYPNBGaD5gDTlb1gmoAiRguQIsaBsmFjwC6MncBOwbYIO81sbNdopRxMHH6nf1hwzrlGtXXRBZSTSiJCs8Q0sDmYpgHTEC0GBbDqLIkqwlJMY2AjiJ0Y2wx2W4xjt9+/q3LYvFaOutffC1MmAPn1oBOaQ9BHyFKvFRrk0Lcb/ERmnzWLayWlbf7Ve58MLepBzQGrWIek3xW8Czi+gfr0asP+wODODt907pxzzrkDSGjEg24fXIECY9Hip4D/bqBDnyV4A9JPCcmHTTryvy/8T7Z09nhP3EubO1/A0JLzocA0KvYySf8t+CzZOv9GCT7uw+zPhe70ch/OOeecO9A0bL5po8hw93lgLJS4EGi0UXwEbgO+gvH9ZKC8Pl1UoG2tfw1/MqXuXqLREuBspLcLLqAxluD9Vgxl2DvitBk/CDt30D7oM2DOOeec8wCkcQakXX17ckqeIvR14LQGPI0KsAb4OsaPxq28ISGxeT4wBWBD97m0ptMph7FWSWeC3iY4H5jbgKez07C/Klv8j4SQzvN9H84555zzAKTxDHWdh9QMpGcLfRM4pkFPpUKWuvMHYD8kcjcQ2w/QtKybFvcya7qxc7fmKPBC0OuV5Xif26CnNA580mL8B2DMZz6cc8455wFIA9u8uJdZcwrs3JH2Cr5ElkatUUWyOgI/NvghZoMUw67WdSNMW3/ZlO+QQ529mFkSgg5D6gF+r1rPYXoDn1bF4Atm8e8k7Wz3TefOOeec8wBkCgQhS3roePhUhhfe+grBvwIHTYHT2gJcA/zIzC6JZg8TVJk3xQawQ519WNlQs80WOg30UmV7eo6hcTKcPZnU4GsYf4XY1u7pl51zzjnnAcjUUersJVZSJU2F1wL/Qlb9eCqoAA8YXIWxAuxaYnw4SOncBl3Ks7nzBYyNbKJl2uGzBCchnVsNOrrIiv9MBdGwb0fsfUKbPd2uc84559wUC0Ag25huRgiBNwL/BLRPsVMcBx4ArgYuxWwgwv3jSWVXQmBBjitsDnX1AlYUmo84EfRcwQuARWR7O6ZSf4yGfTfCnws2VULKQTetwjnnnHPOA5Ap6DFByB9Ug5AFU/T6pcAm4GbgGsMGQHfJ7JE02k4J66jTDMnmxcsYHzeaWtQUCPMQx4BOFTybLFvZ4TT2vo6nvC6Gfcfgr4ANPvPhnHPOOTfFAxCoVkuPhJDodxH/Ahx8AFzPcWAzcB9Zat87zOxepPsxK5mxfVrU+Fgw5k5Qdq0/6i7yudjLLkYSUzJd0lxgIXCM4BhDpwhOAg4FZkzlPldVMexbEftrX3blnHPOOXcABSAApa5ezCyEEH6HbE/IUQfY9Y3AKLAVeBTYCDyy55dBCWwHxk5gh2AEVAGrIFUMTFiCUQCKJorADEwzkc0AZgstNDhcWYA3vxp8dJDNbhQOsPYeN/g3M/uopK3j45GDb/F0u84555xzB0wAAlmK3rlzimzbXumR+CLwLL/sv5ZWA5Sx6u/l6v8vVn83IAFC9fcEaAZaqr83HQh9aC/tNvicWfx/Ejva+z3wcM4555w7IAMQgC2dPQy3zWTO1p3PFvoscKZfejeBhg0+QYz/Dho5UItHOuecc855APIYpa4+JMNMx0t8GrgA/3rv9t/Dhn0wlX1XRmWez3w455xzznkA8ljD3b2YcRDSJwSvB4reDdw+usXM/jK1yopEibUPePDhnHPOOecByBModfUBNkvSe4A/B2Z7V3DPQDRYZdj7VQyDNpLSsdaDD+ecc845D0CewnBXLyYrgl4p9HHgWO8Obi+MGnYhxseRNiTDo8x54DJvFeecc845D0CeXqmrl7Yjj2f4gbvOkPgk8EJ8X4h7chuAT0biV0G7vMaHc84555wHIM/Y5u4eEgKGLRT6W+B1TN0K3W7fGHCjYX9rkVUSsX3Agw/nnHPOOQ9A9sNQdx8yawX9rsSH8HohLrPL4Ltg/0DQ/VQMT7PrnHPOObfvgjdBpqN/OUZl5C0Dy79p2GuAn5IV5nMHrnsNe5dZ+mfA/YyPefDhnHPOObeffAbkCQx39WHYXKQ/FrwLONhb5YAyDqww7GOVtLI6UWIdg57lyjnnnHPOA5AaKnX1YRAkzhJ8AFgGNHnLTHn3GXwes2+BtrQPLPcWcc4555zzAGTyDHX3IWyO0JuA9wBHeKtMSbsM+wHwGauU15IE6xhY5a3inHPOOecByOTb3N1LJKpAWCz0PuClwAxvmSkhBW427F8w+6HQ7jbPcOWcc8455wFIHgx19wE2LaA+4L3AmUDBW6ZhPWTYN2V8dWxLfKhplmj3iubOOeeccx6A5MmGk3spThOkNh/0+4I/AY7ztmwo24EfG/aFaOUBkcSOgYu8VZxzzjnnPADJr6HuZUQqKljTsUhvBP4AONJbJtd2GlwK9mUzuySgkd2FMofeeIm3jHPOOeecByCNYbizB8yChXAy0tsFr8LT9ubNiMEVmH0ZWGWJdmgspf1mn/VwzjnnnPMApEFtXtKLQZKYOoG3CF4GHOItU1e7gevM7Ktgv1LQ1vExcdAtnlrXOeecc84DkCliqLsPw4oBThb6XbIZkaOBxFtn0mypLrX6tozLJLZEE17TwznnnHPOA5Apa7izN1ualehw0CsErwVOAZq9dWrCgIeBXxl810hvkIq7KyPrWHDbzd46zjnnnHMegBwYNnX3MdycMm8sLJDpPMSrgLOB+d46E2IEuBn4iWE/I9qdiHL7gKfTdc4555zzAOQAtrl7GdMrrYwkY62IE4VeAryIbFak1VvoGUmB9cBlGD802dUaLQ9ZsWDtazzwcM4555zzAMT9luHFvShGpcXQIfQcQS/wfOBYfInWk4nAZuAGYIWZXWbY3VIynpZLzL/5Bm8h55xzzjkPQNzTKXX3YWZB0kHKKqtfQLZE60ig5QBvnhTYBAwadhHGpcAdMwqF0eHduzn41ku9AznnnHPOeQDi9jkY6erDsIKkBUCX4DnAWWTLtOZyYGTS2gXcBwyQ1e64wczuq8ydvmvGveuY/tBN3lGcc8455zwAcRNt85IeWkZbGGsemynjWZKWAM8GFgNHVAOSQoOfpgE7gUeBe8BuMrgWYy0x3RRCMa2k25i39hrvEM4555xzHoC4ybLx1PNobm6lUikHAnMFh4FOEnSS/ToC6ADmACHHpzICDAOPAHcarAYbwLgfbFO5ko4lITBvjVcod84555zzAMTlyqYlywAUYmiVmItxqKSjgBOA44FDgQVkMyWtZPtJar2Ey4CxaqCxg2zT+AbLllTdBtyH2TrDNsjYEQuFSvO2bcy6+2q/oM4555xzHoC4RrS5sxcgkZghNBPRBhwEHCQ4GGgDZlcDkzZgVjVAKVQDlOQx/yyyjeApUKn+XgbGgd0GWwRbyWY1hg3bhLFe8KiJEsYOLO4kjo6aRMeaK/wCOeecc855AOIOFD/vPpnLW+7lfTufF5KQBAUSmTVHMQ1IBAm2J/hQNQCxLABRFoAYVEK0MRNjUVRIScfCaCymRVuw9mJvZOecc84555xzzjnnnHPOOeecc84555xzzjnnnHPOOeecc84555xzzjnnnHPOOeecc84555xzzjnnnHPOOeecc84555xzzjnnnHPOOeecc84555xzzjnnnHPOOeecc84555xzzjnnnHPOOeecc84555xzzjnnnHPOOefcvvr/mQX9GiNOhuwAAAAhdEVYdENyZWF0aW9uIFRpbWUAMjAxNzowMToxNSAxOTo1NTo1NgNVLwoAAAAldEVYdGRhdGU6Y3JlYXRlADIwMjItMTEtMjFUMTg6NTI6MjIrMDA6MDCNCU0KAAAAJXRFWHRkYXRlOm1vZGlmeQAyMDIyLTExLTIxVDE4OjUyOjIyKzAwOjAw/FT1tgAAAABJRU5ErkJggg==;labelBackgroundColor=default;clipPath=inset(0.53% 67% 2.11% 0%);" parent="1" vertex="1">
                    <mxGeometry x="1069.9999999999998" y="127.95999999999995" width="90" height="84.09" as="geometry"/>
                </mxCell>
                <mxCell id="58" value="Firebase Cloud Messaging" style="shape=image;verticalLabelPosition=bottom;verticalAlign=top;imageAspect=0;aspect=fixed;image=data:image/png,iVBORw0KGgoAAAANSUhEUgAABQAAAAG4CAMAAAAt7LrOAAAABGdBTUEAALGPC/xhBQAAAAFzUkdCAK7OHOkAAAMAUExURUdwTAAAAAAAAAAAAAAAAAAAAAAAAAAAAAAAAAAAAAAAAAAAAAAAAAAAAAAAAAAAAAAAAAAAAAAAAAAAAAAAAAAAAAAAAAAAAAAAAAAAAP///wAAAAAAAAAAAAAAAAAAAAAAAAAAAAAAAAAAAAAAAAAAAAAAAAAAAAAAAAAAAAAAAAAAAAAAAAAAAAAAAOakSAAAAAAAAO6uX+mwgQAAAAAAAOyxVQAAAPC8Z/i3RPi3R+2qMOytTeWfM/W3Sve1P/q3O/vBP/q6QPy6Ru2pJvq1O+6rJva2PP/FXO6pJf/WWeylJf7VWe2rJvqvKvuvLO2qJvixMv3LPfi+QP+sIP67Pf2yMe6rJvu+P/64Of+3PP+7QvquKP+rHu2rJvzIO/+zMv+zNv+wKvSvLu6sKf+0Nv+tIf+3O/+6Q/7MOu+sKv+0OfrIQP2tJ/21PfmiIv+wJ/+rHf+tIv/NOO6tKv2rJO2sKv/WWP/ON/7MN/+sIfS6Lv7NOv/OOv+7R/+tJ/7MNf7NPPOSHv/KK//LLf/LLP/KKv/LL//LLv/MMP/KKfWCDf+lEPWCDP+mEf+mEv+nE/WDDv+nFP+lD/+nFf/MMf+lDv+oFv+kDfWDD/+oF//KKP+oGP+jDPWBC/+kC/WBDPF9C/6lEP+pGf2hDO55DPN+C/WED/aZDvSAC/2gDOx4DP2hDvufD/+kD/6kD/2iDviaDO96DPyfDP6jDvicEPqcDfygD/B8DP6kEP6kDvibDvufDfmbDPR/C//SSf2jEPiaDv6jDPiYDfudDPqdD/aXDPqeEfaaEP/SR/F+C//RRe6qJfueC/WWDfWTDfCtJfaMDf7QUfWeGO2BFPWJDfaQDf/QRP3FKPaGDvKyJ/i9KfvESv+vKv+sIu6sKfzKT/zMT/+qHfS2J/+lEux+EvvBKfebEPvITe2EFv/NNfWEDfvGTP+yMv7IKfCwKO2AEfe6J/63QPW5Kut7Ef7JLfWDDOx8EPzELfKPDP/VWfCEDP+mE//QQv/LMex3DBVywrQAAACDdFJOUwCGgT81AVSKRwsdBCaHTHJYCQdsNxZ/bxEjATFldlsOYkJ5LTpfKRmDTnpnIVFpCxQrBQJEfA5KCCsjMBIZHTVVg046bEXrPxaQ3EvW+3aCtV28Y+6rY9B1a7ycm97Vovfvjfur5NDekM/D0pOjy/6s+r364sf03/TmtMvc7tf83eC9Bt8KqwAAIABJREFUeNrs3U1oHOcdx3G5aeKmJW0aSGm37aGUQikFF6kIrSqsN4yFDzF+kbGkBCyDIhc3dpJi2kvdo7IwzC67o1112VLYPehSSRcboVMWcpChUEhKCD3sHoYFgWAveyx26fMyz8ystC9SiRTt7PejkZLDSsbPyj/+z8v8Z2AAAAAAAAAAAAAAAAAAAAAAAAAAAAAAAAAAAAAAAAAAAAAAAAAAAAAAAAAAAAAAAAAAAAAAAAAAAAAAAAAAAAAAAAAAAAAAAAAAAAAAAAAAAAAAAAAAAAAAAAAAAAAAAAAAAAAAAAAAAAAAAAAAAAAAAAAAAAAAAAAAAAAAAAAAAAAAAAAAAAAAAAAAAAAAAAAAAAAAAAAAAABEVix+7/Hj2akhRgJAvxm812jU643G4xnGAkCf1X8LjWpJcOvLI4wGgL7Kv+l6yVNZYDgA9JXZkq8+ynAA6CODFS/9CoVSaT7GgADoHzOuqf8KpUJlnAEB0Ddi46H8K7gPKAEB9I9rJv7kHLhQucyIAOibCvBuUP/Ja5nj0AD6xqNw/hXy1QmGBECfGPqzCj/1KbmLgwwKgP4w7JpDMJ7qHIMCoD/ETfipCbC87nBDHID+MKUW/4IKMF9wJxkVAP0g9pbeAFHRJz6k+hjjAqAfvC/zL8hA8Zl36YkAoC8qwJsFPf/N6xpQl4AXGRgA0TfilvzFP3VJpVluiAMQfRfN/oes/vQlvlTijAyAyJsuBHT65cRVoCcCgMiL3Qq2gA2ZgJVpxgZA1L3tl3/+KZh8LpfP0RMBQOS9a7Y/gvTLyQCsTjE2AKJtsOrvAIcnwcISPREARNuMH3/+8l9eVYC56g1GB0CkxfNm/c8LQBV+Cj0RAETbRLD8p6s/rwQU3NsMD4Aou6pmv2YHJOenXy7nOPVhxgdAhH0Y2v8N5Z8jPnKle4wPgOiK3Ww+AZ0LESXgDCMEILIulIKTL97ur67/hJxTmGWEAETWaKEQPv1n8k8XgI5TGWWIAETVpfDsNx+e/iqFeXoiAIiqObP76xWA+Zyj5r/eLNipjDNGACLqPXP+JXwAxtR/TtpJ36cEBBBR75gD0GYHxMnpGtALwXT1EoMEIJIG3dAtIN7+hxd/aXGJCtBZoi0WgEiaad7+NUegvfmvnAKnqxPdf8zQCBNlAL1mPOj/5y3++et/Mv1UDbjYpS1WbHq+0Wgs8Bw5AL3lWqj/nxM6A20mwJI717n6u9eoV6qVemOC4QTQS+6G+v85Leo/KXfnQqcfMVnP25Lb4CkiAHrJo6bzz45fAOoEVBGYSpcmO/yE0XoyqQLQdhZpIQ2gd8Q+CPf/aw4/UwCKCKyPtZ8Azzsi+yzxIWrAOUYUQM8YLjX1/zMnoNPqi5d+4sovtP0J41Wv/hMpaNFCGkDviDf3/wviT2WfngCnxFVpt8Ubu//cCz/Bzk8ypAB6xdSB/n9qEpx2QtNfnYG5dj0RLldV/JkQrNBCGkCveOtA/z9/+9cx0ScKQOF5Jd7y+4eWvdmvKgFty6GFNIBe8f7B/n9Ny39q/U99ptIPWpaAU1WTf14GVmghDaA3xG4e7P+SDs2AU94SoFJtdchvaMk2M2BLe77AqALoCSPuof5/TmgBMOXVgEIytdyiJ8KEq6LPpJ8qAbkjDkBPuNii/1+QgHoD2KsBk9WpQ98+uBicgNEylj1LWwQAvWC6Rf8/v/jTBaAu/+R1+D6PG34BGJSBmSpPEQHQC2616v/nn/8zy39eAro3Dk6g71hq/c+Lv4y4MuIrTxEB0AvebtX/Lzj/F4RgMikS8OB9HrdLTRvAKgFFBlZ/w8ACOPvebdn/z5x/CaefvEq3m755uG5bTTsgGZV/VoaniAA4+4bclv3/QkcAg0mwjMB6030ek07oDLSZAEvu/9UW68L01PQY7wmA0xEba93/L2VOP/vLf8mkisB8+D6PsUqr+k9aWz7+U0RGfvcfaeECbwuAUxFv0/8v3VT9qemvVKuF7/NYyNnNU+CMVwJmM+6xHyQ3duWzF/v7+y8+u0IRCOBUTLTr/9d0/EWXgDIALWfWrx5nKv7s1ws/UwCKCDzug+SG//CPRCKxKj4/vs4CIoDTcLVd/79g/zeZ0rNfWf9ZdrLiH/KbfS6rP3P4T33x0k9cpYlj5t8Xq0JChuDHcd4XAKfgw7b9/4IVQL/6q1nJZLFmDvmNVqzg7LNJPz0BzorrWM3xZf4lEl4JuEpLQQCnIHazbf+/VFMApmT9V6uJ/CtWx/W3zqcs68DiXzADzmQLt46VfzL7dAWYSPyWNwbAyeffSKlt/79g/9dsgFhJW+TfTvm+XN6LxatFvwLMBBvAWVUASkdvji/zbzWh029FfPx+iLcGwIkb7dD/L8hAya6pDNzZKZfVDm/sQTGIv2D5T63/yf9ks7nbR82/K1+Y2k8GYGJln31gACdfAV7u1P/PzH29AjBp21ZRBmB5aXBgYLpaLFrh298svfyX8SvAbOVoJ/pE/snqT2Xgiq4BuZMOwMmb69j/z9wBrALQspNWTcbf9sbDawND98X/BUuAGaupAFT5t5Y+0maGrP8SidVQAZhITPDOADhx73Xs/xes/6kKsGjp/NvdXRy55JZ3dlQNmAnfAqc3gL0a8K+VI0xlVf3nJ6Co/uQiYAS3gV9+g9824Ix5p3P/v6SeAtui/lM7IDs6/3b/dXVpo1ze8SbBmUDWzIDX5JXs3hxf13+J8AqgyMDr0RrlX/36R187f/7cj1//6bf4lQPOjEG3c/8/vwC0a5bcAfHyb/fpw4e72yIBt4pWZjN0A5y//OclYNfnIw1feaH3f1e9DeAVafWPp3IvyBsvffl+ePiPefNn533feykSEXj47/1L/jGh98x06/9n8i9Zq8kdkHJ5QwTg06d7//50d6O8XS5uWtZmUwUYhODaWnbNnj1C/ddUAeoQ3D+VZwu/ev7L951DU9+fvNb8gjcj8Htz7tDf+xv8Y0LvGe/W/0+nn9wBsYvFYnlbFoB7e3ufrq9/sqFLwIy1qSMwGy4BZfrJq3NzfFH/+eWfN/vVJeBKPCoB+PLrB19x7gcEIHAmXOva/8+fACeLZVkAivrv2bN/rq+vf767sVEuP9ksZjY3QwuA4UmwjMBOzfHl/ke4/lvRFaA0FZUAfOXwS859kwAEzoK7Xfv/yQLQFgFo22oFUOTf3rNnogCUJeDG9s6T4pYKQLX1mwkv/62tqQisxrvWf/7ur1f9CaezDXwKAfj1Vq/5xXcJQOAMeNSt/58pAO2kmADrAnBPFYCyBNzd/vvOligBM5tZs/6XDc2AtQexLut/5vyzX/0JH12PRgC++vOWL3qFAAS+erEPuvX/U/WfbHpV9LaAn4oA/FwF4F8+2d3YLj/Z2hIBGCz/qeovq0tA6W/ueIf5byJ0B5yKP/n50crKf/8Ui0QAfrv1i177PgEIfOWG8537//2PvXONbeo843ji3G0nAUJIKJBLyYVLgAQIUNbSCoToB9RqGqqKtAmJD5UmrWqnadI2daqmOoqR7VQZI7WnOU4Tc0mai7MEDJkzMZNABEqsgMiUj0xIUeHzJrHuw97rOe85Pse3+NSN8/xj00q1fDhqzk//53ne9/8i/nVhBjqfd/X30w7gCjeAHtwFDA4HxhD93KT65RMQd4+bNQAR/3xu7fORyP7fK1eE5p88AUEIfHEgGwBoMel86igAEATKuAE8HjP/D7s/jECyBhpvAg6SCQgxgB78jjAL2HPZ7ZaXALpl94d+3O4BrXD8I2eF/L/OS0r64Z/j2QBAa8KLZQCAIND3rtMx8/84BJ+TNTDSCCRC/Z/Hc315dmQkiCzg2OVRt7gC2i30ABEENcLxD5xV5P9dkvHHAGg/nQ0APKr7sVoAIAiUab0XZ/sHroCVHcCVubllyj/8s4QBOOkeIyNfef4rwA+/Bk5q8U/M/2OjX4F/9g+zAYA1uh8zAwBBoEzr01j5f5yBTjwFwSNgsgUEG0AP8YBI12cxAMem8DmY4hY4bAB9EgN96nD8A2cfKfP/Ll0SDSDiX2fnhWwAYIXux9oAgCBQpnUuVv4fbv8hfckBiAvgm9gAelgFjN5LoSAhoDD6lda/4AmIj1jAr36s5p86/0+ufon9Q/pDNgBwLwAQBPrB6thArPy/Lj4DwR3Au3wEvERHwB7iAJEFDI0EApOjiH1TU26+ArCH4Q+7QAJBRTg+9n/q/D/u/Yj7Iwx8cSwLANio+7EWACAIlGGdiJn/Rx2gkxhAOgJ+sEINoEcm4OKD0HAgMDUm7f4VDCCFn8/n9f7xvMr/qfL/uAdk8MPqPJEFACzW/Vg1ABAEyrBOxcj/65InINQABkkHcIm3/5he3hwJDU9Ouacw8OTVf9T/+dwMgL7PDyj9nzr/j7b+sP8jBLSh15ksAGCT3qd25AAAQaAM64OYA2A6BWYj4CDZBEIMoId2ABH9utHP4mwoiAnY43W7vYoBMJuA+Lw+X/j5+xL//qmR/ycRUDKANvtPsgCAuguhywCAIFCm9dMY+X9sBEIAyDuAc3NLbAAiqbv7H7PB4cDk1FSP1yuu/uMFMLJ/4XDY//kR2f9p5P+J3T/KP/uFLABgzm6dT1UCAEGgTOsj/fy/LiZnl7Pf2X8nyNcAyvYPuT9mAYOIgAHvlNurpp+bAtCLABi4yPyfTv4foV+nRD+7zfZZRgBYbF6llGirNUEYAgj0w9Shf+nm/9EuIPJ+TnIUJgnCJzFYHtH/YQR2e+7NkjkIdn9ecQ+c7P/C/on5T96i8w+d/D8KQbuEQJv9xcFMADA/zZdo0OJfewkAEATKtN78Sjf/jzlADMB+JzsJDgFQrn+7MfrQG+kpAuCwf8ob7unxKuhH239eL8LfzMzfPpb8n0b+H10B2CnRDznAzreyAYCagajNa/5XBwAIWvt6Qzf/jyOQNADlHMBFYfxB+n+UgMgC+v2TYTwFUWyBIwDE9e9EaGZ6/JNTrP+nmf8ndf8YAtHr7awAoCVqO9wu69r/1QEAgta+Turm/7HxBxItgGkHcEEsgLs9FH8OZAFvzgaHEQHDiIBe5v5Y+89Hyt/56fHx+0/++0g//6+zU65+Gf9sxo+Bvw8A5uTUq1bANGfBrw4AELT29b5u/h/3f1iiAbwuNv84ArsdC6gI9vvDUxyAfP2LF7f/hiZmZqbv3X/y+FGs/D9pBSAFIPqn7RdZAkDFsZim7DgWEwAIWvv6nU7+H28BEvyxGKzZlZUFmn/AG4CMftgDLt8KTSAAesNuvBTGJ6z/IwZwenp8AfMvVv4fW/9ss0v8s/88WwCYk9Navx+Pg3fUZMvB6ABA0JrXa+d08v++5Atg5BgsvAv4qaoC7pYA6IhQC+glDtAnzX+9CH8TM6T+ffwoTv6fvAKQ4A/pV4eyBoBYmywF2fO7AwAErXkd+7NO/p+8BNDJNsGRDiCjX7cSfph/xAJO+FHFS3wfbwCG+fyD8C9O/p88/LAxAl55M6sAmFUCAILWvE7o5P/JMxCSA00nIMgACv0/j0fJQMfSLCmCw26fN+xT1L+Mf3Hz/0j1a5fsH9aPAIAAQBDIIJ3Ryf+T/F8XmYAM0wlIhETAUPZ5hOoXvxyOl7wLSAHI7B/m3/i9Ber/4uT/2ekExCYT0P4OABAACAIZpPM6+X/CAFg+CERlALn36yYEVFpAr7T/zT8fYv4vfv4fxZ9dMIA2ww9HBwACAEHrVh9r5v8JFbB4EEhE7gB2SyugGfyIBZzGXUBk+xD8+P63eTz/pf2/+Pl/FIEKGX44OgAQAAhat/qZZv4fj4ChHcA70klIogGUxh+YfvjtcjgWb4WGhvwEgGz/W2iG1b+J5f/ZxfKX6DdGH44OAAQAgtarDg5o5v/hBHynlAIzjPg3i4Pwpfw/9QCYGkCH6z/Ts4IFJPOPW8T/JZr/Z1NOQPAY+AgAEAAIAhmid/+nmf/HF8DQETDbA3JjWc7/kyDoEPmHLeD8xFA4zNp/fP/b44Tz/9QFMNIbAEAAIAhkiN7WzP9jC6CFTXDUAMr5fzL9OP5c+O1yjc+EiAVU7H9LPP/Ppq6AbbaTAEAAIAhkiN7RyP8j1a+8CS5wN/hgFhvA62L+n1wECwgkFnBmwj8UxhuAh6T9b4nn/2k4QKPHwABAACBoveqiRv6f4P/6sQEcwRUwDsIX8/94+4/OQBj9kAN03UM1sN/v9cv735LJ/4vWv40eAwMAAYCg9apfa+T/SQ1AtgZmhMdgKfL/eAUsCSEQv54iCzg04fcL+z+Syf+L1u8NHgMDAAGAoHWq134Zlf9H6l+ntAh6kqcgLKry/xx8EwhrAGL3R/6IzE+EEALn51n+VXL5f2p12K4cAAACAEEgA3TkT1H5f/wcdM4/OQZLlf8nrgB00RoY4a+vD1nA+Zl5ef1fcvl/0bIfBwACAEEgA3RcO/+PbABG/xilm0DwCGQxKv9PMfvg/HP19fZGZhACb02Pp5L/p7Z/6N1xGgAIAASBDNDp6Pw/eROws3/sboAchU6D8NX5f0IPUMYf+uMlYh963VtIJf9PBcAO9PoQAAgABIEM0Hua+X98CeAoqoDxBPjmHDOA2ts/6PADv/tcrkFX79+XboyP37+/kFL+n4p/+Mfgw9HXJQA3Vjabt1qtLebK6o0pf0lpUgC0lLQ2t1it5uZVXDGuNtVWmq072/CNbTLi+wtqm61NbW1tW82VtRuNyba1oP81LdYmdIXqkgJAlLH6tEtjBsLwd7mfHgVMDOBLrfw/xECXxEBiAF29rsG+a98tIPxFUsz/U9S/yAF2dPwWAKj1KFabmzbX1+fl5W+tTiZi32I9vKFCcVK7qarmaH6lkQCsbjtcUy582lRRmGdN77kAFvPmwiqT4m9kKm8sbqtO2xWqtx2t26M82bSisMGcRs4WmPMK97YrrlBety+vxQKgMkrnovL/pPp31Okck3JQFzXz/5gD5PPfPsy/vsGHD79+FYlEUsz/E/lHKmBbx4tjAEDV096SVycyrLRq986Ejlk3H95bWqQtU2NesxEALDAXl2teMHd7XpqOxrPsLKzSu62iLTXbNqbjCq/rXaCqvjIdN9Ga12jSuUJpRVkTQNAIHfyLKv+P04+NgAN3R0aQAVxZ0Mn/owNgtgYG4Q/5v2vXHt6+ffvVq5Tz/0QGdhAHaD+x9gFYEqVNOnWiWtG/+c37tJ6U0u2b4zzotXk7imJrR3FlmgHYurs91gWrGlYPp+bdpji3VbR/VZcpaKrZFfv7yw+vEuWb8vfHuQXTBiswMN069K46/0/yf6gAHr1zd3gE7wLGOaja+X+yAyQAxCbw2sOvb//16ndPnqWa/yf0/zgBz6x9AEY/o2Wan8uP+pzqAHXL5irdhyTmU7i1rigRledbVgHAepXhbIx7vdzC1lX1MhuqErqt3EJzqlfI25PIBfav4qD7yg25iVxiy9FaYFZ6dUoj/08KQRibnAyOjOAlMBHd/D8Xn4Dg+newF+EP+b+rV69++yzl/D/B/3GdBwBytcUwcRUxrt+ytyhR7WlIFIHRj22D+J+tFQldr7Qw5T5dwWZTwrdVtD0VBJaU5Sb6/VVtqY0sWjckfAu5+6oBWunUB9H5f/h1Gb3GnGN36EEgN+aWYwyA2QSkt68P9/8Gif/75ttnqef/sfZfB28Con+7AABkjipmoaT/t26uK0pGWxoSe5SjHeA2YWbQmPhzXZbaJKG5IqnbKmpMtlm3sXhXMt9f3pb8PdQWliZ1D4UlgK306aIqAYsOgPv7R8kSGJyDilMQIjHy/xxi/Yv49xDxj/q/lPP/5AEI12cAQFL9lsXuEukZN0txcs8YNpMJ9bSizVGTfM3cZK73+tYUatPdyd5VUWlxUn20tvZkL7Ah2V5jvinZS5jyYW1M2vSRRv4fBSAygIEgC4JejpX/R9f/IfvXS/B3++o32P+tJv+PLwCkCPwCvV8cBAAi+xdnhFGmc2lzeVEKKrOkAsAWbv+qkr3evmRNoLk9ldsqT7wOrm1M4fvbk2oFVtelcg/7K4FcaRqCDCjz/9j6P1wA948FAmwT3FLM/D/CwN4+Mv8YZPXv6vL/5OEH1Rcdnf9n72pCG7nu+ErySLblsSTLltZrfWst2dZH7V1rnU2TbLIQklNDk1JaaAj0UAikh1J6aGlPigyFbltQInwyIukuEvFKOnjrIJtACu7aCWwIeBdy820he8+ptJ33ZiSNpPdm3seMKZ35sVYgeGf0Zvb95vf/+s2LNgFeuqq3L9DbQtgUPUzw6RcnRFwZZsZJf74o3bZOO9iW5UkSCqjFENvxC+QiM73CdoqVtM1dhuCFvyL0H+gArH7U2t/fgxWQxsk32v5/sv5rNpX6792e/mP1/xvSfwpu2QSY1NsVOXT4G/OwwpmhV4Byjt7Ftq0zFNczybwszzJRmOpiPn6OUMsKm+xrmLXDYCNwE2GBKjNgC/ZAH0EBqOP/B9N/UgD8hcR/d6H+4/T/e3+M/ypvWZ4AJ3X3BFIVxMMeDmxSE2CAiztcpFfT6+dZFoG2FQocxy8SMSzHowmUtAM2ffHj9pj/HwiAW9XqR+39jjwEctL4Rs//D/gf9PSfHP/y+f9VRgLgcqXyntUJUF/whFCRV7bk4cIsbQgscGknj5tM2HgjfMsq6TGg4OY6fpCAnabCfGsI2wzIjzdG/f9gAlD6AAHwgRQAP2g0nuj6/wH+uyfrPyn+PeX2/xtqAZTxrsUJMK+/IVBTuOshDycKApUCXJH+5zzP+YgYUIjxLqukk28seMxmp0CYdw0+ux+GG79T+//16E8SgG1og3UsvwlJ2/8PzL/tyvNvUP+dGuD/N5CAZUUDfnvd0gQYIJhFQHTIXi55uKHJSGMEWLp0adHE8ylw8y8rpKkB57mPv6yzhLkg/xpsBuTFlR+N+P9JBFhtgR7o/c4efBFI4+Rrbf8/GP/WB/HvqRH+f+8PRcAAf3zB0gRIoHgSiPxf1GMAJmkI0HdpquQxmwFnjViWT6NSkRf5j39VO4bPGbGGsD0czIfnPhjx/6uCDKBEgG0QAN9/ePi08eiZtv9f/U4Txr9w/u1M4j8j/P+G2A/kAMvl71uZAElE1XgFdc7nMQRLFAQYFBKmMq4x8kzWaFii9Rrx4HBodpLHjFlDzOYwLrw04v/3p14A3N4/OHgo8d+JWgAi/f/q0P+vKfe/nJ8a4/+ncGB5oAArL1uFAOcRBEggF9YEyk0mlny5ZbfbH4v4dHr2HNPkRZAoNjoVo8vu1cnJgj9S4mBckNfU6f9zhCPLfvdyJBzV+cUk7gxaBXefP5mZXrgcX8/mMy53UKOPz6chz3RKWqFoEN6aRFjvWiVtEuPBa0P+f1VYAQYugEAAHjwEFZCeAET7/0H/03q91/9yfmqQ/19lRANKEvAVCxPgNFPDitYmC8/OqCPAQN4V02DBUJy8Coxu8Eu4sio6CCxOBhkZV5JnWn+1tLq0MHgSePObOQ0SFDGFkDh2VUXXaKLVu7iaoq+gz2g9ydxL6svtzU4U1qiEvw1y/HjY/08iQNgD05JbYHoCEO//V9+V4t/PlPm3s/NTo/z/BvRXlumvUnnTugSYQUeVYsoXDEdD8g4X4+SbrORCJc+9i24HRX6RggBzS4h0WzwZZWFcLXnmXM2Py2DvhI+ycxyXYhT9mEmbDQwlO3CrWMc+bBxu5Dmyk1glGLILIRw1kJ+N1D9AAAwygJ3OkTwD8kjb/6+urn8A/WeU/58q9lUU4K+vW5YAEUi50+tCX+ckIytjyaA4bpNF57GhWcCF+0sT7AQYwzacZPCNIBFsfm4BS39JTOeJkME66CCXFUCHtTENH6qZFI0EFHDrduLt/rxpn50GNB5vD/n/SfqvCjKAkgDcOwIZwEbjsY7/X7PeVObfZP1nlP/fgAOVP+UPb9gE2JcJYyGiMLb5MXP8jnnNGivOX8UZZyTAiGa/3UaKuoaKSWyKk1rjZzMlit7xCeQF0M5LBpCpT8cUVQLQrdk76L2KeTpt2DzGimsfq/3/qr0emPb+3p4sAL96puH/B97/Vv9Myf+dnX9poP+fivl6H+Wblq0Cj8BP4gqcxuT+dP0G8iWaIFinzBBa0jnbHK6jxbGOiR4xBQcd867AMjnPon7Vua533ZC3bQupYdFPDaeuv8FltJIN2RMhrHj9L+oCMKA/WALe3z84uP/gQeNEEoBk/n8g/jXU/2+0BCJ93L5QAiy6mZE3lQCDRG5OU+gJEBKHqyl0RmuRQQEWCag6j5lVCaKVKnoE2K2/rglkYJtCJA1RpE5gcbWEugCIRQjo65sjuFaY+eQtm8kYU4A3BxUQKP9gBaTdBU3Qx8eHkgDU9v9rNpu9+bfzL431/5Pb/2DsWwYEKP28cqEEyIF5E0NgkdCp2c/QXtJXZcg52yA9Aa4StenGgxT5OS8yZl4lOc/0CtklmWalmNEb5/Ajn1VoUzM/2X2dpCq22NDByyr5V4UZwJacAbx//1jOAOL8/+pw/qPZm387PzXY/09hwXJPAko/b1qEALUUoIOw6SFL88XGWSZI3G+hRYCkzi5edJG75EUXA4oU7SbDiUCRqBCMuP4iGcMMpSejLnRkOodUvDFSc6tV5geAjXEF+Maw/gMVkFqr2+kcHMsZQKz/3x21/98nPf1npP9fWel+GejAP1yxPAGGSM2ME/SzWUOiDJUH9Al0OUDy03mXqXp8syPtOhFS8kAFqZ4pAorxkx0/0JenYmwG96WQFoDLxCNtAkqei/aLktjwG3ULDEgBVmvtVrsDbGAOGw1gg4Xx/4P+L83e/JuS/zPU/0/NgvLHv79ndQJcWydcT55HkMEwUCSUgCK3/oMMiAy6V7AdblPJkn6BGgEXCU/H2CtiG4p23cR/pSlUIJ6gGOkNRKlarm1oKcBf9ckP/gAFKAnAvQNgg9poPMH7/9UB/93r9z+b4P/OW6IcAAAfAUlEQVQ3XAGGacDnLU6ATmLHeFS1cJnqiiwRHgFLgG6q0wV8lDPBqkiYogtEyBHEwAj1nCc9AWjwS2i+GxNV9S5RlXEXEBTqtE0RWHDjXwP/P4iWJACBD+CR7IOK8f+709N/Sv+LKf5/5T4BKiKwXH7V2gQoEm/Dae5NhuwFQWXCcASYo9yRl0OkXXqDSFh+l3iY5jTr499XHO0fRCRAiSPMTGhL+3fnVogL7FhcZS5v2RjG8wr9QfIDPTC1are73wEC8PPGyROc/199t7k7Mv9mvP9f3wVGYT/p8yfWJkDymNLP1scxzEgOknFjXA7QSV2XzNDMn6gjYbq3AxX06QdBgOvEx/cykBdt/Cr4iIf6bGji1X7yT10CPpAI8PCwIQtAlP+fev7t7Nwk/z+Z/irl8qAR5h1LE2CO+CU4U6IRSSJEsn6NWAEyCBLUKIWuuvOm/XTvBros6tZaitwSTQM+OtMY8hTvuk1n9PiBUv6VJWCttVPd6XY6e0f3Hzz9XC0Ax/3/oAGgPP9mlv+fkvgrD/7zWysToEj+LxwxaeWkHxbwIixIsoQEmGC4BwFU5Xna8Fu9rJvajFAlI+mwaIA2R9dpXDad0eOXqvRftbpTrXbbbVgCgT6oSP8/UP0YvP/tzET/Pzn/V1G1Qn/4nIUJkELCpcg7SrTgIomB0SFwluUmTFxIg9vGeHZUX4pGjXoFZYy0wZw6yWvHwPS4/rYSAQMOrLVBD0xnf29PLgF/reX/p4p/TfP/Gw5/IV6yLgE6Ajy7w8kyLYpwxQuSEaCf6SagUlspw281YtDNqyugKXoatU/uNEQAoiJp0R4Ipsa1D3oDIABdiQDBEMjBMRwCeYbx/9sdvP/NXP+/wWcfr1mXAAvki5k0RgAi+0GmiAiQsS03bZSW1EROL32W4epA0sSMMQIQqc7TNqFR4srrgxE4KQBu1WptmAE8fnA4IgDV9geD+bczc/3/+upvwIA/tS4BUmxAH4981CGkJZIcYILxLgglE7NvGs+HEQ02h1qT7nuEieA2yssKUedy24xGi1v99B8kQEkDAh9ASICPvkP4/4H4V/H/+/TuJ2b7/1UqavEH8Y5lCZCi2W2dtwd6UJYgyMk5SIeGGas3YcPv9YRusw3yBSxOA1z3hPFmxxXGDubxp5zPJjRa/LDXA1OtgRJwrduFGcC/P32qEoAq/z9Q/60r8e9/+vVf0/z/hgTgNvjze0sQ4LyHK4a9yj7JNYpxRVYkUIAl5opBHLHyOar7uLjkmo0lIsVwuJiIuVcnXUvZ0QPkdQuomD6kGLcIRFhUsNo5+zmvlA0JPx8owBYMgMEQCLDBavzzO5T/H+j/u9dU9T+b6/83rgC/vWZVBZjl2RrM+fHxhpAVQV8BcsRiHC14U+nVHNpZMJWYnV/QYqHR2vYc5k1voj/P989s3rgJjuRFtAz9v+MXSv6vBjOAcAgECECJAB+P+/8p/i+q/hez/f/6BeDtck8EvnhxBBj0M2PRcAJ0UoiqqHEdErP6/bYOAyNgZG6fpL9NyM/qvQE5tTqjBJsL+mZ/W9jDRLcWOaZu3cY9mzKmVaqtg+sf9wVgV1KA3bacAQQ9gFj/vy9U/gdm+/+p9N+2woK3Lo4A/6feCRLhStytRSKRHERRQrCHsAyfClEZKYi1Nae+YhkPgR0cDMGUv8zOloiE+UosLSDPMZbYDGi9J3klkswblrhzsN6akKHK25K4cuPPsvyr1apSANzdkQTgEcgAwjchIfz/dpuq/r8L8P8bxnZ5e7v8lhUIcIKrC3rGYyqSugQY5LlGIZLxuyHxt5Gj+PbRCS+CAN0kedRh4VbcytBrt4C5t6ZocxodbsrlD/CxUwUVkE5HHgL5CuP/V2/2598uwv+vPE6D71mUACmiG5e5u6ygGwIXeK4RovVQS20JSynK719yZQkIEOk6OlZ2LaTpLB+mzb01KZvS6HBbDn9r1R1QAd75R+fgb7IR9ONR/z8Y/6rn3y7G/08l/pQw+F2LEiBFWq1g7i5L6BIg14XbpJryn/ExrMBBEjvGS4Sk45/4L3vnE9pGdsdxSc54bMmyLMm2vJEs2Y5lKfGfldf2Otmku8mWZQuFlKbbpYUNhR4KhfbQ7qkLhUKKuqhsKWyrCopN2mqDnS5tXKVuseMYC9uHQhJyaCCQYwNmm0MPbY5t572Z0cxo3sx7b/6K+P02EXuQNKNR9Jnv78/7vhLxhzvl7lcT5RjTqOKyKACr1dofqn/cAjPQDdgBeWDg/7e+Lua/R175/2lTYADAzxaOJwApmsBj7v7KYlgA2lq7MU/RBs459VFRxbNCkfjlw/muMBF7XBbnPNsaiS4+kAqAcASwdvv2pw3ZBkvn/7e6rqx/O/LM/0/ufwD4iRrwwwvHE4DkKiMQc/dHFsICsNfONSqQfxHpEO8iAAMzVG8/PJDG1wRdFudsDoayCfKOnAFXq8oM9F6rAtiSf5r93wT+eeb/p7SA5US4fP54AjBn5yjORgTTBAnaukZxEgca+MS8cx8J3T4tLFG+zdw4Zg103uWvZopBjSbO/hwKQEH8Af41bwEB+Oc9KADV/n/Q/0Xx/zvy0P+vJQDFFjD47+LxBCB5x5Fz+UfWfio6BThq7yIFyS5SyUmhazA/kpumfqe86aT0nMtfDbPFp4rXq2IPGACw1loEvPaozf/vutr/7+mRl/5/kvgrq4YBLzEAmkfCbQD2YoCVtHeRJoi6yi85qnONBui4Rfr3SqWNu9ZJl7+aEwxqNPG2WAKsQQFYv1UX14AAGyyN/9/1dSn//eT3gH+e+v9pioDgT/kKAyB1DulsjGAAmLF3kfTKbgDBvyDvBQADgZkl+ndbmvKpPMuWgtDFu2IPWADg1srWbUUAqv3/PoL+f635l6Ndb/3/5OYv7IHAx/cXGABNI+c2AIcwAByzd5FSugPq7QJmirxHAAzET0fp3y9r0AcadfmrYa74VPFeFfaAa9AFpg4XAe8BI/yfau0PlPVvT492vfX/K6sxCAVg+ScXGABNY8RtABYwAMzau0hz2MlD5L64bgFQOFqG/g2H04TpvbOxyKBGE1dBBizgr7a1deu23AF5qPX/EwSgkP+ui/5/UP956v8nLwIuS0pQeDzHANhRAIy6DsD2nDqBzSSjo8lMvru/Z7l/dmAsdcYeAAOBeQupazfHANjhsfCralWsADZlAbgGBGC7/5+QAMP556dH3vv/iX/Kch9YiGtvMgDSfhJva4COp8DtbggDpuxLzQ4W2toQkaH5xUzROgADgT56FZiNsBpgZ8eFjyUFuFVr1oELwjY0wlf8/0T/+7ut/u+u9/5/6jlo6eESA6C/XWDcGIzbTZB5sxbspOGF4sLLo5YBGAgUumn7zvkI6wJ3cpw8B2YAwQRMc6uuEoAa/z+V/8uRH/5/YgekLDaAwd/Kf64wAJoGYg4w3+NkcJgU2PExGC2eIoZ5ZHAWtwhvJhu1CkDhwH3dw1Q4yugIqJ8rTDn61QwxrFHERTgDAyAoZMAqAdju/wfXv/3raNcX/z/ZB0FqAgsE/OFJBkDT0E+IDLr5z8jpQegi5iKNG/EmWSKpkA5YBiC4ucwsZigGcHQDjGMkIz4sPIovgRLgCqgANlsC8PlHSv4r6L9Vsf8rzj/74v9X1uhA2AZ+mQHQNIa9rY27vxROsy9cwiATDXYRWqGEY9YBCIVguGuMNBtuHwjM8g7XC1jYiO/DHki1tnKr3qgLAnAPGOG3GsAa/z+5/ue9/19ZU/+DGHyNAZCyizDr5j8j980QNALWwKl0okROsFlbAIRKsDCZJ0mHQ21LuPU7DLCd3PyrAX4PwE9cBVwXE+D7Bv5/YP7PJ/8/VQdYFoFvMQCaRh4/SOeqAnTcDqvPvEcC024aI6i4bQDCGBocwC4TaduMRU/vEAORX/Hyz6oAgM3a7bpcAfy7YgAjCMB1ef83oP/88v8TJwBbQzAgvsYAaBp6meGqU7C3hqhoT+UYlRHeiDMAhG+V7h6lSIKnsENFLDyL10AFsFbbajYBAAH/HjxXDLBW19fX1fMvfvn/lZU1INJj5asMgKaBcN1MeApANy3xe1CUKdJRpOAcACEEB8eMGyNJXH7fx0jkU7wFh6CbtWb9Lw11BbB9/7enz3b99P+TK3+KBPwBAyBtEjnjKQBtzcHos8ol8wInfZd7ylkAgqR60lAHauysETOa44xEPsVl0AKWBODB5sba4YOW/991xf8P8s9P/7+yln6CAvzv2WMIQIrGwoi3vzI9AB3eFnPM/Gvi+WnKrTDGHQcguO0YIFDb5p1gbeCOie/CGZiVZv3Txj4UgI9V/n/y/DPs//rq/ycmxEoCLPzP6wyApjGMq8U7GlH89AdFdJkvcO0jsKfBRtYNAAYi4wQrB7OO3i1Y2Aju6oogAJuSAAQVQNn+Ga7/VfV/ffX/u9YuAIV4mwGQsowWdfFXFuSd5Mm0eZWsC1tms5RlO7OjeF8IuzytC5Mjs/AsXvlFbaW2tXKrXm8cHOxsKAJwVcx/Jf8D3/3/rrXjr1L5OgMgZYrnplc6AoBLlrdn7I2alz+7HXAAKPAuARC9kZzGHCfMO9syYmE5vgBawC0BuLf2SO3/d0PSf8/89/8rqwlYgY/feNEBOGgPgH28l5OAUd7BHBjB7lGMQIzGKY+x6BoAUWMufEh9N4jor1aI5cC+xBsroAcMR2A2Bf13+Fha/rG+Cvxf/qroP3v+fz+27f/XFgIDf8QUoHk1Si/Kou7tGBvEVv4p6jIIo4PT6icgxqBTDhzDKQAianxte1UibLXmGYz8iC+3KoD7AICPJP+/VZX/n9z/9df/T9X+kP788hUGQNPIY9bTuq4AabYxVgfK6UozwjOBSTGt6WMzAOaoBvUQTWz+lPoJiJV8cwxGfsQ3a7XaisC/xr2D7b3Dw3+28t8bf2vlvx3h/6eXgNc+xwBoGmlEIha3dMYEr0IOAQ9YE4AIgTesqSciFuD2Ux5kmgaAL2WjQapLn8TUKHM4xBNHgqXOtuJbIv/AIpANaIMl+f+19n97ttsJ/n/iQ0VmXwUowMobDIDm2Io65JbOxZInIlYAaG09cBrLpqLtHkgfuR1WfBICedlmEbMHR0hrBYPTw8tsGZ31WPhdtQlbwPsHG9trUADC9R/XFf3XGf5/SumvIkOw/BUGQPNAVJqCVn4tp4B27C/Rp8CWftQJ1OYd2gx02C4AuRgpAAvdEtqLccorZtrmRQ3yWKkC5sDZ5fs4hjJr8erHQADerN+Di0Aeiss/VtdV6986xf9PxcBKRQThdxgAqX+GVhrBMi0yUxytArQyeDOLsrnSHhlRA6QSaAZ2qjoARtJJa/XTGVyREjXos2RhrbZkeTHRFWcwsxLnxA5IY/NgZ23t8Lnk/yL5/2nyX9/9//QU/DYDIIZcZxxBksLRM+O9dAqQD1ErTmRy2rbTbcxmubFAZIk/sqxRmsES+QHC2BMcILGOJhOA4tkNhBnO6OOLYgLc2AQz0A9F/wNl/duzTvL/k/JeKQ0GD58tMACaByrRKtIuGYurl0xEszNUCpCfpizS51DmesE4NrensRTtncBvisRN6VbSJMkTzTSWbmFH9LKm0Z86wRoitHFZ7IDsb27vHd5/Dvd/W72r6v92kP+fsgREBuC1CwyAGHahsBSjzJbatUpsMEEBQMrhukSKZFeNWVv9lkiS4FTH8DqU7s7TnkGjTiJI2TRq/xeCK9SyaI8PIAD3oQ8gEICiAeBvWvlv5/j/ic0PWQOKhcDzDIAW6mmUogxRSCwuE6fAVNgQdBeKO3y0RKBsifPHyBgJq1Gt6CCxeM7j/x0ht/VcoqoYjCC64ZleRjXyOPlOs1lv3Nk82Fg7vC/2f9Xr3zrK/089BSMB8CIDIO7zIPcBH6MgYAG1tH+ZQgHS+PRxWeQbnG5/HnKtGaGwTUzzJABE9oknCFfS5HArQUDM8TaOAPU9Si2nGNUo4uxvBf419rd3gA8q8H9ZvSvv/9Zx/n8q5Sf+rfz6EgMgLtDtzgxxv7GE2vQHNRFitk3koD3+hXSfOo56Wp5MNcV4IgAiJSCfIrtwiHXGejvusM1tnRJIgjJraZp4HXSA72yCGegHYP2buv/Raf5/LQUI63+Qh1cYALH5HnrDnhSh0BhBvnwxQAdAfpyofRA3yE0RPq7ISiHJKGCf2VaWGgBySGvTDIl4LhWJlJkB7gm7uZEM3nufBSY+DwXgwcbG4eFjjf/fsw70/6uIHRD5j6AA319gAMRFGv1bXyLyn5tB8g+ZbEZNNwXKEyinIQMz5QkEc/pRTwziJ4m7TM+ym+DKJfG3jggKz4gpwhH0TSNINNM9ksRb77PAxbv1m/U7+zvACB/4/90A69/+JM0/d5z/X1megG49fvgqA6CVerz4i8RqGW48St7VMAcgP4pb6cp1GWlI1CvDBp/JXGnGszwFADk0YpZwCi2CPArqVZNGtwv81zwVcmzlzXGO9wQBeE+2wVLWvz3pSP8/CYOi+hNl4LkXGoCDjgCw12jr7lGMXd9QxuB1EQsAFOhi2qQIp4xeh742BpW8MZMuKjcY4mkAGBgyUGhdpreOHPKTIMcUOYMrzIfMDxHonUW/LlpgTKOKq/U79zZ3hAT4kez/B9a/PelM/79Kq/onMbBSeZMpQHxMGf7gMyYJU2nA4EVRtALCApAv9hgisJA3fFUsQpXLBpcNDhJJx7Bn2E14EJNbR2QSfb9Bp7U5QySPmgw1x3uKDkwcsQgEFv5x8869nW1YAZT9//4H9V8n+v/JD4oArFx6oQHojAJEG8i3Fg8geRGZzxoCzWBrOTwABQTOouCZSBsPphiOBscN0THcg1CBpcUzBOfXDkBuzvDWMY/kE5c2WGMSSlBVaGGqvVhCHmJm1vCjZ5gnAl1ckATg2iPIP7D+95N/P+lU/79WAqwowCsMgAQRmTP50Ufzg9rx3shQeqBo/HyjzSdJAAiUTf+UmgXc0GS+aPZ8w8VhiyYvmj4xpDrLRF9PiuzkdItWRozPbfh0uJ2B4f4lyrtGILBsdj7J8RnNMbjSqdkl46eHcgxpdHG+AYzwN/7f3t3EtJHecRw32GbBYLAxJLwYCNi8pTgQIIHwEqKWkCJEslHV0kppeuFS1Bepoqi9VV1pt+K+Jy69VNpV1UO7ak/NKRWHlZdQVamQvZIPqD7CUkoLyqUzfuN1xvPMjM0MfD8bEIcNjj3yj+eZ/8yP9Y3/5vr/svlnxf6/1RPXAKbHwL9oIgC1PKsW9Td+6Z2y4bCr2eUcrvbdVE8yxXKDc3/tntINZ96WW9Xt4br28t7WmpI8kaTcwOJXP6FXGoyUO8PD1WXBDsXk13DXnkvtMUoCvc1VnoEKf0VDfVd7a4fy/9mhuJ91d6q/AN6azmpn2FXnLO/1BfK8WpTqi3r02RepFoR//jZz/d/v//elhfv/jkfBWb/p5xygFgOl75nDq3j269yb81ZtjeGHa1XZ0zUb/N7OBi23LQ+b8rKFVJbnAZMOjWAhGCTPPvurvAGWFoCZ+99O7n+t1/+XWwceGyMANWksMedNplxXcj4AHd1GHzSgOgvtNPS9Ox2aAtARMeFVU+2DaOsw59DwezXF/eyLV/II+O+fZu5/O7n/tWD/34lPWY8JQI0J2GPGm0zltbggAC/aw4u4o371dNsNA9/7tl9jALo7Db9qLXmeR4sZh8bHAETcT//2KnUGMHP/W2r/a+H+vw+PTwGmra1+lwDUyGPCLljtFoWLAlBt/mw4/6SnpH+FWeJxaAxA9RGSFqX5OmQqjJ8rUD1ZAAX9f/jLq09er7/9/Hj/a+n+v5Pz34xvE4DFS8B2h2gAun0FzL+LK/+1n8rUGIAO/9cMvWo9+e/t9d80emhuUYWqw5i0AHy9vvFp+v63/3xp+f6/40lwavknffySANQ+CTG20ChRryu+MACV+l20LGm0vKX17rFTQwmtAeioNLKQ7dFyd25tq7H8qyb/9HgsLQDXN96m13+Z+a+l+/9Wz+6AVz8aJQA1M/Q268hzl9XFAahwY6zB1abRUXD6kGoOQKVSMU3nGjXenOb0GsjYEFmmy7S8/jvKXf9n+f6/s+knfaw9JAAFhHW/zW7lqxtVCEB94dGj+ZK2uz26v7lAADpCOk83BjRfm9yne6TTUk+U6fNjOQDfZq//s0H/33EGrmU/PSEARXTru+rMO5z3HLtXKQDVK/guPv03oP0Z1dfoXcqKBKDDo2tUOyKwNa3Qeb60lV+IqZP7+3/85I20AEzPP2zQ/3dmApJaA36PABQ76HU6ZiFBDWsMxRWglDRBsZONTqGJZq1YcARzeSEUgI7KXuGX7Z5gO3OjjpCtoQFat8E/r2+8eZe7/80G/X+n4m8t9fEDAlD0KZYJ7oPz1WblDUBpoypwsW9wQPQZVWn/7jdcx+EqFoDSJlVsVusdEf4955Xtgj+dSsNMP/SbfL2xcZS9/80e/X8n1n6Zr35FAApriJSY/x7zqgWgo3JY41s7oKfSuLZc45nAyMntomgAOtzNtwV2prrOzPmdAqcCvRF2v0ZMyQvAP/3u+PoX6/f/ndr/pv58PEgAimsb0fg+C4S1vsdUV4Cpt7aGdVqgS+cT8o/kj0Cv7/REVjgA5VJBbedQvT7dg4nKsMaTmh3lDWSYobNBz9ffHOXO/9mj/+9E8skjYOnTh5OmviiVVeeY3zHUeO4xLt71tZ3/x5i243FX+fKuyW6XC+xGz/1Tz13/4Q6p31NRGjHSZ+yvU9+hlpa35T3WWlLLE8n7s+Om09jPqe6RvCvNnrI+bv0wanb9zbv0/Nc2/X9nRyBSCE5xIPWG/d1q5e6rkkBvo/lvsTZXp8Lu+3ZZyHC4d7crrc9aes370SH97KhWztqSoNOEq1LcfcNB5SVtTVkzp/5MeJF/vnGUuv/XPv1/uexLT0DW5AD8FkfSgNqqdt+dMx2bPYGIq7tg64tK6RFvnkrBG3fKwgMmffeKruHOjlOpfi/YWzdg+rPwd7X7as5E1I1AWdhjYs56nJHg6efyXkmNz8yHuN6G/rHxud36/zK739XMBlgOwh9xJI2HUr2nsavZ5brb6BnwF2Nr5R7wVMkPGOrq6zb/RL67zdMVaq5zhao89QUdE9QO9MkPVNcsPY+GwuSSu0E6NCFXXUhuXiX6zDQhLQD/Zbf+v+z6by23DvwhRxKAsAfr776yXf/fmRSUPn08xKEEIGru6Cv79f+trZ6YAKcS8IMJDiUAUU/f2bD/L3sLyGp6CiJ/Mc6hBCDq1zbs/8utAXNb4LWt5xxKAKJ+8u+4/fr/siGYDkAp/rajTzmUAAS5Kx+t7B7arv8vs/JLXwW4sx1dGG/iWAIQN/g0ETu0Wf9f9mJA+eu96MwcM2AA+haBjokXif0DW/X/reX+JDfnpwc5iAD0Z+DYUiL+kY36/7Kfk7HobD/HD4AhTU+WE3H79P+lz/9tbUffn+TYATBs6PnK7qFd+v/kCGT2AcC0bbB79Fli+9Ae/X/Sf3ubzD4AmJiB31xM7B/Yov+P2QcAszWNLyTiB5bv/2P2AaAgETg3s5u0dv8fsw8AhTI4PR87tG7/385e9CWzDwCFcn82sX9g0f6/OLMPAIX1cEmOQOv1/zH7AFAEU8uJuNX6/7aYfQAoiqFHK7tJK/X/MfsAUDyjck2MVfr/mH0AKK4J+cJoS/T/MfsAUHRjS4n9y+//Y/YB4BK4h54s78Yvt/+P2QeAyzL0nfndw8vr/2P2AeASF4Hu0dnUNOQy+v+YfQC4bJPvp6chxe7/i/P7PgBcuqbxl4n4QZH7/5h9ALCGobmZRLKY/X/MPgBYZxE4Op2IHRar/4/ZBwBrReD9F4ntg2L0/zH7AGA57lRNTMH7/7jvA4AlV4HfWE7EC9v/l9xl9gHAmotA9/OV3WTh+v+YfQCwstFnidhWYfr/dph9ALD4KjBVE1OA/j9mHwCsr+nBQmLvA5P7/5h9ALDJKvDxzGbczP4/Zh8A7JOAg9PzqWmIKf1/zD4A2Ev/bHR7y4z+P2YfAOxHronZMdz/x+wDgA01Dck1Mcb6/5h9ALBtBH59ZTepv/+P2QcA+3K7B58mYkl9/X/MPgDY3cQLeRoi3P/H7APAVVgFji1F93YE+/+YfQC4GpqeLCfiIv1/zD4AXB1Dck2M1v4/Zh8Arpb+Z9HYlpb+P3n2cZ/XC8CVMrkY3d/J1//H7APAldT0YCG6t6Pa/8fsA8CVjcC5mc24cv8fsw8AV9ng9HwseXH/H7MPAFfdfbkm5nz/H7MPANdhH/xwSYrA0/1//K5zANfF1MtoLL6VvfJ5ay8WXWD2AeC6rALHF6PRzdi2JLYZjS4SfwCuk9Gp6cWFmZmFxelxRh8AAAAAAAAAAAAAAAAAAAAAAAAAAAAAAAAAAAAAAAAAAAAAAAAAAAAAAAAAAAAAAAAAAAAAAAAAAAAAAAAAAAAAAAAAAAAAAAAAAAAAAAAAAAAAAAAAAAAAAAAAAAAAAAAAAAAAAAAAAAAAAAAAAAAAAAAAAAAAAAAAAAAAAAAAAAAAAAAAAAAAAAAAAAAAAAAAAAAAAAAAAABAXv8HI6f2H3hP6QoAAAAASUVORK5CYII=;labelBackgroundColor=default;clipPath=inset(0% 69.67% 6.31% 4.67%);" parent="1" vertex="1">
                    <mxGeometry x="580" y="-240" width="82.63" height="103.56" as="geometry"/>
                </mxCell>
                <mxCell id="59" value="Android App" style="html=1;verticalLabelPosition=bottom;align=center;labelBackgroundColor=default;verticalAlign=top;strokeWidth=2;strokeColor=#0080F0;shadow=0;dashed=0;shape=mxgraph.ios7.icons.smartphone;aspect=fixed;" parent="1" vertex="1">
                    <mxGeometry x="106.75999999999999" y="50" width="34.75" height="57.92" as="geometry"/>
                </mxCell>
                <mxCell id="60" value="" style="edgeStyle=none;html=1;labelBackgroundColor=default;startArrow=classic;startFill=1;" parent="1" source="59" target="23" edge="1">
                    <mxGeometry relative="1" as="geometry">
                        <mxPoint x="270" y="172.54468061884359" as="targetPoint"/>
                        <mxPoint x="138.1300000000001" y="135.87194630139948" as="sourcePoint"/>
                    </mxGeometry>
                </mxCell>
                <mxCell id="61" value="" style="edgeStyle=orthogonalEdgeStyle;html=1;rounded=1;labelBackgroundColor=default;entryX=1;entryY=0.5;entryDx=0;entryDy=0;" parent="1" source="70" target="58" edge="1">
                    <mxGeometry relative="1" as="geometry">
                        <mxPoint x="760" y="-78.22000000000025" as="sourcePoint"/>
                        <mxPoint x="900" y="-100" as="targetPoint"/>
                        <Array as="points">
                            <mxPoint x="1100" y="62"/>
                            <mxPoint x="1100" y="-188"/>
                        </Array>
                    </mxGeometry>
                </mxCell>
                <mxCell id="74" value="" style="edgeStyle=none;html=1;" edge="1" parent="1" source="62" target="72">
                    <mxGeometry relative="1" as="geometry"/>
                </mxCell>
                <mxCell id="62" value="iOS Subscription" style="aspect=fixed;html=1;points=[];align=center;image;fontSize=12;image=img/lib/azure2/integration/Service_Bus.svg;labelBackgroundColor=default;" parent="1" vertex="1">
                    <mxGeometry x="840" y="-50" width="68" height="60" as="geometry"/>
                </mxCell>
                <mxCell id="63" value="" style="edgeStyle=orthogonalEdgeStyle;html=1;rounded=1;labelBackgroundColor=default;" parent="1" source="18" target="62" edge="1">
                    <mxGeometry relative="1" as="geometry">
                        <mxPoint x="750" y="149.99999999999977" as="sourcePoint"/>
                        <mxPoint x="850" y="99.94117647058806" as="targetPoint"/>
                        <Array as="points">
                            <mxPoint x="720"/>
                        </Array>
                    </mxGeometry>
                </mxCell>
                <mxCell id="64" value="" style="edgeStyle=orthogonalEdgeStyle;html=1;rounded=1;labelBackgroundColor=default;" parent="1" source="67" target="4" edge="1">
                    <mxGeometry relative="1" as="geometry">
                        <mxPoint x="640" y="-19.940000000000225" as="sourcePoint"/>
                        <mxPoint x="740" y="-69.99882352941194" as="targetPoint"/>
                        <Array as="points">
                            <mxPoint x="20" y="-20"/>
                            <mxPoint x="20" y="177"/>
                        </Array>
                    </mxGeometry>
                </mxCell>
                <mxCell id="67" value="Apple APNs" style="html=1;strokeWidth=1;shadow=0;dashed=0;shape=mxgraph.ios7.misc.notification;fillColor=#FF3B2F;strokeColor=none;buttonText=;strokeColor2=#222222;fontColor=#222222;fontSize=12;verticalLabelPosition=bottom;verticalAlign=top;align=center;sketch=0;labelBackgroundColor=default;" parent="1" vertex="1">
                    <mxGeometry x="530" y="-70" width="60" height="60" as="geometry"/>
                </mxCell>
                <mxCell id="68" value="" style="edgeStyle=orthogonalEdgeStyle;html=1;rounded=1;labelBackgroundColor=default;" parent="1" source="72" target="67" edge="1">
                    <mxGeometry relative="1" as="geometry">
                        <mxPoint x="850" y="72.19999999999982" as="sourcePoint"/>
                        <mxPoint x="652.6299999999999" y="61.77999999999997" as="targetPoint"/>
                        <Array as="points">
                            <mxPoint x="994" y="-100"/>
                            <mxPoint x="560" y="-100"/>
                        </Array>
                    </mxGeometry>
                </mxCell>
                <mxCell id="69" value="Website Service" style="aspect=fixed;html=1;points=[];align=center;image;fontSize=12;image=img/lib/azure2/compute/Function_Apps.svg;labelBackgroundColor=default;" vertex="1" parent="1">
                    <mxGeometry x="960" y="360" width="68" height="60" as="geometry"/>
                </mxCell>
                <mxCell id="70" value="Android Service" style="aspect=fixed;html=1;points=[];align=center;image;fontSize=12;image=img/lib/azure2/compute/Function_Apps.svg;labelBackgroundColor=default;" vertex="1" parent="1">
                    <mxGeometry x="960" y="40" width="68" height="60" as="geometry"/>
                </mxCell>
                <mxCell id="78" value="" style="edgeStyle=none;html=1;fontSize=12;" edge="1" parent="1" source="71" target="50">
                    <mxGeometry relative="1" as="geometry"/>
                </mxCell>
                <mxCell id="71" value="SMS Service" style="aspect=fixed;html=1;points=[];align=center;image;fontSize=12;image=img/lib/azure2/compute/Function_Apps.svg;labelBackgroundColor=default;" vertex="1" parent="1">
                    <mxGeometry x="960" y="140" width="68" height="60" as="geometry"/>
                </mxCell>
                <mxCell id="72" value="iOS Service" style="aspect=fixed;html=1;points=[];align=center;image;fontSize=12;image=img/lib/azure2/compute/Function_Apps.svg;labelBackgroundColor=default;" vertex="1" parent="1">
                    <mxGeometry x="959.9999999999999" y="-50" width="68" height="60" as="geometry"/>
                </mxCell>
                <mxCell id="77" value="" style="edgeStyle=none;html=1;fontSize=12;" edge="1" parent="1" source="73" target="48">
                    <mxGeometry relative="1" as="geometry"/>
                </mxCell>
                <mxCell id="73" value="Email Service" style="aspect=fixed;html=1;points=[];align=center;image;fontSize=12;image=img/lib/azure2/compute/Function_Apps.svg;labelBackgroundColor=default;" vertex="1" parent="1">
                    <mxGeometry x="960" y="255.2" width="68" height="60" as="geometry"/>
                </mxCell>
                <mxCell id="79" value="" style="edgeStyle=none;html=1;labelBackgroundColor=default;startArrow=classic;startFill=1;" edge="1" parent="1" source="20" target="25">
                    <mxGeometry relative="1" as="geometry">
                        <mxPoint x="444.9614325068867" y="216" as="sourcePoint"/>
                        <mxPoint x="364.0385674931126" y="333.5" as="targetPoint"/>
                    </mxGeometry>
                </mxCell>
                <mxCell id="20" value="Notification Service" style="aspect=fixed;html=1;points=[];align=center;image;fontSize=12;image=img/lib/azure2/compute/Function_Apps.svg;labelBackgroundColor=default;" parent="1" vertex="1">
                    <mxGeometry x="550" y="144" width="68" height="60" as="geometry"/>
                </mxCell>
            </root>
        </mxGraphModel>
    </diagram>
</mxfile>